<ttFont>
    <TTGlyph name=".notdef" xMin="50" yMin="0" xMax="700" yMax="700">
      <contour>
        <pt x="50" y="700" on="1"/>
        <pt x="700" y="700" on="1"/>
        <pt x="700" y="0" on="1"/>
        <pt x="50" y="0" on="1"/>
      </contour>
      <contour>
        <pt x="570" y="620" on="1"/>
        <pt x="375" y="403" on="1"/>
        <pt x="180" y="620" on="1"/>
        <pt x="130" y="570" on="1"/>
        <pt x="327" y="350" on="1"/>
        <pt x="130" y="130" on="1"/>
        <pt x="180" y="80" on="1"/>
        <pt x="375" y="297" on="1"/>
        <pt x="570" y="80" on="1"/>
        <pt x="620" y="130" on="1"/>
        <pt x="422" y="350" on="1"/>
        <pt x="620" y="570" on="1"/>
      </contour>
      <contour>
        <pt x="129" y="27" on="1"/>
        <pt x="137" y="27" on="1"/>
        <pt x="137" y="39" on="1"/>
        <pt x="141" y="39" on="1"/>
        <pt x="147" y="39" on="0"/>
        <pt x="157" y="44" on="0"/>
        <pt x="157" y="51" on="1"/>
        <pt x="157" y="59" on="0"/>
        <pt x="146" y="63" on="0"/>
        <pt x="140" y="63" on="1"/>
        <pt x="129" y="63" on="1"/>
      </contour>
      <contour>
        <pt x="141" y="57" on="1"/>
        <pt x="149" y="57" on="0"/>
        <pt x="149" y="52" on="1"/>
        <pt x="149" y="47" on="0"/>
        <pt x="144" y="46" on="0"/>
        <pt x="140" y="46" on="1"/>
        <pt x="137" y="46" on="1"/>
        <pt x="137" y="57" on="1"/>
      </contour>
      <contour>
        <pt x="189" y="63" on="1"/>
        <pt x="158" y="63" on="1"/>
        <pt x="158" y="57" on="1"/>
        <pt x="170" y="57" on="1"/>
        <pt x="170" y="27" on="1"/>
        <pt x="177" y="27" on="1"/>
        <pt x="177" y="57" on="1"/>
        <pt x="189" y="57" on="1"/>
      </contour>
      <contour>
        <pt x="222" y="37" on="1"/>
        <pt x="222" y="33" on="0"/>
        <pt x="215" y="33" on="1"/>
        <pt x="208" y="33" on="0"/>
        <pt x="206" y="35" on="1"/>
        <pt x="203" y="28" on="1"/>
        <pt x="205" y="28" on="0"/>
        <pt x="211" y="26" on="0"/>
        <pt x="216" y="26" on="1"/>
        <pt x="230" y="26" on="0"/>
        <pt x="230" y="38" on="1"/>
        <pt x="230" y="47" on="0"/>
        <pt x="212" y="49" on="0"/>
        <pt x="212" y="54" on="1"/>
        <pt x="212" y="57" on="0"/>
        <pt x="218" y="57" on="1"/>
        <pt x="223" y="57" on="0"/>
        <pt x="227" y="55" on="1"/>
        <pt x="229" y="62" on="1"/>
        <pt x="223" y="64" on="0"/>
        <pt x="218" y="64" on="1"/>
        <pt x="204" y="64" on="0"/>
        <pt x="204" y="53" on="1"/>
        <pt x="204" y="48" on="0"/>
        <pt x="210" y="44" on="0"/>
        <pt x="216" y="41" on="0"/>
        <pt x="222" y="39" on="0"/>
      </contour>
      <contour>
        <pt x="237" y="47" on="1"/>
        <pt x="241" y="49" on="0"/>
        <pt x="246" y="49" on="1"/>
        <pt x="251" y="49" on="0"/>
        <pt x="251" y="45" on="1"/>
        <pt x="251" y="43" on="1"/>
        <pt x="250" y="43" on="0"/>
        <pt x="248" y="44" on="0"/>
        <pt x="246" y="44" on="1"/>
        <pt x="234" y="44" on="0"/>
        <pt x="234" y="34" on="1"/>
        <pt x="234" y="26" on="0"/>
        <pt x="242" y="26" on="1"/>
        <pt x="248" y="26" on="0"/>
        <pt x="251" y="31" on="1"/>
        <pt x="253" y="27" on="1"/>
        <pt x="259" y="27" on="1"/>
        <pt x="258" y="29" on="0"/>
        <pt x="258" y="34" on="1"/>
        <pt x="258" y="45" on="1"/>
        <pt x="258" y="55" on="0"/>
        <pt x="248" y="55" on="1"/>
        <pt x="244" y="55" on="0"/>
        <pt x="237" y="53" on="0"/>
        <pt x="235" y="52" on="1"/>
      </contour>
      <contour>
        <pt x="245" y="32" on="1"/>
        <pt x="241" y="32" on="0"/>
        <pt x="241" y="36" on="1"/>
        <pt x="241" y="40" on="0"/>
        <pt x="246" y="40" on="1"/>
        <pt x="248" y="40" on="0"/>
        <pt x="250" y="39" on="0"/>
        <pt x="251" y="39" on="1"/>
        <pt x="251" y="36" on="1"/>
        <pt x="249" y="32" on="0"/>
      </contour>
      <contour>
        <pt x="292" y="27" on="1"/>
        <pt x="292" y="43" on="1"/>
        <pt x="292" y="55" on="0"/>
        <pt x="283" y="55" on="1"/>
        <pt x="276" y="55" on="0"/>
        <pt x="273" y="50" on="1"/>
        <pt x="271" y="54" on="1"/>
        <pt x="266" y="54" on="1"/>
        <pt x="266" y="27" on="1"/>
        <pt x="273" y="27" on="1"/>
        <pt x="273" y="44" on="1"/>
        <pt x="275" y="48" on="0"/>
        <pt x="279" y="48" on="1"/>
        <pt x="284" y="48" on="0"/>
        <pt x="284" y="42" on="1"/>
        <pt x="284" y="27" on="1"/>
      </contour>
      <contour>
        <pt x="297" y="28" on="1"/>
        <pt x="301" y="26" on="0"/>
        <pt x="307" y="26" on="1"/>
        <pt x="318" y="26" on="0"/>
        <pt x="318" y="35" on="1"/>
        <pt x="318" y="40" on="0"/>
        <pt x="313" y="42" on="0"/>
        <pt x="310" y="44" on="1"/>
        <pt x="305" y="46" on="0"/>
        <pt x="305" y="47" on="1"/>
        <pt x="305" y="49" on="0"/>
        <pt x="308" y="49" on="1"/>
        <pt x="312" y="49" on="0"/>
        <pt x="316" y="47" on="1"/>
        <pt x="318" y="53" on="1"/>
        <pt x="314" y="55" on="0"/>
        <pt x="308" y="55" on="1"/>
        <pt x="298" y="55" on="0"/>
        <pt x="298" y="46" on="1"/>
        <pt x="298" y="41" on="0"/>
        <pt x="304" y="38" on="0"/>
        <pt x="306" y="37" on="1"/>
        <pt x="311" y="37" on="0"/>
        <pt x="311" y="34" on="1"/>
        <pt x="311" y="32" on="0"/>
        <pt x="308" y="32" on="1"/>
        <pt x="303" y="32" on="0"/>
        <pt x="299" y="34" on="1"/>
      </contour>
      <contour>
        <pt x="338" y="42" on="1"/>
        <pt x="338" y="21" on="0"/>
        <pt x="358" y="21" on="1"/>
        <pt x="378" y="21" on="0"/>
        <pt x="378" y="42" on="1"/>
        <pt x="378" y="62" on="0"/>
        <pt x="358" y="62" on="1"/>
        <pt x="350" y="62" on="0"/>
        <pt x="338" y="51" on="0"/>
      </contour>
      <contour>
        <pt x="344" y="42" on="1"/>
        <pt x="344" y="57" on="0"/>
        <pt x="358" y="57" on="1"/>
        <pt x="372" y="57" on="0"/>
        <pt x="372" y="42" on="1"/>
        <pt x="372" y="27" on="0"/>
        <pt x="358" y="27" on="1"/>
        <pt x="344" y="27" on="0"/>
      </contour>
      <contour>
        <pt x="364" y="38" on="1"/>
        <pt x="362" y="37" on="0"/>
        <pt x="360" y="37" on="1"/>
        <pt x="356" y="37" on="0"/>
        <pt x="356" y="42" on="1"/>
        <pt x="356" y="46" on="0"/>
        <pt x="360" y="46" on="1"/>
        <pt x="363" y="46" on="1"/>
        <pt x="365" y="50" on="1"/>
        <pt x="361" y="52" on="0"/>
        <pt x="358" y="52" on="1"/>
        <pt x="349" y="52" on="0"/>
        <pt x="349" y="42" on="1"/>
        <pt x="349" y="31" on="0"/>
        <pt x="358" y="31" on="1"/>
        <pt x="363" y="31" on="0"/>
        <pt x="365" y="33" on="1"/>
      </contour>
      <contour>
        <pt x="399" y="27" on="1"/>
        <pt x="407" y="27" on="1"/>
        <pt x="407" y="39" on="1"/>
        <pt x="411" y="39" on="1"/>
        <pt x="417" y="39" on="0"/>
        <pt x="427" y="44" on="0"/>
        <pt x="427" y="51" on="1"/>
        <pt x="427" y="59" on="0"/>
        <pt x="416" y="63" on="0"/>
        <pt x="410" y="63" on="1"/>
        <pt x="399" y="63" on="1"/>
      </contour>
      <contour>
        <pt x="411" y="57" on="1"/>
        <pt x="419" y="57" on="0"/>
        <pt x="419" y="52" on="1"/>
        <pt x="419" y="47" on="0"/>
        <pt x="414" y="46" on="0"/>
        <pt x="410" y="46" on="1"/>
        <pt x="407" y="46" on="1"/>
        <pt x="407" y="57" on="1"/>
      </contour>
      <contour>
        <pt x="432" y="47" on="1"/>
        <pt x="436" y="49" on="0"/>
        <pt x="441" y="49" on="1"/>
        <pt x="446" y="49" on="0"/>
        <pt x="446" y="45" on="1"/>
        <pt x="446" y="43" on="1"/>
        <pt x="445" y="43" on="0"/>
        <pt x="443" y="44" on="0"/>
        <pt x="441" y="44" on="1"/>
        <pt x="428" y="44" on="0"/>
        <pt x="428" y="34" on="1"/>
        <pt x="428" y="26" on="0"/>
        <pt x="437" y="26" on="1"/>
        <pt x="443" y="26" on="0"/>
        <pt x="446" y="31" on="1"/>
        <pt x="448" y="27" on="1"/>
        <pt x="454" y="27" on="1"/>
        <pt x="453" y="29" on="0"/>
        <pt x="453" y="34" on="1"/>
        <pt x="453" y="45" on="1"/>
        <pt x="453" y="55" on="0"/>
        <pt x="443" y="55" on="1"/>
        <pt x="439" y="55" on="0"/>
        <pt x="432" y="53" on="0"/>
        <pt x="430" y="52" on="1"/>
      </contour>
      <contour>
        <pt x="440" y="32" on="1"/>
        <pt x="436" y="32" on="0"/>
        <pt x="436" y="36" on="1"/>
        <pt x="436" y="40" on="0"/>
        <pt x="441" y="40" on="1"/>
        <pt x="443" y="40" on="0"/>
        <pt x="445" y="39" on="0"/>
        <pt x="446" y="39" on="1"/>
        <pt x="446" y="36" on="1"/>
        <pt x="444" y="32" on="0"/>
      </contour>
      <contour>
        <pt x="478" y="54" on="1"/>
        <pt x="477" y="55" on="0"/>
        <pt x="474" y="55" on="1"/>
        <pt x="470" y="55" on="0"/>
        <pt x="468" y="50" on="1"/>
        <pt x="467" y="50" on="1"/>
        <pt x="466" y="54" on="1"/>
        <pt x="460" y="54" on="1"/>
        <pt x="460" y="27" on="1"/>
        <pt x="468" y="27" on="1"/>
        <pt x="468" y="44" on="1"/>
        <pt x="468" y="48" on="0"/>
        <pt x="474" y="48" on="1"/>
        <pt x="475" y="48" on="1"/>
        <pt x="476" y="48" on="0"/>
        <pt x="476" y="47" on="0"/>
        <pt x="477" y="47" on="1"/>
      </contour>
      <contour>
        <pt x="483" y="47" on="1"/>
        <pt x="489" y="49" on="0"/>
        <pt x="492" y="49" on="1"/>
        <pt x="497" y="49" on="0"/>
        <pt x="497" y="45" on="1"/>
        <pt x="497" y="43" on="1"/>
        <pt x="496" y="43" on="0"/>
        <pt x="494" y="44" on="0"/>
        <pt x="492" y="44" on="1"/>
        <pt x="479" y="44" on="0"/>
        <pt x="479" y="34" on="1"/>
        <pt x="479" y="26" on="0"/>
        <pt x="488" y="26" on="1"/>
        <pt x="495" y="26" on="0"/>
        <pt x="497" y="31" on="1"/>
        <pt x="498" y="31" on="1"/>
        <pt x="499" y="27" on="1"/>
        <pt x="505" y="27" on="1"/>
        <pt x="504" y="29" on="0"/>
        <pt x="504" y="34" on="1"/>
        <pt x="504" y="45" on="1"/>
        <pt x="504" y="55" on="0"/>
        <pt x="494" y="55" on="1"/>
        <pt x="490" y="55" on="0"/>
        <pt x="484" y="53" on="0"/>
        <pt x="482" y="52" on="1"/>
      </contour>
      <contour>
        <pt x="491" y="32" on="1"/>
        <pt x="487" y="32" on="0"/>
        <pt x="487" y="36" on="1"/>
        <pt x="487" y="40" on="0"/>
        <pt x="492" y="40" on="1"/>
        <pt x="494" y="40" on="0"/>
        <pt x="496" y="39" on="0"/>
        <pt x="497" y="39" on="1"/>
        <pt x="497" y="36" on="1"/>
        <pt x="495" y="32" on="0"/>
      </contour>
      <contour>
        <pt x="533" y="63" on="1"/>
        <pt x="502" y="63" on="1"/>
        <pt x="502" y="57" on="1"/>
        <pt x="513" y="57" on="1"/>
        <pt x="513" y="27" on="1"/>
        <pt x="521" y="27" on="1"/>
        <pt x="521" y="57" on="1"/>
        <pt x="533" y="57" on="1"/>
      </contour>
      <contour>
        <pt x="541" y="54" on="1"/>
        <pt x="533" y="54" on="1"/>
        <pt x="545" y="27" on="1"/>
        <pt x="544" y="22" on="0"/>
        <pt x="540" y="22" on="1"/>
        <pt x="540" y="22" on="0"/>
        <pt x="539" y="23" on="1"/>
        <pt x="537" y="17" on="1"/>
        <pt x="539" y="16" on="0"/>
        <pt x="542" y="16" on="1"/>
        <pt x="547" y="16" on="0"/>
        <pt x="552" y="29" on="1"/>
        <pt x="562" y="54" on="1"/>
        <pt x="554" y="54" on="1"/>
        <pt x="549" y="39" on="1"/>
        <pt x="549" y="34" on="1"/>
        <pt x="548" y="34" on="1"/>
        <pt x="547" y="39" on="1"/>
      </contour>
      <contour>
        <pt x="565" y="16" on="1"/>
        <pt x="573" y="16" on="1"/>
        <pt x="573" y="28" on="1"/>
        <pt x="574" y="26" on="0"/>
        <pt x="578" y="26" on="1"/>
        <pt x="592" y="26" on="0"/>
        <pt x="592" y="41" on="1"/>
        <pt x="592" y="55" on="0"/>
        <pt x="581" y="55" on="1"/>
        <pt x="576" y="55" on="0"/>
        <pt x="572" y="51" on="1"/>
        <pt x="571" y="51" on="1"/>
        <pt x="570" y="54" on="1"/>
        <pt x="565" y="54" on="1"/>
      </contour>
      <contour>
        <pt x="579" y="49" on="1"/>
        <pt x="584" y="49" on="0"/>
        <pt x="584" y="41" on="1"/>
        <pt x="584" y="32" on="0"/>
        <pt x="577" y="32" on="1"/>
        <pt x="575" y="32" on="0"/>
        <pt x="573" y="34" on="1"/>
        <pt x="573" y="44" on="1"/>
        <pt x="573" y="49" on="0"/>
      </contour>
      <contour>
        <pt x="618" y="34" on="1"/>
        <pt x="616" y="32" on="0"/>
        <pt x="611" y="32" on="1"/>
        <pt x="604" y="32" on="0"/>
        <pt x="603" y="38" on="1"/>
        <pt x="622" y="38" on="1"/>
        <pt x="622" y="44" on="1"/>
        <pt x="622" y="50" on="0"/>
        <pt x="615" y="55" on="0"/>
        <pt x="610" y="55" on="1"/>
        <pt x="596" y="55" on="0"/>
        <pt x="596" y="40" on="1"/>
        <pt x="596" y="26" on="0"/>
        <pt x="610" y="26" on="1"/>
        <pt x="613" y="26" on="0"/>
        <pt x="619" y="28" on="0"/>
        <pt x="621" y="29" on="1"/>
      </contour>
      <contour>
        <pt x="610" y="49" on="1"/>
        <pt x="616" y="49" on="0"/>
        <pt x="615" y="43" on="1"/>
        <pt x="604" y="43" on="1"/>
        <pt x="604" y="49" on="0"/>
      </contour>
    </TTGlyph>
    <TTGlyph name="A" xMin="0" yMin="0" xMax="658" yMax="705">
      <contour>
        <pt x="441" y="149" on="1"/>
        <pt x="205" y="149" on="1"/>
        <pt x="148" y="0" on="1"/>
        <pt x="0" y="0" on="1"/>
        <pt x="274" y="705" on="1"/>
        <pt x="383" y="705" on="1"/>
        <pt x="658" y="0" on="1"/>
        <pt x="501" y="0" on="1"/>
      </contour>
      <contour>
        <pt x="246" y="266" on="1"/>
        <pt x="406" y="266" on="1"/>
        <pt x="352" y="412" on="1"/>
        <pt x="328" y="523" on="1"/>
        <pt x="323" y="523" on="1"/>
        <pt x="299" y="411" on="1"/>
      </contour>
    </TTGlyph>
    <TTGlyph name="AE" xMin="-32" yMin="0" xMax="890" yMax="700">
      <contour>
        <pt x="427" y="530" on="1"/>
        <pt x="388" y="424" on="1"/>
        <pt x="301" y="285" on="1"/>
        <pt x="434" y="285" on="1"/>
        <pt x="434" y="530" on="1"/>
      </contour>
      <contour>
        <pt x="434" y="165" on="1"/>
        <pt x="232" y="165" on="1"/>
        <pt x="126" y="0" on="1"/>
        <pt x="-32" y="0" on="1"/>
        <pt x="429" y="700" on="1"/>
        <pt x="885" y="700" on="1"/>
        <pt x="885" y="570" on="1"/>
        <pt x="582" y="570" on="1"/>
        <pt x="582" y="418" on="1"/>
        <pt x="858" y="418" on="1"/>
        <pt x="858" y="288" on="1"/>
        <pt x="582" y="288" on="1"/>
        <pt x="582" y="130" on="1"/>
        <pt x="890" y="130" on="1"/>
        <pt x="890" y="0" on="1"/>
        <pt x="434" y="0" on="1"/>
      </contour>
    </TTGlyph>
    <TTGlyph name="Aacute" xMin="0" yMin="0" xMax="658" yMax="870">
      <component glyphName="A" x="0" y="0" flags="0x204"/>
      <component glyphName="uniF6C9" x="187" y="0" flags="0x4"/>
    </TTGlyph>
    <TTGlyph name="Abreve" xMin="0" yMin="0" xMax="658" yMax="876">
      <component glyphName="A" x="0" y="0" flags="0x204"/>
      <component glyphName="uniF406" x="61" y="0" flags="0x4"/>
    </TTGlyph>
    <TTGlyph name="Acircumflex" xMin="0" yMin="0" xMax="658" yMax="870">
      <component glyphName="A" x="0" y="0" flags="0x204"/>
      <component glyphName="uniF408" x="74" y="0" flags="0x4"/>
    </TTGlyph>
    <TTGlyph name="Adieresis" xMin="0" yMin="0" xMax="658" yMax="858">
      <component glyphName="A" x="0" y="0" flags="0x204"/>
      <component glyphName="uniF6CB" x="71" y="0" flags="0x4"/>
    </TTGlyph>
    <TTGlyph name="Agrave" xMin="0" yMin="0" xMax="658" yMax="870">
      <component glyphName="A" x="0" y="0" flags="0x204"/>
      <component glyphName="uniF6CE" x="68" y="0" flags="0x4"/>
    </TTGlyph>
    <TTGlyph name="Amacron" xMin="0" yMin="0" xMax="658" yMax="848">
      <component glyphName="A" x="0" y="0" flags="0x204"/>
      <component glyphName="uniF6D0" x="80" y="0" flags="0x4"/>
    </TTGlyph>
    <TTGlyph name="Aogonek" xMin="0" yMin="-211" xMax="696" yMax="705">
      <contour>
        <pt x="441" y="149" on="1"/>
        <pt x="205" y="149" on="1"/>
        <pt x="148" y="0" on="1"/>
        <pt x="0" y="0" on="1"/>
        <pt x="274" y="705" on="1"/>
        <pt x="383" y="705" on="1"/>
        <pt x="658" y="0" on="1"/>
        <pt x="639" y="0" on="1"/>
        <pt x="577" y="-27" on="0"/>
        <pt x="578" y="-74" on="1"/>
        <pt x="578" y="-94" on="0"/>
        <pt x="606" y="-121" on="0"/>
        <pt x="630" y="-121" on="1"/>
        <pt x="641" y="-121" on="0"/>
        <pt x="661" y="-117" on="0"/>
        <pt x="674" y="-110" on="1"/>
        <pt x="696" y="-174" on="1"/>
        <pt x="678" y="-187" on="0"/>
        <pt x="608" y="-211" on="0"/>
        <pt x="567" y="-211" on="1"/>
        <pt x="506" y="-211" on="0"/>
        <pt x="442" y="-157" on="0"/>
        <pt x="442" y="-114" on="1"/>
        <pt x="442" y="-76" on="0"/>
        <pt x="497" y="-17" on="0"/>
        <pt x="543" y="0" on="1"/>
        <pt x="501" y="0" on="1"/>
      </contour>
      <contour>
        <pt x="246" y="266" on="1"/>
        <pt x="406" y="266" on="1"/>
        <pt x="352" y="412" on="1"/>
        <pt x="328" y="523" on="1"/>
        <pt x="323" y="523" on="1"/>
        <pt x="299" y="411" on="1"/>
      </contour>
    </TTGlyph>
    <TTGlyph name="Aring" xMin="0" yMin="0" xMax="658" yMax="862">
      <contour>
        <pt x="191" y="772" on="1"/>
        <pt x="191" y="790" on="0"/>
        <pt x="203" y="823" on="0"/>
        <pt x="234" y="848" on="0"/>
        <pt x="288" y="862" on="0"/>
        <pt x="329" y="862" on="1"/>
        <pt x="406" y="862" on="0"/>
        <pt x="468" y="814" on="0"/>
        <pt x="468" y="772" on="1"/>
        <pt x="468" y="743" on="0"/>
        <pt x="434" y="699" on="0"/>
        <pt x="389" y="689" on="1"/>
        <pt x="658" y="0" on="1"/>
        <pt x="501" y="0" on="1"/>
        <pt x="441" y="149" on="1"/>
        <pt x="205" y="149" on="1"/>
        <pt x="148" y="0" on="1"/>
        <pt x="0" y="0" on="1"/>
        <pt x="268" y="689" on="1"/>
        <pt x="225" y="698" on="0"/>
        <pt x="191" y="742" on="0"/>
      </contour>
      <contour>
        <pt x="246" y="266" on="1"/>
        <pt x="406" y="266" on="1"/>
        <pt x="352" y="412" on="1"/>
        <pt x="328" y="523" on="1"/>
        <pt x="323" y="523" on="1"/>
        <pt x="299" y="411" on="1"/>
      </contour>
      <contour>
        <pt x="281" y="772" on="1"/>
        <pt x="281" y="758" on="0"/>
        <pt x="303" y="742" on="0"/>
        <pt x="329" y="742" on="1"/>
        <pt x="357" y="742" on="0"/>
        <pt x="378" y="757" on="0"/>
        <pt x="378" y="772" on="1"/>
        <pt x="378" y="788" on="0"/>
        <pt x="355" y="804" on="0"/>
        <pt x="329" y="804" on="1"/>
        <pt x="281" y="804" on="0"/>
      </contour>
    </TTGlyph>
    <TTGlyph name="Atilde" xMin="0" yMin="0" xMax="658" yMax="865">
      <component glyphName="A" x="0" y="0" flags="0x204"/>
      <component glyphName="uniF40D" x="65" y="0" flags="0x4"/>
    </TTGlyph>
    <TTGlyph name="B" xMin="65" yMin="-10" xMax="600" yMax="710">
      <contour>
        <pt x="577" y="535" on="1"/>
        <pt x="577" y="509" on="0"/>
        <pt x="562" y="458" on="0"/>
        <pt x="530" y="414" on="0"/>
        <pt x="478" y="382" on="0"/>
        <pt x="441" y="375" on="1"/>
        <pt x="441" y="369" on="1"/>
        <pt x="474" y="366" on="0"/>
        <pt x="532" y="342" on="0"/>
        <pt x="575" y="299" on="0"/>
        <pt x="600" y="238" on="0"/>
        <pt x="600" y="197" on="1"/>
        <pt x="600" y="142" on="0"/>
        <pt x="549" y="64" on="0"/>
        <pt x="467" y="14" on="0"/>
        <pt x="361" y="-10" on="0"/>
        <pt x="306" y="-10" on="1"/>
        <pt x="288" y="-10" on="0"/>
        <pt x="229" y="-10" on="0"/>
        <pt x="162" y="-7" on="0"/>
        <pt x="93" y="-1" on="0"/>
        <pt x="65" y="5" on="1"/>
        <pt x="65" y="695" on="1"/>
        <pt x="86" y="698" on="0"/>
        <pt x="139" y="704" on="0"/>
        <pt x="200" y="708" on="0"/>
        <pt x="264" y="710" on="0"/>
        <pt x="296" y="710" on="1"/>
        <pt x="348" y="710" on="0"/>
        <pt x="448" y="695" on="0"/>
        <pt x="528" y="656" on="0"/>
        <pt x="577" y="588" on="0"/>
      </contour>
      <contour>
        <pt x="304" y="110" on="1"/>
        <pt x="332" y="110" on="0"/>
        <pt x="383" y="120" on="0"/>
        <pt x="422" y="143" on="0"/>
        <pt x="445" y="178" on="0"/>
        <pt x="445" y="204" on="1"/>
        <pt x="445" y="236" on="0"/>
        <pt x="417" y="274" on="0"/>
        <pt x="372" y="293" on="0"/>
        <pt x="317" y="298" on="0"/>
        <pt x="289" y="298" on="1"/>
        <pt x="207" y="298" on="1"/>
        <pt x="207" y="116" on="1"/>
        <pt x="213" y="114" on="0"/>
        <pt x="236" y="112" on="0"/>
        <pt x="264" y="111" on="0"/>
        <pt x="293" y="110" on="0"/>
      </contour>
      <contour>
        <pt x="257" y="408" on="1"/>
        <pt x="272" y="408" on="0"/>
        <pt x="313" y="409" on="0"/>
        <pt x="327" y="411" on="1"/>
        <pt x="369" y="424" on="0"/>
        <pt x="427" y="469" on="0"/>
        <pt x="427" y="508" on="1"/>
        <pt x="427" y="534" on="0"/>
        <pt x="405" y="566" on="0"/>
        <pt x="368" y="584" on="0"/>
        <pt x="322" y="590" on="0"/>
        <pt x="298" y="590" on="1"/>
        <pt x="269" y="590" on="0"/>
        <pt x="221" y="588" on="0"/>
        <pt x="207" y="586" on="1"/>
        <pt x="207" y="408" on="1"/>
      </contour>
    </TTGlyph>
    <TTGlyph name="C" xMin="40" yMin="-14" xMax="579" yMax="714">
      <contour>
        <pt x="579" y="30" on="1"/>
        <pt x="546" y="7" on="0"/>
        <pt x="438" y="-14" on="0"/>
        <pt x="381" y="-14" on="1"/>
        <pt x="314" y="-14" on="0"/>
        <pt x="191" y="26" on="0"/>
        <pt x="96" y="114" on="0"/>
        <pt x="40" y="252" on="0"/>
        <pt x="40" y="350" on="1"/>
        <pt x="40" y="452" on="0"/>
        <pt x="104" y="591" on="0"/>
        <pt x="204" y="676" on="0"/>
        <pt x="326" y="714" on="0"/>
        <pt x="385" y="714" on="1"/>
        <pt x="450" y="714" on="0"/>
        <pt x="539" y="698" on="0"/>
        <pt x="568" y="687" on="1"/>
        <pt x="539" y="563" on="1"/>
        <pt x="514" y="574" on="0"/>
        <pt x="447" y="584" on="0"/>
        <pt x="396" y="584" on="1"/>
        <pt x="351" y="584" on="0"/>
        <pt x="278" y="555" on="0"/>
        <pt x="226" y="497" on="0"/>
        <pt x="197" y="409" on="0"/>
        <pt x="197" y="350" on="1"/>
        <pt x="197" y="298" on="0"/>
        <pt x="223" y="212" on="0"/>
        <pt x="275" y="150" on="0"/>
        <pt x="355" y="116" on="0"/>
        <pt x="408" y="116" on="1"/>
        <pt x="457" y="116" on="0"/>
        <pt x="524" y="134" on="0"/>
        <pt x="550" y="148" on="1"/>
      </contour>
    </TTGlyph>
    <TTGlyph name="Cacute" xMin="40" yMin="-14" xMax="579" yMax="870">
      <component glyphName="C" x="0" y="0" flags="0x204"/>
      <component glyphName="uniF6C9" x="233" y="0" flags="0x4"/>
    </TTGlyph>
    <TTGlyph name="Ccaron" xMin="40" yMin="-14" xMax="579" yMax="870">
      <component glyphName="C" x="0" y="0" flags="0x204"/>
      <component glyphName="uniF6CA" x="119" y="0" flags="0x4"/>
    </TTGlyph>
    <TTGlyph name="Ccedilla" xMin="40" yMin="-224" xMax="579" yMax="714">
      <contour>
        <pt x="579" y="30" on="1"/>
        <pt x="552" y="11" on="0"/>
        <pt x="470" y="-9" on="0"/>
        <pt x="424" y="-12" on="1"/>
        <pt x="400" y="-52" on="1"/>
        <pt x="448" y="-55" on="0"/>
        <pt x="503" y="-91" on="0"/>
        <pt x="503" y="-129" on="1"/>
        <pt x="503" y="-153" on="0"/>
        <pt x="478" y="-188" on="0"/>
        <pt x="434" y="-212" on="0"/>
        <pt x="376" y="-224" on="0"/>
        <pt x="342" y="-224" on="1"/>
        <pt x="324" y="-224" on="0"/>
        <pt x="288" y="-222" on="0"/>
        <pt x="269" y="-218" on="1"/>
        <pt x="279" y="-171" on="1"/>
        <pt x="310" y="-173" on="0"/>
        <pt x="348" y="-168" on="0"/>
        <pt x="369" y="-159" on="0"/>
        <pt x="376" y="-146" on="0"/>
        <pt x="376" y="-138" on="1"/>
        <pt x="376" y="-121" on="0"/>
        <pt x="330" y="-103" on="0"/>
        <pt x="279" y="-101" on="1"/>
        <pt x="337" y="-11" on="1"/>
        <pt x="277" y="-5" on="0"/>
        <pt x="169" y="41" on="0"/>
        <pt x="88" y="129" on="0"/>
        <pt x="40" y="260" on="0"/>
        <pt x="40" y="350" on="1"/>
        <pt x="40" y="452" on="0"/>
        <pt x="104" y="591" on="0"/>
        <pt x="204" y="676" on="0"/>
        <pt x="326" y="714" on="0"/>
        <pt x="385" y="714" on="1"/>
        <pt x="450" y="714" on="0"/>
        <pt x="539" y="698" on="0"/>
        <pt x="568" y="687" on="1"/>
        <pt x="539" y="563" on="1"/>
        <pt x="514" y="574" on="0"/>
        <pt x="447" y="584" on="0"/>
        <pt x="396" y="584" on="1"/>
        <pt x="351" y="584" on="0"/>
        <pt x="278" y="555" on="0"/>
        <pt x="226" y="497" on="0"/>
        <pt x="197" y="409" on="0"/>
        <pt x="197" y="350" on="1"/>
        <pt x="197" y="298" on="0"/>
        <pt x="223" y="212" on="0"/>
        <pt x="275" y="150" on="0"/>
        <pt x="355" y="116" on="0"/>
        <pt x="408" y="116" on="1"/>
        <pt x="457" y="116" on="0"/>
        <pt x="524" y="134" on="0"/>
        <pt x="550" y="148" on="1"/>
      </contour>
    </TTGlyph>
    <TTGlyph name="Ccircumflex" xMin="40" yMin="-14" xMax="579" yMax="870">
      <component glyphName="C" x="0" y="0" flags="0x204"/>
      <component glyphName="uniF408" x="107" y="0" flags="0x4"/>
    </TTGlyph>
    <TTGlyph name="D" xMin="65" yMin="-11" xMax="662" yMax="710">
      <contour>
        <pt x="65" y="700" on="1"/>
        <pt x="87" y="703" on="0"/>
        <pt x="144" y="707" on="0"/>
        <pt x="205" y="709" on="0"/>
        <pt x="263" y="710" on="0"/>
        <pt x="286" y="710" on="1"/>
        <pt x="386" y="710" on="0"/>
        <pt x="529" y="657" on="0"/>
        <pt x="620" y="563" on="0"/>
        <pt x="662" y="433" on="0"/>
        <pt x="662" y="356" on="1"/>
        <pt x="662" y="286" on="0"/>
        <pt x="621" y="154" on="0"/>
        <pt x="529" y="51" on="0"/>
        <pt x="381" y="-11" on="0"/>
        <pt x="273" y="-11" on="1"/>
        <pt x="256" y="-11" on="0"/>
        <pt x="197" y="-9" on="0"/>
        <pt x="134" y="-6" on="0"/>
        <pt x="79" y="-3" on="0"/>
        <pt x="65" y="-1" on="1"/>
      </contour>
      <contour>
        <pt x="297" y="580" on="1"/>
        <pt x="274" y="580" on="0"/>
        <pt x="226" y="579" on="0"/>
        <pt x="213" y="577" on="1"/>
        <pt x="213" y="123" on="1"/>
        <pt x="218" y="122" on="0"/>
        <pt x="239" y="121" on="0"/>
        <pt x="262" y="120" on="0"/>
        <pt x="283" y="119" on="0"/>
        <pt x="288" y="119" on="1"/>
        <pt x="352" y="119" on="0"/>
        <pt x="436" y="159" on="0"/>
        <pt x="485" y="225" on="0"/>
        <pt x="505" y="309" on="0"/>
        <pt x="505" y="354" on="1"/>
        <pt x="505" y="391" on="0"/>
        <pt x="487" y="471" on="0"/>
        <pt x="440" y="537" on="0"/>
        <pt x="360" y="580" on="0"/>
      </contour>
    </TTGlyph>
    <TTGlyph name="Dcaron" xMin="65" yMin="-11" xMax="662" yMax="870">
      <component glyphName="D" x="0" y="0" flags="0x204"/>
      <component glyphName="uniF6CA" x="60" y="0" flags="0x4"/>
    </TTGlyph>
    <TTGlyph name="Dcroat" xMin="-7" yMin="-11" xMax="674" yMax="710">
      <component glyphName="Eth" x="0" y="0" flags="0x204"/>
    </TTGlyph>
    <TTGlyph name="E" xMin="65" yMin="0" xMax="521" yMax="700">
      <contour>
        <pt x="65" y="700" on="1"/>
        <pt x="516" y="700" on="1"/>
        <pt x="516" y="570" on="1"/>
        <pt x="213" y="570" on="1"/>
        <pt x="213" y="418" on="1"/>
        <pt x="488" y="418" on="1"/>
        <pt x="488" y="288" on="1"/>
        <pt x="213" y="288" on="1"/>
        <pt x="213" y="130" on="1"/>
        <pt x="521" y="130" on="1"/>
        <pt x="521" y="0" on="1"/>
        <pt x="65" y="0" on="1"/>
      </contour>
    </TTGlyph>
    <TTGlyph name="Eacute" xMin="65" yMin="0" xMax="521" yMax="870">
      <component glyphName="E" x="0" y="0" flags="0x204"/>
      <component glyphName="uniF6C9" x="145" y="0" flags="0x4"/>
    </TTGlyph>
    <TTGlyph name="Ecaron" xMin="65" yMin="0" xMax="521" yMax="870">
      <component glyphName="E" x="0" y="0" flags="0x204"/>
      <component glyphName="uniF6CA" x="34" y="0" flags="0x4"/>
    </TTGlyph>
    <TTGlyph name="Ecircumflex" xMin="65" yMin="0" xMax="521" yMax="870">
      <component glyphName="E" x="0" y="0" flags="0x204"/>
      <component glyphName="uniF408" x="33" y="0" flags="0x4"/>
    </TTGlyph>
    <TTGlyph name="Edieresis" xMin="65" yMin="0" xMax="521" yMax="858">
      <component glyphName="E" x="0" y="0" flags="0x204"/>
      <component glyphName="uniF6CB" x="31" y="0" flags="0x4"/>
    </TTGlyph>
    <TTGlyph name="Edotaccent" xMin="65" yMin="0" xMax="521" yMax="860">
      <component glyphName="E" x="0" y="0" flags="0x204"/>
      <component glyphName="uniF40B" x="149" y="0" flags="0x4"/>
    </TTGlyph>
    <TTGlyph name="Egrave" xMin="65" yMin="0" xMax="521" yMax="870">
      <component glyphName="E" x="0" y="0" flags="0x204"/>
      <component glyphName="uniF6CE" x="37" y="0" flags="0x4"/>
    </TTGlyph>
    <TTGlyph name="Emacron" xMin="65" yMin="0" xMax="521" yMax="848">
      <component glyphName="E" x="0" y="0" flags="0x204"/>
      <component glyphName="uniF6D0" x="45" y="0" flags="0x4"/>
    </TTGlyph>
    <TTGlyph name="Eogonek" xMin="65" yMin="-211" xMax="554" yMax="700">
      <contour>
        <pt x="65" y="700" on="1"/>
        <pt x="516" y="700" on="1"/>
        <pt x="516" y="570" on="1"/>
        <pt x="213" y="570" on="1"/>
        <pt x="213" y="418" on="1"/>
        <pt x="488" y="418" on="1"/>
        <pt x="488" y="288" on="1"/>
        <pt x="213" y="288" on="1"/>
        <pt x="213" y="130" on="1"/>
        <pt x="521" y="130" on="1"/>
        <pt x="521" y="0" on="1"/>
        <pt x="497" y="0" on="1"/>
        <pt x="435" y="-27" on="0"/>
        <pt x="436" y="-74" on="1"/>
        <pt x="436" y="-94" on="0"/>
        <pt x="464" y="-121" on="0"/>
        <pt x="488" y="-121" on="1"/>
        <pt x="499" y="-121" on="0"/>
        <pt x="519" y="-117" on="0"/>
        <pt x="532" y="-110" on="1"/>
        <pt x="554" y="-174" on="1"/>
        <pt x="536" y="-187" on="0"/>
        <pt x="466" y="-211" on="0"/>
        <pt x="425" y="-211" on="1"/>
        <pt x="364" y="-211" on="0"/>
        <pt x="300" y="-157" on="0"/>
        <pt x="300" y="-114" on="1"/>
        <pt x="300" y="-76" on="0"/>
        <pt x="355" y="-17" on="0"/>
        <pt x="401" y="0" on="1"/>
        <pt x="65" y="0" on="1"/>
      </contour>
    </TTGlyph>
    <TTGlyph name="Eth" xMin="-7" yMin="-11" xMax="674" yMax="710">
      <contour>
        <pt x="-7" y="412" on="1"/>
        <pt x="77" y="412" on="1"/>
        <pt x="77" y="700" on="1"/>
        <pt x="99" y="703" on="0"/>
        <pt x="156" y="707" on="0"/>
        <pt x="217" y="709" on="0"/>
        <pt x="275" y="710" on="0"/>
        <pt x="298" y="710" on="1"/>
        <pt x="398" y="710" on="0"/>
        <pt x="541" y="657" on="0"/>
        <pt x="632" y="563" on="0"/>
        <pt x="674" y="433" on="0"/>
        <pt x="674" y="356" on="1"/>
        <pt x="674" y="286" on="0"/>
        <pt x="633" y="154" on="0"/>
        <pt x="541" y="51" on="0"/>
        <pt x="393" y="-11" on="0"/>
        <pt x="285" y="-11" on="1"/>
        <pt x="268" y="-11" on="0"/>
        <pt x="209" y="-9" on="0"/>
        <pt x="146" y="-6" on="0"/>
        <pt x="91" y="-3" on="0"/>
        <pt x="77" y="-1" on="1"/>
        <pt x="77" y="295" on="1"/>
        <pt x="-7" y="295" on="1"/>
      </contour>
      <contour>
        <pt x="225" y="412" on="1"/>
        <pt x="360" y="412" on="1"/>
        <pt x="360" y="295" on="1"/>
        <pt x="225" y="295" on="1"/>
        <pt x="225" y="123" on="1"/>
        <pt x="230" y="122" on="0"/>
        <pt x="251" y="121" on="0"/>
        <pt x="274" y="120" on="0"/>
        <pt x="295" y="119" on="0"/>
        <pt x="300" y="119" on="1"/>
        <pt x="364" y="119" on="0"/>
        <pt x="448" y="159" on="0"/>
        <pt x="497" y="225" on="0"/>
        <pt x="517" y="309" on="0"/>
        <pt x="517" y="354" on="1"/>
        <pt x="517" y="391" on="0"/>
        <pt x="499" y="471" on="0"/>
        <pt x="452" y="537" on="0"/>
        <pt x="372" y="580" on="0"/>
        <pt x="309" y="580" on="1"/>
        <pt x="286" y="580" on="0"/>
        <pt x="238" y="579" on="0"/>
        <pt x="225" y="577" on="1"/>
      </contour>
    </TTGlyph>
    <TTGlyph name="Euro" xMin="-11" yMin="-14" xMax="589" yMax="714">
      <contour>
        <pt x="23" y="475" on="1"/>
        <pt x="92" y="475" on="1"/>
        <pt x="108" y="542" on="0"/>
        <pt x="170" y="631" on="0"/>
        <pt x="253" y="688" on="0"/>
        <pt x="351" y="714" on="0"/>
        <pt x="403" y="714" on="1"/>
        <pt x="461" y="714" on="0"/>
        <pt x="550" y="697" on="0"/>
        <pt x="579" y="686" on="1"/>
        <pt x="540" y="576" on="1"/>
        <pt x="517" y="586" on="0"/>
        <pt x="453" y="597" on="0"/>
        <pt x="411" y="597" on="1"/>
        <pt x="348" y="597" on="0"/>
        <pt x="254" y="539" on="0"/>
        <pt x="230" y="475" on="1"/>
        <pt x="509" y="475" on="1"/>
        <pt x="481" y="381" on="1"/>
        <pt x="209" y="381" on="1"/>
        <pt x="208" y="374" on="0"/>
        <pt x="208" y="358" on="0"/>
        <pt x="208" y="350" on="1"/>
        <pt x="208" y="323" on="1"/>
        <pt x="459" y="323" on="1"/>
        <pt x="431" y="229" on="1"/>
        <pt x="227" y="229" on="1"/>
        <pt x="250" y="167" on="0"/>
        <pt x="345" y="103" on="0"/>
        <pt x="422" y="103" on="1"/>
        <pt x="469" y="103" on="0"/>
        <pt x="534" y="124" on="0"/>
        <pt x="560" y="139" on="1"/>
        <pt x="589" y="31" on="1"/>
        <pt x="572" y="19" on="0"/>
        <pt x="528" y="2" on="0"/>
        <pt x="477" y="-9" on="0"/>
        <pt x="425" y="-14" on="0"/>
        <pt x="401" y="-14" on="1"/>
        <pt x="342" y="-14" on="0"/>
        <pt x="241" y="15" on="0"/>
        <pt x="160" y="74" on="0"/>
        <pt x="103" y="164" on="0"/>
        <pt x="89" y="229" on="1"/>
        <pt x="-11" y="229" on="1"/>
        <pt x="23" y="323" on="1"/>
        <pt x="77" y="323" on="1"/>
        <pt x="77" y="350" on="1"/>
        <pt x="77" y="358" on="0"/>
        <pt x="77" y="374" on="0"/>
        <pt x="78" y="381" on="1"/>
        <pt x="-11" y="381" on="1"/>
      </contour>
    </TTGlyph>
    <TTGlyph name="F" xMin="65" yMin="0" xMax="516" yMax="700">
      <contour>
        <pt x="65" y="700" on="1"/>
        <pt x="516" y="700" on="1"/>
        <pt x="516" y="570" on="1"/>
        <pt x="213" y="570" on="1"/>
        <pt x="213" y="407" on="1"/>
        <pt x="492" y="407" on="1"/>
        <pt x="492" y="277" on="1"/>
        <pt x="213" y="277" on="1"/>
        <pt x="213" y="0" on="1"/>
        <pt x="65" y="0" on="1"/>
      </contour>
    </TTGlyph>
    <TTGlyph name="G" xMin="40" yMin="-14" xMax="617" yMax="714">
      <contour>
        <pt x="331" y="368" on="1"/>
        <pt x="617" y="368" on="1"/>
        <pt x="617" y="54" on="1"/>
        <pt x="594" y="36" on="0"/>
        <pt x="539" y="11" on="0"/>
        <pt x="478" y="-6" on="0"/>
        <pt x="414" y="-14" on="0"/>
        <pt x="383" y="-14" on="1"/>
        <pt x="311" y="-14" on="0"/>
        <pt x="186" y="28" on="0"/>
        <pt x="93" y="117" on="0"/>
        <pt x="40" y="255" on="0"/>
        <pt x="40" y="350" on="1"/>
        <pt x="40" y="449" on="0"/>
        <pt x="104" y="588" on="0"/>
        <pt x="207" y="675" on="0"/>
        <pt x="334" y="714" on="0"/>
        <pt x="397" y="714" on="1"/>
        <pt x="462" y="714" on="0"/>
        <pt x="561" y="695" on="0"/>
        <pt x="589" y="686" on="1"/>
        <pt x="558" y="563" on="1"/>
        <pt x="531" y="572" on="0"/>
        <pt x="463" y="584" on="0"/>
        <pt x="412" y="584" on="1"/>
        <pt x="365" y="584" on="0"/>
        <pt x="287" y="559" on="0"/>
        <pt x="229" y="503" on="0"/>
        <pt x="197" y="413" on="0"/>
        <pt x="197" y="349" on="1"/>
        <pt x="197" y="287" on="0"/>
        <pt x="229" y="199" on="0"/>
        <pt x="284" y="142" on="0"/>
        <pt x="356" y="116" on="0"/>
        <pt x="396" y="116" on="1"/>
        <pt x="423" y="116" on="0"/>
        <pt x="478" y="128" on="0"/>
        <pt x="497" y="141" on="1"/>
        <pt x="497" y="262" on="1"/>
        <pt x="331" y="278" on="1"/>
      </contour>
    </TTGlyph>
    <TTGlyph name="Gbreve" xMin="40" yMin="-14" xMax="617" yMax="876">
      <component glyphName="G" x="0" y="0" flags="0x204"/>
      <component glyphName="uniF406" x="94" y="0" flags="0x4"/>
    </TTGlyph>
    <TTGlyph name="Gcircumflex" xMin="40" yMin="-14" xMax="617" yMax="870">
      <component glyphName="G" x="0" y="0" flags="0x204"/>
      <component glyphName="uniF408" x="123" y="0" flags="0x4"/>
    </TTGlyph>
    <TTGlyph name="Gcommaaccent" xMin="40" yMin="-276" xMax="617" yMax="714">
      <component glyphName="G" x="0" y="0" flags="0x204"/>
      <component glyphName="uniF6C3" x="236" y="0" flags="0x4"/>
    </TTGlyph>
    <TTGlyph name="H" xMin="65" yMin="0" xMax="641" yMax="700">
      <contour>
        <pt x="493" y="289" on="1"/>
        <pt x="213" y="289" on="1"/>
        <pt x="213" y="0" on="1"/>
        <pt x="65" y="0" on="1"/>
        <pt x="65" y="700" on="1"/>
        <pt x="213" y="700" on="1"/>
        <pt x="213" y="419" on="1"/>
        <pt x="493" y="419" on="1"/>
        <pt x="493" y="700" on="1"/>
        <pt x="641" y="700" on="1"/>
        <pt x="641" y="0" on="1"/>
        <pt x="493" y="0" on="1"/>
      </contour>
    </TTGlyph>
    <TTGlyph name="Hbar" xMin="2" yMin="0" xMax="740" yMax="700">
      <contour>
        <pt x="2" y="601" on="1"/>
        <pt x="84" y="601" on="1"/>
        <pt x="84" y="700" on="1"/>
        <pt x="232" y="700" on="1"/>
        <pt x="232" y="601" on="1"/>
        <pt x="512" y="601" on="1"/>
        <pt x="512" y="700" on="1"/>
        <pt x="660" y="700" on="1"/>
        <pt x="660" y="601" on="1"/>
        <pt x="740" y="601" on="1"/>
        <pt x="740" y="515" on="1"/>
        <pt x="660" y="515" on="1"/>
        <pt x="660" y="0" on="1"/>
        <pt x="512" y="0" on="1"/>
        <pt x="512" y="289" on="1"/>
        <pt x="232" y="289" on="1"/>
        <pt x="232" y="0" on="1"/>
        <pt x="84" y="0" on="1"/>
        <pt x="84" y="515" on="1"/>
        <pt x="2" y="515" on="1"/>
      </contour>
      <contour>
        <pt x="512" y="419" on="1"/>
        <pt x="512" y="515" on="1"/>
        <pt x="232" y="515" on="1"/>
        <pt x="232" y="419" on="1"/>
      </contour>
    </TTGlyph>
    <TTGlyph name="Hcircumflex" xMin="65" yMin="0" xMax="641" yMax="870">
      <component glyphName="H" x="0" y="0" flags="0x204"/>
      <component glyphName="uniF408" x="97" y="0" flags="0x4"/>
    </TTGlyph>
    <TTGlyph name="I" xMin="40" yMin="0" xMax="348" yMax="700">
      <contour>
        <pt x="120" y="620" on="1"/>
        <pt x="40" y="620" on="1"/>
        <pt x="40" y="700" on="1"/>
        <pt x="348" y="700" on="1"/>
        <pt x="348" y="620" on="1"/>
        <pt x="268" y="620" on="1"/>
        <pt x="268" y="80" on="1"/>
        <pt x="348" y="80" on="1"/>
        <pt x="348" y="0" on="1"/>
        <pt x="40" y="0" on="1"/>
        <pt x="40" y="80" on="1"/>
        <pt x="120" y="80" on="1"/>
      </contour>
    </TTGlyph>
    <TTGlyph name="Iacute" xMin="40" yMin="0" xMax="381" yMax="870">
      <component glyphName="I" x="0" y="0" flags="0x204"/>
      <component glyphName="uniF6C9" x="35" y="0" flags="0x4"/>
    </TTGlyph>
    <TTGlyph name="Icircumflex" xMin="1" yMin="0" xMax="389" yMax="870">
      <component glyphName="I" x="0" y="0" flags="0x204"/>
      <component glyphName="uniF408" x="-59" y="0" flags="0x4"/>
    </TTGlyph>
    <TTGlyph name="Idieresis" xMin="-3" yMin="0" xMax="394" yMax="858">
      <component glyphName="I" x="0" y="0" flags="0x204"/>
      <component glyphName="uniF6CB" x="-63" y="0" flags="0x4"/>
    </TTGlyph>
    <TTGlyph name="Idotaccent" xMin="40" yMin="0" xMax="348" yMax="860">
      <component glyphName="I" x="0" y="0" flags="0x204"/>
      <component glyphName="uniF40B" x="39" y="0" flags="0x4"/>
    </TTGlyph>
    <TTGlyph name="Igrave" xMin="13" yMin="0" xMax="348" yMax="870">
      <component glyphName="I" x="0" y="0" flags="0x204"/>
      <component glyphName="uniF6CE" x="-47" y="0" flags="0x4"/>
    </TTGlyph>
    <TTGlyph name="Imacron" xMin="9" yMin="0" xMax="382" yMax="848">
      <component glyphName="I" x="0" y="0" flags="0x204"/>
      <component glyphName="uniF6D0" x="-51" y="0" flags="0x4"/>
    </TTGlyph>
    <TTGlyph name="Iogonek" xMin="40" yMin="-211" xMax="354" yMax="700">
      <contour>
        <pt x="120" y="620" on="1"/>
        <pt x="40" y="620" on="1"/>
        <pt x="40" y="700" on="1"/>
        <pt x="348" y="700" on="1"/>
        <pt x="348" y="620" on="1"/>
        <pt x="268" y="620" on="1"/>
        <pt x="268" y="80" on="1"/>
        <pt x="348" y="80" on="1"/>
        <pt x="348" y="0" on="1"/>
        <pt x="297" y="0" on="1"/>
        <pt x="235" y="-27" on="0"/>
        <pt x="236" y="-74" on="1"/>
        <pt x="236" y="-94" on="0"/>
        <pt x="264" y="-121" on="0"/>
        <pt x="288" y="-121" on="1"/>
        <pt x="299" y="-121" on="0"/>
        <pt x="319" y="-117" on="0"/>
        <pt x="332" y="-110" on="1"/>
        <pt x="354" y="-174" on="1"/>
        <pt x="336" y="-187" on="0"/>
        <pt x="266" y="-211" on="0"/>
        <pt x="225" y="-211" on="1"/>
        <pt x="164" y="-211" on="0"/>
        <pt x="100" y="-157" on="0"/>
        <pt x="100" y="-114" on="1"/>
        <pt x="100" y="-76" on="0"/>
        <pt x="155" y="-17" on="0"/>
        <pt x="201" y="0" on="1"/>
        <pt x="40" y="0" on="1"/>
        <pt x="40" y="80" on="1"/>
        <pt x="120" y="80" on="1"/>
      </contour>
    </TTGlyph>
    <TTGlyph name="J" xMin="-25" yMin="-13" xMax="291" yMax="700">
      <contour>
        <pt x="143" y="700" on="1"/>
        <pt x="291" y="700" on="1"/>
        <pt x="291" y="190" on="1"/>
        <pt x="291" y="153" on="0"/>
        <pt x="271" y="81" on="0"/>
        <pt x="228" y="23" on="0"/>
        <pt x="158" y="-13" on="0"/>
        <pt x="108" y="-13" on="1"/>
        <pt x="76" y="-13" on="0"/>
        <pt x="3" y="0" on="0"/>
        <pt x="-25" y="12" on="1"/>
        <pt x="7" y="130" on="1"/>
        <pt x="36" y="117" on="0"/>
        <pt x="71" y="117" on="1"/>
        <pt x="94" y="117" on="0"/>
        <pt x="122" y="134" on="0"/>
        <pt x="138" y="165" on="0"/>
        <pt x="143" y="207" on="0"/>
        <pt x="143" y="231" on="1"/>
      </contour>
    </TTGlyph>
    <TTGlyph name="Jcircumflex" xMin="-25" yMin="-13" xMax="410" yMax="870">
      <component glyphName="J" x="0" y="0" flags="0x204"/>
      <component glyphName="uniF408" x="-38" y="0" flags="0x4"/>
    </TTGlyph>
    <TTGlyph name="K" xMin="65" yMin="0" xMax="661" yMax="700">
      <contour>
        <pt x="252" y="296" on="1"/>
        <pt x="213" y="296" on="1"/>
        <pt x="213" y="0" on="1"/>
        <pt x="65" y="0" on="1"/>
        <pt x="65" y="700" on="1"/>
        <pt x="213" y="700" on="1"/>
        <pt x="213" y="392" on="1"/>
        <pt x="248" y="407" on="1"/>
        <pt x="458" y="700" on="1"/>
        <pt x="627" y="700" on="1"/>
        <pt x="405" y="407" on="1"/>
        <pt x="347" y="369" on="1"/>
        <pt x="407" y="329" on="1"/>
        <pt x="661" y="0" on="1"/>
        <pt x="478" y="0" on="1"/>
      </contour>
    </TTGlyph>
    <TTGlyph name="Kcommaaccent" xMin="65" yMin="-276" xMax="661" yMax="700">
      <component glyphName="K" x="0" y="0" flags="0x204"/>
      <component glyphName="uniF6C3" x="177" y="0" flags="0x4"/>
    </TTGlyph>
    <TTGlyph name="L" xMin="65" yMin="0" xMax="547" yMax="700">
      <contour>
        <pt x="547" y="0" on="1"/>
        <pt x="65" y="0" on="1"/>
        <pt x="65" y="700" on="1"/>
        <pt x="213" y="700" on="1"/>
        <pt x="213" y="130" on="1"/>
        <pt x="547" y="130" on="1"/>
      </contour>
    </TTGlyph>
    <TTGlyph name="Lacute" xMin="65" yMin="0" xMax="547" yMax="870">
      <component glyphName="L" x="0" y="0" flags="0x204"/>
      <component glyphName="uniF6C9" x="57" y="0" flags="0x4"/>
    </TTGlyph>
    <TTGlyph name="Lcaron" xMin="65" yMin="0" xMax="547" yMax="700">
      <component glyphName="L" x="0" y="0" flags="0x204"/>
      <component glyphName="caron.l" x="116" y="0" flags="0x4"/>
    </TTGlyph>
    <TTGlyph name="Lcommaaccent" xMin="65" yMin="-276" xMax="547" yMax="700">
      <component glyphName="L" x="0" y="0" flags="0x204"/>
      <component glyphName="uniF6C3" x="135" y="0" flags="0x4"/>
    </TTGlyph>
    <TTGlyph name="Lslash" xMin="2" yMin="0" xMax="559" yMax="700">
      <contour>
        <pt x="2" y="321" on="1"/>
        <pt x="77" y="367" on="1"/>
        <pt x="77" y="700" on="1"/>
        <pt x="225" y="700" on="1"/>
        <pt x="225" y="459" on="1"/>
        <pt x="333" y="526" on="1"/>
        <pt x="333" y="397" on="1"/>
        <pt x="225" y="331" on="1"/>
        <pt x="225" y="130" on="1"/>
        <pt x="559" y="130" on="1"/>
        <pt x="559" y="0" on="1"/>
        <pt x="77" y="0" on="1"/>
        <pt x="77" y="241" on="1"/>
        <pt x="2" y="196" on="1"/>
      </contour>
    </TTGlyph>
    <TTGlyph name="M" xMin="65" yMin="0" xMax="803" yMax="700">
      <contour>
        <pt x="655" y="351" on="1"/>
        <pt x="671" y="496" on="1"/>
        <pt x="665" y="496" on="1"/>
        <pt x="617" y="386" on="1"/>
        <pt x="455" y="125" on="1"/>
        <pt x="409" y="125" on="1"/>
        <pt x="237" y="387" on="1"/>
        <pt x="190" y="495" on="1"/>
        <pt x="184" y="495" on="1"/>
        <pt x="205" y="352" on="1"/>
        <pt x="205" y="0" on="1"/>
        <pt x="65" y="0" on="1"/>
        <pt x="65" y="700" on="1"/>
        <pt x="199" y="700" on="1"/>
        <pt x="401" y="377" on="1"/>
        <pt x="439" y="300" on="1"/>
        <pt x="444" y="300" on="1"/>
        <pt x="477" y="379" on="1"/>
        <pt x="670" y="700" on="1"/>
        <pt x="803" y="700" on="1"/>
        <pt x="803" y="0" on="1"/>
        <pt x="655" y="0" on="1"/>
      </contour>
    </TTGlyph>
    <TTGlyph name="N" xMin="65" yMin="-5" xMax="648" yMax="705">
      <contour>
        <pt x="254" y="365" on="1"/>
        <pt x="194" y="470" on="1"/>
        <pt x="189" y="470" on="1"/>
        <pt x="205" y="364" on="1"/>
        <pt x="205" y="0" on="1"/>
        <pt x="65" y="0" on="1"/>
        <pt x="65" y="705" on="1"/>
        <pt x="172" y="705" on="1"/>
        <pt x="461" y="332" on="1"/>
        <pt x="518" y="230" on="1"/>
        <pt x="524" y="230" on="1"/>
        <pt x="508" y="333" on="1"/>
        <pt x="508" y="700" on="1"/>
        <pt x="648" y="700" on="1"/>
        <pt x="648" y="-5" on="1"/>
        <pt x="541" y="-5" on="1"/>
      </contour>
    </TTGlyph>
    <TTGlyph name="Nacute" xMin="65" yMin="-5" xMax="648" yMax="870">
      <component glyphName="N" x="0" y="0" flags="0x204"/>
      <component glyphName="uniF6C9" x="219" y="0" flags="0x4"/>
    </TTGlyph>
    <TTGlyph name="Ncaron" xMin="65" yMin="-5" xMax="648" yMax="870">
      <component glyphName="N" x="0" y="0" flags="0x204"/>
      <component glyphName="uniF6CA" x="110" y="0" flags="0x4"/>
    </TTGlyph>
    <TTGlyph name="Ncommaaccent" xMin="65" yMin="-276" xMax="648" yMax="705">
      <component glyphName="N" x="0" y="0" flags="0x204"/>
      <component glyphName="uniF6C3" x="211" y="0" flags="0x4"/>
    </TTGlyph>
    <TTGlyph name="Ntilde" xMin="65" yMin="-5" xMax="648" yMax="865">
      <component glyphName="N" x="0" y="0" flags="0x204"/>
      <component glyphName="uniF40D" x="90" y="0" flags="0x4"/>
    </TTGlyph>
    <TTGlyph name="O" xMin="40" yMin="-14" xMax="687" yMax="714">
      <contour>
        <pt x="40" y="350" on="1"/>
        <pt x="40" y="436" on="0"/>
        <pt x="84" y="572" on="0"/>
        <pt x="167" y="665" on="0"/>
        <pt x="287" y="714" on="0"/>
        <pt x="363" y="714" on="1"/>
        <pt x="444" y="714" on="0"/>
        <pt x="565" y="661" on="0"/>
        <pt x="646" y="565" on="0"/>
        <pt x="687" y="431" on="0"/>
        <pt x="687" y="350" on="1"/>
        <pt x="687" y="264" on="0"/>
        <pt x="642" y="128" on="0"/>
        <pt x="558" y="35" on="0"/>
        <pt x="438" y="-14" on="0"/>
        <pt x="363" y="-14" on="1"/>
        <pt x="282" y="-14" on="0"/>
        <pt x="161" y="39" on="0"/>
        <pt x="80" y="135" on="0"/>
        <pt x="40" y="269" on="0"/>
      </contour>
      <contour>
        <pt x="197" y="350" on="1"/>
        <pt x="197" y="298" on="0"/>
        <pt x="217" y="212" on="0"/>
        <pt x="257" y="150" on="0"/>
        <pt x="320" y="116" on="0"/>
        <pt x="363" y="116" on="1"/>
        <pt x="442" y="116" on="0"/>
        <pt x="530" y="224" on="0"/>
        <pt x="530" y="350" on="1"/>
        <pt x="530" y="400" on="0"/>
        <pt x="512" y="486" on="0"/>
        <pt x="471" y="549" on="0"/>
        <pt x="408" y="584" on="0"/>
        <pt x="363" y="584" on="1"/>
        <pt x="285" y="584" on="0"/>
        <pt x="197" y="472" on="0"/>
      </contour>
    </TTGlyph>
    <TTGlyph name="OE" xMin="40" yMin="-14" xMax="948" yMax="714">
      <contour>
        <pt x="492" y="558" on="1"/>
        <pt x="469" y="569" on="0"/>
        <pt x="403" y="584" on="0"/>
        <pt x="362" y="584" on="1"/>
        <pt x="284" y="584" on="0"/>
        <pt x="197" y="471" on="0"/>
        <pt x="197" y="350" on="1"/>
        <pt x="197" y="298" on="0"/>
        <pt x="216" y="212" on="0"/>
        <pt x="258" y="150" on="0"/>
        <pt x="324" y="116" on="0"/>
        <pt x="371" y="116" on="1"/>
        <pt x="403" y="116" on="0"/>
        <pt x="460" y="123" on="0"/>
        <pt x="492" y="136" on="1"/>
      </contour>
      <contour>
        <pt x="492" y="0" on="1"/>
        <pt x="482" y="-3" on="0"/>
        <pt x="452" y="-9" on="0"/>
        <pt x="418" y="-12" on="0"/>
        <pt x="382" y="-14" on="0"/>
        <pt x="365" y="-14" on="1"/>
        <pt x="283" y="-14" on="0"/>
        <pt x="161" y="39" on="0"/>
        <pt x="80" y="135" on="0"/>
        <pt x="40" y="269" on="0"/>
        <pt x="40" y="350" on="1"/>
        <pt x="40" y="436" on="0"/>
        <pt x="84" y="572" on="0"/>
        <pt x="167" y="665" on="0"/>
        <pt x="288" y="714" on="0"/>
        <pt x="365" y="714" on="1"/>
        <pt x="409" y="714" on="0"/>
        <pt x="469" y="705" on="0"/>
        <pt x="492" y="700" on="1"/>
        <pt x="943" y="700" on="1"/>
        <pt x="943" y="570" on="1"/>
        <pt x="640" y="570" on="1"/>
        <pt x="640" y="418" on="1"/>
        <pt x="915" y="418" on="1"/>
        <pt x="915" y="288" on="1"/>
        <pt x="640" y="288" on="1"/>
        <pt x="640" y="130" on="1"/>
        <pt x="948" y="130" on="1"/>
        <pt x="948" y="0" on="1"/>
      </contour>
    </TTGlyph>
    <TTGlyph name="Oacute" xMin="40" yMin="-14" xMax="687" yMax="870">
      <component glyphName="O" x="0" y="0" flags="0x204"/>
      <component glyphName="uniF6C9" x="222" y="0" flags="0x4"/>
    </TTGlyph>
    <TTGlyph name="Ocircumflex" xMin="40" yMin="-14" xMax="687" yMax="870">
      <component glyphName="O" x="0" y="0" flags="0x204"/>
      <component glyphName="uniF408" x="109" y="0" flags="0x4"/>
    </TTGlyph>
    <TTGlyph name="Odieresis" xMin="40" yMin="-14" xMax="687" yMax="858">
      <component glyphName="O" x="0" y="0" flags="0x204"/>
      <component glyphName="uniF6CB" x="105" y="0" flags="0x4"/>
    </TTGlyph>
    <TTGlyph name="Ograve" xMin="40" yMin="-14" xMax="687" yMax="870">
      <component glyphName="O" x="0" y="0" flags="0x204"/>
      <component glyphName="uniF6CE" x="100" y="0" flags="0x4"/>
    </TTGlyph>
    <TTGlyph name="Ohungarumlaut" xMin="40" yMin="-14" xMax="687" yMax="850">
      <component glyphName="O" x="0" y="0" flags="0x204"/>
      <component glyphName="uniF6CF" x="145" y="0" flags="0x4"/>
    </TTGlyph>
    <TTGlyph name="Omacron" xMin="40" yMin="-14" xMax="687" yMax="848">
      <component glyphName="O" x="0" y="0" flags="0x204"/>
      <component glyphName="uniF6D0" x="117" y="0" flags="0x4"/>
    </TTGlyph>
    <TTGlyph name="Oslash" xMin="40" yMin="-14" xMax="687" yMax="715">
      <contour>
        <pt x="40" y="350" on="1"/>
        <pt x="40" y="436" on="0"/>
        <pt x="84" y="572" on="0"/>
        <pt x="167" y="665" on="0"/>
        <pt x="287" y="714" on="0"/>
        <pt x="363" y="714" on="1"/>
        <pt x="456" y="714" on="0"/>
        <pt x="525" y="677" on="1"/>
        <pt x="551" y="715" on="1"/>
        <pt x="646" y="654" on="1"/>
        <pt x="612" y="605" on="1"/>
        <pt x="650" y="557" on="0"/>
        <pt x="687" y="428" on="0"/>
        <pt x="687" y="350" on="1"/>
        <pt x="687" y="264" on="0"/>
        <pt x="642" y="128" on="0"/>
        <pt x="558" y="35" on="0"/>
        <pt x="438" y="-14" on="0"/>
        <pt x="363" y="-14" on="1"/>
        <pt x="317" y="-14" on="0"/>
        <pt x="240" y="3" on="0"/>
        <pt x="207" y="19" on="1"/>
        <pt x="185" y="-14" on="1"/>
        <pt x="92" y="46" on="1"/>
        <pt x="120" y="87" on="1"/>
        <pt x="79" y="135" on="0"/>
        <pt x="40" y="269" on="0"/>
      </contour>
      <contour>
        <pt x="446" y="562" on="1"/>
        <pt x="411" y="584" on="0"/>
        <pt x="363" y="584" on="1"/>
        <pt x="285" y="584" on="0"/>
        <pt x="197" y="472" on="0"/>
        <pt x="197" y="350" on="1"/>
        <pt x="197" y="277" on="0"/>
        <pt x="215" y="225" on="1"/>
      </contour>
      <contour>
        <pt x="287" y="134" on="1"/>
        <pt x="318" y="116" on="0"/>
        <pt x="363" y="116" on="1"/>
        <pt x="442" y="116" on="0"/>
        <pt x="530" y="224" on="0"/>
        <pt x="530" y="350" on="1"/>
        <pt x="530" y="414" on="0"/>
        <pt x="515" y="464" on="1"/>
      </contour>
    </TTGlyph>
    <TTGlyph name="Otilde" xMin="40" yMin="-14" xMax="687" yMax="865">
      <component glyphName="O" x="0" y="0" flags="0x204"/>
      <component glyphName="uniF40D" x="105" y="0" flags="0x4"/>
    </TTGlyph>
    <TTGlyph name="P" xMin="65" yMin="0" xMax="594" yMax="710">
      <contour>
        <pt x="65" y="693" on="1"/>
        <pt x="110" y="701" on="0"/>
        <pt x="220" y="710" on="0"/>
        <pt x="275" y="710" on="1"/>
        <pt x="331" y="710" on="0"/>
        <pt x="445" y="693" on="0"/>
        <pt x="536" y="642" on="0"/>
        <pt x="594" y="551" on="0"/>
        <pt x="594" y="476" on="1"/>
        <pt x="594" y="410" on="0"/>
        <pt x="544" y="317" on="0"/>
        <pt x="461" y="259" on="0"/>
        <pt x="355" y="232" on="0"/>
        <pt x="299" y="232" on="1"/>
        <pt x="294" y="232" on="0"/>
        <pt x="270" y="232" on="0"/>
        <pt x="243" y="233" on="0"/>
        <pt x="219" y="235" on="0"/>
        <pt x="213" y="236" on="1"/>
        <pt x="213" y="0" on="1"/>
        <pt x="65" y="0" on="1"/>
      </contour>
      <contour>
        <pt x="285" y="580" on="1"/>
        <pt x="264" y="580" on="0"/>
        <pt x="225" y="578" on="0"/>
        <pt x="213" y="575" on="1"/>
        <pt x="213" y="367" on="1"/>
        <pt x="217" y="366" on="0"/>
        <pt x="235" y="364" on="0"/>
        <pt x="255" y="363" on="0"/>
        <pt x="272" y="362" on="0"/>
        <pt x="277" y="362" on="1"/>
        <pt x="306" y="362" on="0"/>
        <pt x="364" y="370" on="0"/>
        <pt x="409" y="396" on="0"/>
        <pt x="437" y="441" on="0"/>
        <pt x="437" y="479" on="1"/>
        <pt x="437" y="511" on="0"/>
        <pt x="411" y="550" on="0"/>
        <pt x="368" y="572" on="0"/>
        <pt x="313" y="580" on="0"/>
      </contour>
    </TTGlyph>
    <TTGlyph name="Q" xMin="40" yMin="-224" xMax="762" yMax="714">
      <contour>
        <pt x="762" y="-212" on="1"/>
        <pt x="735" y="-219" on="0"/>
        <pt x="683" y="-224" on="0"/>
        <pt x="657" y="-224" on="1"/>
        <pt x="602" y="-224" on="0"/>
        <pt x="497" y="-204" on="0"/>
        <pt x="400" y="-179" on="0"/>
        <pt x="309" y="-159" on="0"/>
        <pt x="269" y="-159" on="1"/>
        <pt x="242" y="-159" on="0"/>
        <pt x="218" y="-165" on="1"/>
        <pt x="218" y="-35" on="1"/>
        <pt x="249" y="-29" on="0"/>
        <pt x="280" y="-29" on="1"/>
        <pt x="325" y="-29" on="0"/>
        <pt x="416" y="-49" on="0"/>
        <pt x="510" y="-72" on="0"/>
        <pt x="609" y="-92" on="0"/>
        <pt x="663" y="-92" on="1"/>
        <pt x="713" y="-92" on="0"/>
        <pt x="762" y="-82" on="1"/>
      </contour>
      <contour>
        <pt x="40" y="350" on="1"/>
        <pt x="40" y="436" on="0"/>
        <pt x="84" y="572" on="0"/>
        <pt x="167" y="665" on="0"/>
        <pt x="287" y="714" on="0"/>
        <pt x="363" y="714" on="1"/>
        <pt x="444" y="714" on="0"/>
        <pt x="565" y="661" on="0"/>
        <pt x="646" y="565" on="0"/>
        <pt x="687" y="431" on="0"/>
        <pt x="687" y="350" on="1"/>
        <pt x="687" y="264" on="0"/>
        <pt x="642" y="128" on="0"/>
        <pt x="558" y="35" on="0"/>
        <pt x="438" y="-14" on="0"/>
        <pt x="363" y="-14" on="1"/>
        <pt x="282" y="-14" on="0"/>
        <pt x="161" y="39" on="0"/>
        <pt x="80" y="135" on="0"/>
        <pt x="40" y="269" on="0"/>
      </contour>
      <contour>
        <pt x="197" y="350" on="1"/>
        <pt x="197" y="298" on="0"/>
        <pt x="217" y="212" on="0"/>
        <pt x="257" y="150" on="0"/>
        <pt x="320" y="116" on="0"/>
        <pt x="363" y="116" on="1"/>
        <pt x="442" y="116" on="0"/>
        <pt x="530" y="224" on="0"/>
        <pt x="530" y="350" on="1"/>
        <pt x="530" y="400" on="0"/>
        <pt x="512" y="486" on="0"/>
        <pt x="471" y="549" on="0"/>
        <pt x="408" y="584" on="0"/>
        <pt x="363" y="584" on="1"/>
        <pt x="285" y="584" on="0"/>
        <pt x="197" y="472" on="0"/>
      </contour>
    </TTGlyph>
    <TTGlyph name="R" xMin="65" yMin="0" xMax="637" yMax="710">
      <contour>
        <pt x="65" y="693" on="1"/>
        <pt x="89" y="697" on="0"/>
        <pt x="146" y="704" on="0"/>
        <pt x="204" y="708" on="0"/>
        <pt x="259" y="710" on="0"/>
        <pt x="282" y="710" on="1"/>
        <pt x="335" y="710" on="0"/>
        <pt x="438" y="692" on="0"/>
        <pt x="519" y="648" on="0"/>
        <pt x="569" y="571" on="0"/>
        <pt x="569" y="513" on="1"/>
        <pt x="569" y="427" on="0"/>
        <pt x="484" y="316" on="0"/>
        <pt x="409" y="296" on="1"/>
        <pt x="462" y="265" on="1"/>
        <pt x="637" y="0" on="1"/>
        <pt x="465" y="0" on="1"/>
        <pt x="291" y="271" on="1"/>
        <pt x="213" y="283" on="1"/>
        <pt x="213" y="0" on="1"/>
        <pt x="65" y="0" on="1"/>
      </contour>
      <contour>
        <pt x="292" y="580" on="1"/>
        <pt x="269" y="580" on="0"/>
        <pt x="226" y="579" on="0"/>
        <pt x="213" y="576" on="1"/>
        <pt x="213" y="383" on="1"/>
        <pt x="276" y="383" on="1"/>
        <pt x="339" y="383" on="0"/>
        <pt x="412" y="431" on="0"/>
        <pt x="412" y="490" on="1"/>
        <pt x="412" y="534" on="0"/>
        <pt x="350" y="580" on="0"/>
      </contour>
    </TTGlyph>
    <TTGlyph name="Racute" xMin="65" yMin="0" xMax="637" yMax="870">
      <component glyphName="R" x="0" y="0" flags="0x204"/>
      <component glyphName="uniF6C9" x="143" y="0" flags="0x4"/>
    </TTGlyph>
    <TTGlyph name="Rcaron" xMin="65" yMin="0" xMax="637" yMax="870">
      <component glyphName="R" x="0" y="0" flags="0x204"/>
      <component glyphName="uniF6CA" x="30" y="0" flags="0x4"/>
    </TTGlyph>
    <TTGlyph name="Rcommaaccent" xMin="65" yMin="-276" xMax="637" yMax="710">
      <component glyphName="R" x="0" y="0" flags="0x204"/>
      <component glyphName="uniF6C3" x="184" y="0" flags="0x4"/>
    </TTGlyph>
    <TTGlyph name="S" xMin="28" yMin="-14" xMax="541" yMax="714">
      <contour>
        <pt x="393" y="192" on="1"/>
        <pt x="393" y="223" on="0"/>
        <pt x="341" y="259" on="0"/>
        <pt x="264" y="289" on="0"/>
        <pt x="174" y="319" on="0"/>
        <pt x="97" y="369" on="0"/>
        <pt x="45" y="445" on="0"/>
        <pt x="45" y="506" on="1"/>
        <pt x="45" y="558" on="0"/>
        <pt x="82" y="637" on="0"/>
        <pt x="149" y="688" on="0"/>
        <pt x="244" y="714" on="0"/>
        <pt x="301" y="714" on="1"/>
        <pt x="367" y="714" on="0"/>
        <pt x="486" y="691" on="0"/>
        <pt x="524" y="670" on="1"/>
        <pt x="477" y="546" on="1"/>
        <pt x="465" y="553" on="0"/>
        <pt x="428" y="568" on="0"/>
        <pt x="380" y="579" on="0"/>
        <pt x="326" y="586" on="0"/>
        <pt x="298" y="586" on="1"/>
        <pt x="248" y="586" on="0"/>
        <pt x="193" y="551" on="0"/>
        <pt x="193" y="520" on="1"/>
        <pt x="193" y="489" on="0"/>
        <pt x="245" y="452" on="0"/>
        <pt x="322" y="421" on="0"/>
        <pt x="412" y="390" on="0"/>
        <pt x="489" y="341" on="0"/>
        <pt x="541" y="267" on="0"/>
        <pt x="541" y="209" on="1"/>
        <pt x="541" y="151" on="0"/>
        <pt x="501" y="67" on="0"/>
        <pt x="428" y="12" on="0"/>
        <pt x="326" y="-14" on="0"/>
        <pt x="265" y="-14" on="1"/>
        <pt x="224" y="-14" on="0"/>
        <pt x="151" y="-5" on="0"/>
        <pt x="89" y="8" on="0"/>
        <pt x="42" y="23" on="0"/>
        <pt x="28" y="30" on="1"/>
        <pt x="77" y="155" on="1"/>
        <pt x="88" y="149" on="0"/>
        <pt x="127" y="135" on="0"/>
        <pt x="175" y="122" on="0"/>
        <pt x="230" y="114" on="0"/>
        <pt x="258" y="114" on="1"/>
        <pt x="324" y="114" on="0"/>
        <pt x="393" y="152" on="0"/>
      </contour>
    </TTGlyph>
    <TTGlyph name="Sacute" xMin="28" yMin="-14" xMax="541" yMax="870">
      <component glyphName="S" x="0" y="0" flags="0x204"/>
      <component glyphName="uniF6C9" x="150" y="0" flags="0x4"/>
    </TTGlyph>
    <TTGlyph name="Scaron" xMin="28" yMin="-14" xMax="541" yMax="870">
      <component glyphName="S" x="0" y="0" flags="0x204"/>
      <component glyphName="uniF6CA" x="55" y="0" flags="0x4"/>
    </TTGlyph>
    <TTGlyph name="Scedilla" xMin="28" yMin="-224" xMax="541" yMax="714">
      <contour>
        <pt x="393" y="192" on="1"/>
        <pt x="393" y="223" on="0"/>
        <pt x="341" y="259" on="0"/>
        <pt x="264" y="289" on="0"/>
        <pt x="174" y="319" on="0"/>
        <pt x="97" y="369" on="0"/>
        <pt x="45" y="445" on="0"/>
        <pt x="45" y="506" on="1"/>
        <pt x="45" y="558" on="0"/>
        <pt x="82" y="637" on="0"/>
        <pt x="149" y="688" on="0"/>
        <pt x="244" y="714" on="0"/>
        <pt x="301" y="714" on="1"/>
        <pt x="367" y="714" on="0"/>
        <pt x="486" y="691" on="0"/>
        <pt x="524" y="670" on="1"/>
        <pt x="477" y="546" on="1"/>
        <pt x="465" y="553" on="0"/>
        <pt x="428" y="568" on="0"/>
        <pt x="380" y="579" on="0"/>
        <pt x="326" y="586" on="0"/>
        <pt x="298" y="586" on="1"/>
        <pt x="248" y="586" on="0"/>
        <pt x="193" y="551" on="0"/>
        <pt x="193" y="520" on="1"/>
        <pt x="193" y="489" on="0"/>
        <pt x="245" y="452" on="0"/>
        <pt x="322" y="421" on="0"/>
        <pt x="412" y="390" on="0"/>
        <pt x="489" y="341" on="0"/>
        <pt x="541" y="267" on="0"/>
        <pt x="541" y="209" on="1"/>
        <pt x="541" y="109" on="0"/>
        <pt x="425" y="2" on="0"/>
        <pt x="328" y="-10" on="1"/>
        <pt x="303" y="-52" on="1"/>
        <pt x="351" y="-55" on="0"/>
        <pt x="406" y="-91" on="0"/>
        <pt x="406" y="-129" on="1"/>
        <pt x="406" y="-153" on="0"/>
        <pt x="381" y="-188" on="0"/>
        <pt x="337" y="-212" on="0"/>
        <pt x="279" y="-224" on="0"/>
        <pt x="245" y="-224" on="1"/>
        <pt x="227" y="-224" on="0"/>
        <pt x="191" y="-222" on="0"/>
        <pt x="172" y="-218" on="1"/>
        <pt x="182" y="-171" on="1"/>
        <pt x="213" y="-173" on="0"/>
        <pt x="251" y="-168" on="0"/>
        <pt x="272" y="-159" on="0"/>
        <pt x="279" y="-146" on="0"/>
        <pt x="279" y="-138" on="1"/>
        <pt x="279" y="-121" on="0"/>
        <pt x="233" y="-103" on="0"/>
        <pt x="182" y="-101" on="1"/>
        <pt x="239" y="-13" on="1"/>
        <pt x="166" y="-11" on="0"/>
        <pt x="54" y="17" on="0"/>
        <pt x="28" y="30" on="1"/>
        <pt x="77" y="155" on="1"/>
        <pt x="88" y="149" on="0"/>
        <pt x="127" y="135" on="0"/>
        <pt x="175" y="122" on="0"/>
        <pt x="230" y="114" on="0"/>
        <pt x="258" y="114" on="1"/>
        <pt x="324" y="114" on="0"/>
        <pt x="393" y="152" on="0"/>
      </contour>
    </TTGlyph>
    <TTGlyph name="Scircumflex" xMin="28" yMin="-14" xMax="541" yMax="870">
      <component glyphName="S" x="0" y="0" flags="0x204"/>
      <component glyphName="uniF408" x="44" y="0" flags="0x4"/>
    </TTGlyph>
    <TTGlyph name="Scommaaccent" xMin="28" yMin="-276" xMax="541" yMax="714">
      <component glyphName="S" x="0" y="0" flags="0x204"/>
      <component glyphName="uniF6C3" x="140" y="0" flags="0x4"/>
    </TTGlyph>
    <TTGlyph name="T" xMin="12" yMin="0" xMax="604" yMax="700">
      <contour>
        <pt x="604" y="570" on="1"/>
        <pt x="382" y="570" on="1"/>
        <pt x="382" y="0" on="1"/>
        <pt x="234" y="0" on="1"/>
        <pt x="234" y="570" on="1"/>
        <pt x="12" y="570" on="1"/>
        <pt x="12" y="700" on="1"/>
        <pt x="604" y="700" on="1"/>
      </contour>
    </TTGlyph>
    <TTGlyph name="Tcaron" xMin="12" yMin="0" xMax="604" yMax="870">
      <component glyphName="T" x="0" y="0" flags="0x204"/>
      <component glyphName="uniF6CA" x="54" y="0" flags="0x4"/>
    </TTGlyph>
    <TTGlyph name="Tcedilla" xMin="12" yMin="-224" xMax="604" yMax="700">
      <contour>
        <pt x="234" y="0" on="1"/>
        <pt x="234" y="570" on="1"/>
        <pt x="12" y="570" on="1"/>
        <pt x="12" y="700" on="1"/>
        <pt x="604" y="700" on="1"/>
        <pt x="604" y="570" on="1"/>
        <pt x="382" y="570" on="1"/>
        <pt x="382" y="0" on="1"/>
        <pt x="357" y="0" on="1"/>
        <pt x="325" y="-52" on="1"/>
        <pt x="373" y="-55" on="0"/>
        <pt x="428" y="-91" on="0"/>
        <pt x="428" y="-129" on="1"/>
        <pt x="428" y="-153" on="0"/>
        <pt x="403" y="-188" on="0"/>
        <pt x="359" y="-212" on="0"/>
        <pt x="301" y="-224" on="0"/>
        <pt x="267" y="-224" on="1"/>
        <pt x="249" y="-224" on="0"/>
        <pt x="213" y="-222" on="0"/>
        <pt x="194" y="-218" on="1"/>
        <pt x="204" y="-171" on="1"/>
        <pt x="235" y="-173" on="0"/>
        <pt x="273" y="-168" on="0"/>
        <pt x="294" y="-159" on="0"/>
        <pt x="301" y="-146" on="0"/>
        <pt x="301" y="-138" on="1"/>
        <pt x="301" y="-121" on="0"/>
        <pt x="255" y="-103" on="0"/>
        <pt x="204" y="-101" on="1"/>
        <pt x="270" y="0" on="1"/>
      </contour>
    </TTGlyph>
    <TTGlyph name="Tcommaaccent" xMin="12" yMin="-276" xMax="604" yMax="700">
      <component glyphName="T" x="0" y="0" flags="0x204"/>
      <component glyphName="uniF6C3" x="160" y="0" flags="0x4"/>
    </TTGlyph>
    <TTGlyph name="Thorn" xMin="65" yMin="0" xMax="594" yMax="700">
      <contour>
        <pt x="65" y="700" on="1"/>
        <pt x="213" y="700" on="1"/>
        <pt x="213" y="628" on="1"/>
        <pt x="228" y="629" on="0"/>
        <pt x="259" y="630" on="0"/>
        <pt x="275" y="630" on="1"/>
        <pt x="344" y="630" on="0"/>
        <pt x="460" y="613" on="0"/>
        <pt x="546" y="562" on="0"/>
        <pt x="594" y="471" on="0"/>
        <pt x="594" y="396" on="1"/>
        <pt x="594" y="330" on="0"/>
        <pt x="549" y="237" on="0"/>
        <pt x="469" y="179" on="0"/>
        <pt x="362" y="152" on="0"/>
        <pt x="299" y="152" on="1"/>
        <pt x="294" y="152" on="0"/>
        <pt x="270" y="152" on="0"/>
        <pt x="243" y="153" on="0"/>
        <pt x="219" y="155" on="0"/>
        <pt x="213" y="156" on="1"/>
        <pt x="213" y="0" on="1"/>
        <pt x="65" y="0" on="1"/>
      </contour>
      <contour>
        <pt x="213" y="287" on="1"/>
        <pt x="217" y="286" on="0"/>
        <pt x="235" y="284" on="0"/>
        <pt x="255" y="283" on="0"/>
        <pt x="272" y="282" on="0"/>
        <pt x="277" y="282" on="1"/>
        <pt x="312" y="282" on="0"/>
        <pt x="371" y="290" on="0"/>
        <pt x="413" y="316" on="0"/>
        <pt x="437" y="361" on="0"/>
        <pt x="437" y="399" on="1"/>
        <pt x="437" y="431" on="0"/>
        <pt x="416" y="470" on="0"/>
        <pt x="377" y="492" on="0"/>
        <pt x="320" y="500" on="0"/>
        <pt x="285" y="500" on="1"/>
        <pt x="264" y="500" on="0"/>
        <pt x="225" y="498" on="0"/>
        <pt x="213" y="495" on="1"/>
      </contour>
    </TTGlyph>
    <TTGlyph name="U" xMin="61" yMin="-12" xMax="618" yMax="700">
      <contour>
        <pt x="478" y="700" on="1"/>
        <pt x="618" y="700" on="1"/>
        <pt x="618" y="251" on="1"/>
        <pt x="618" y="183" on="0"/>
        <pt x="579" y="83" on="0"/>
        <pt x="508" y="19" on="0"/>
        <pt x="409" y="-12" on="0"/>
        <pt x="350" y="-12" on="1"/>
        <pt x="209" y="-12" on="0"/>
        <pt x="61" y="111" on="0"/>
        <pt x="61" y="234" on="1"/>
        <pt x="61" y="700" on="1"/>
        <pt x="209" y="700" on="1"/>
        <pt x="209" y="261" on="1"/>
        <pt x="209" y="181" on="0"/>
        <pt x="279" y="118" on="0"/>
        <pt x="348" y="118" on="1"/>
        <pt x="414" y="118" on="0"/>
        <pt x="478" y="185" on="0"/>
        <pt x="478" y="261" on="1"/>
      </contour>
    </TTGlyph>
    <TTGlyph name="Uacute" xMin="61" yMin="-12" xMax="618" yMax="870">
      <component glyphName="U" x="0" y="0" flags="0x204"/>
      <component glyphName="uniF6C9" x="222" y="0" flags="0x4"/>
    </TTGlyph>
    <TTGlyph name="Ubreve" xMin="61" yMin="-12" xMax="618" yMax="876">
      <component glyphName="U" x="0" y="0" flags="0x204"/>
      <component glyphName="uniF406" x="69" y="0" flags="0x4"/>
    </TTGlyph>
    <TTGlyph name="Ucircumflex" xMin="61" yMin="-12" xMax="618" yMax="870">
      <component glyphName="U" x="0" y="0" flags="0x204"/>
      <component glyphName="uniF408" x="92" y="0" flags="0x4"/>
    </TTGlyph>
    <TTGlyph name="Udieresis" xMin="61" yMin="-12" xMax="618" yMax="858">
      <component glyphName="U" x="0" y="0" flags="0x204"/>
      <component glyphName="uniF6CB" x="84" y="0" flags="0x4"/>
    </TTGlyph>
    <TTGlyph name="Ugrave" xMin="61" yMin="-12" xMax="618" yMax="870">
      <component glyphName="U" x="0" y="0" flags="0x204"/>
      <component glyphName="uniF6CE" x="82" y="0" flags="0x4"/>
    </TTGlyph>
    <TTGlyph name="Uhungarumlaut" xMin="61" yMin="-12" xMax="618" yMax="850">
      <component glyphName="U" x="0" y="0" flags="0x204"/>
      <component glyphName="uniF6CF" x="118" y="0" flags="0x4"/>
    </TTGlyph>
    <TTGlyph name="Umacron" xMin="61" yMin="-12" xMax="618" yMax="848">
      <component glyphName="U" x="0" y="0" flags="0x204"/>
      <component glyphName="uniF6D0" x="97" y="0" flags="0x4"/>
    </TTGlyph>
    <TTGlyph name="Uogonek" xMin="61" yMin="-211" xMax="618" yMax="700">
      <contour>
        <pt x="478" y="700" on="1"/>
        <pt x="618" y="700" on="1"/>
        <pt x="618" y="251" on="1"/>
        <pt x="618" y="151" on="0"/>
        <pt x="536" y="31" on="0"/>
        <pt x="465" y="6" on="1"/>
        <pt x="439" y="-8" on="0"/>
        <pt x="412" y="-51" on="0"/>
        <pt x="413" y="-74" on="1"/>
        <pt x="413" y="-94" on="0"/>
        <pt x="441" y="-121" on="0"/>
        <pt x="465" y="-121" on="1"/>
        <pt x="476" y="-121" on="0"/>
        <pt x="496" y="-117" on="0"/>
        <pt x="509" y="-110" on="1"/>
        <pt x="531" y="-174" on="1"/>
        <pt x="513" y="-187" on="0"/>
        <pt x="443" y="-211" on="0"/>
        <pt x="402" y="-211" on="1"/>
        <pt x="341" y="-211" on="0"/>
        <pt x="277" y="-157" on="0"/>
        <pt x="277" y="-114" on="1"/>
        <pt x="277" y="-82" on="0"/>
        <pt x="308" y="-31" on="0"/>
        <pt x="335" y="-12" on="1"/>
        <pt x="201" y="-9" on="0"/>
        <pt x="61" y="114" on="0"/>
        <pt x="61" y="234" on="1"/>
        <pt x="61" y="700" on="1"/>
        <pt x="209" y="700" on="1"/>
        <pt x="209" y="261" on="1"/>
        <pt x="209" y="181" on="0"/>
        <pt x="279" y="118" on="0"/>
        <pt x="348" y="118" on="1"/>
        <pt x="414" y="118" on="0"/>
        <pt x="478" y="185" on="0"/>
        <pt x="478" y="261" on="1"/>
      </contour>
    </TTGlyph>
    <TTGlyph name="Uring" xMin="61" yMin="-12" xMax="618" yMax="863">
      <component glyphName="U" x="0" y="0" flags="0x204"/>
      <component glyphName="uniF40C" x="149" y="0" flags="0x4"/>
    </TTGlyph>
    <TTGlyph name="V" xMin="-10" yMin="-5" xMax="664" yMax="700">
      <contour>
        <pt x="315" y="296" on="1"/>
        <pt x="335" y="177" on="1"/>
        <pt x="340" y="177" on="1"/>
        <pt x="362" y="297" on="1"/>
        <pt x="508" y="700" on="1"/>
        <pt x="664" y="700" on="1"/>
        <pt x="381" y="-5" on="1"/>
        <pt x="275" y="-5" on="1"/>
        <pt x="-10" y="700" on="1"/>
        <pt x="162" y="700" on="1"/>
      </contour>
    </TTGlyph>
    <TTGlyph name="W" xMin="0" yMin="-5" xMax="938" yMax="700">
      <contour>
        <pt x="263" y="315" on="1"/>
        <pt x="277" y="191" on="1"/>
        <pt x="281" y="191" on="1"/>
        <pt x="297" y="317" on="1"/>
        <pt x="430" y="700" on="1"/>
        <pt x="526" y="700" on="1"/>
        <pt x="657" y="315" on="1"/>
        <pt x="673" y="191" on="1"/>
        <pt x="678" y="191" on="1"/>
        <pt x="693" y="317" on="1"/>
        <pt x="786" y="700" on="1"/>
        <pt x="938" y="700" on="1"/>
        <pt x="728" y="-5" on="1"/>
        <pt x="628" y="-5" on="1"/>
        <pt x="492" y="376" on="1"/>
        <pt x="474" y="484" on="1"/>
        <pt x="467" y="484" on="1"/>
        <pt x="449" y="375" on="1"/>
        <pt x="314" y="-5" on="1"/>
        <pt x="209" y="-5" on="1"/>
        <pt x="0" y="700" on="1"/>
        <pt x="162" y="700" on="1"/>
      </contour>
    </TTGlyph>
    <TTGlyph name="X" xMin="10" yMin="0" xMax="675" yMax="700">
      <contour>
        <pt x="244" y="356" on="1"/>
        <pt x="32" y="700" on="1"/>
        <pt x="211" y="700" on="1"/>
        <pt x="328" y="501" on="1"/>
        <pt x="355" y="432" on="1"/>
        <pt x="381" y="501" on="1"/>
        <pt x="503" y="700" on="1"/>
        <pt x="664" y="700" on="1"/>
        <pt x="444" y="363" on="1"/>
        <pt x="675" y="0" on="1"/>
        <pt x="498" y="0" on="1"/>
        <pt x="364" y="213" on="1"/>
        <pt x="334" y="285" on="1"/>
        <pt x="305" y="213" on="1"/>
        <pt x="171" y="0" on="1"/>
        <pt x="10" y="0" on="1"/>
      </contour>
    </TTGlyph>
    <TTGlyph name="Y" xMin="-2" yMin="0" xMax="646" yMax="700">
      <contour>
        <pt x="248" y="258" on="1"/>
        <pt x="-2" y="700" on="1"/>
        <pt x="174" y="700" on="1"/>
        <pt x="314" y="443" on="1"/>
        <pt x="330" y="368" on="1"/>
        <pt x="335" y="368" on="1"/>
        <pt x="352" y="445" on="1"/>
        <pt x="487" y="700" on="1"/>
        <pt x="646" y="700" on="1"/>
        <pt x="396" y="259" on="1"/>
        <pt x="396" y="0" on="1"/>
        <pt x="248" y="0" on="1"/>
      </contour>
    </TTGlyph>
    <TTGlyph name="Yacute" xMin="-2" yMin="0" xMax="646" yMax="870">
      <component glyphName="Y" x="0" y="0" flags="0x204"/>
      <component glyphName="uniF6C9" x="180" y="0" flags="0x4"/>
    </TTGlyph>
    <TTGlyph name="Ydieresis" xMin="-2" yMin="0" xMax="646" yMax="858">
      <component glyphName="Y" x="0" y="0" flags="0x204"/>
      <component glyphName="uniF6CB" x="66" y="0" flags="0x4"/>
    </TTGlyph>
    <TTGlyph name="Z" xMin="28" yMin="0" xMax="556" yMax="700">
      <contour>
        <pt x="28" y="130" on="1"/>
        <pt x="349" y="529" on="1"/>
        <pt x="407" y="570" on="1"/>
        <pt x="28" y="570" on="1"/>
        <pt x="28" y="700" on="1"/>
        <pt x="556" y="700" on="1"/>
        <pt x="556" y="570" on="1"/>
        <pt x="233" y="168" on="1"/>
        <pt x="177" y="130" on="1"/>
        <pt x="556" y="130" on="1"/>
        <pt x="556" y="0" on="1"/>
        <pt x="28" y="0" on="1"/>
      </contour>
    </TTGlyph>
    <TTGlyph name="Zacute" xMin="28" yMin="0" xMax="556" yMax="870">
      <component glyphName="Z" x="0" y="0" flags="0x204"/>
      <component glyphName="uniF6C9" x="148" y="0" flags="0x4"/>
    </TTGlyph>
    <TTGlyph name="Zcaron" xMin="28" yMin="0" xMax="556" yMax="870">
      <component glyphName="Z" x="0" y="0" flags="0x204"/>
      <component glyphName="uniF6CA" x="35" y="0" flags="0x4"/>
    </TTGlyph>
    <TTGlyph name="Zdotaccent" xMin="28" yMin="0" xMax="556" yMax="860">
      <component glyphName="Z" x="0" y="0" flags="0x204"/>
      <component glyphName="uniF40B" x="141" y="0" flags="0x4"/>
    </TTGlyph>
    <TTGlyph name="a" xMin="30" yMin="-8" xMax="519" yMax="535">
      <contour>
        <pt x="67" y="489" on="1"/>
        <pt x="112" y="509" on="0"/>
        <pt x="243" y="535" on="0"/>
        <pt x="313" y="535" on="1"/>
        <pt x="368" y="535" on="0"/>
        <pt x="443" y="509" on="0"/>
        <pt x="487" y="460" on="0"/>
        <pt x="506" y="391" on="0"/>
        <pt x="506" y="349" on="1"/>
        <pt x="506" y="298" on="0"/>
        <pt x="498" y="198" on="0"/>
        <pt x="498" y="142" on="1"/>
        <pt x="498" y="104" on="0"/>
        <pt x="508" y="32" on="0"/>
        <pt x="519" y="-1" on="1"/>
        <pt x="405" y="-1" on="1"/>
        <pt x="382" y="77" on="1"/>
        <pt x="370" y="77" on="1"/>
        <pt x="344" y="42" on="0"/>
        <pt x="264" y="-8" on="0"/>
        <pt x="201" y="-8" on="1"/>
        <pt x="163" y="-8" on="0"/>
        <pt x="100" y="14" on="0"/>
        <pt x="55" y="55" on="0"/>
        <pt x="30" y="111" on="0"/>
        <pt x="30" y="144" on="1"/>
        <pt x="30" y="233" on="0"/>
        <pt x="149" y="324" on="0"/>
        <pt x="270" y="324" on="1"/>
        <pt x="298" y="324" on="0"/>
        <pt x="354" y="315" on="0"/>
        <pt x="365" y="313" on="1"/>
        <pt x="368" y="334" on="0"/>
        <pt x="368" y="349" on="1"/>
        <pt x="368" y="387" on="0"/>
        <pt x="330" y="423" on="0"/>
        <pt x="278" y="423" on="1"/>
        <pt x="230" y="423" on="0"/>
        <pt x="139" y="400" on="0"/>
        <pt x="104" y="383" on="1"/>
      </contour>
      <contour>
        <pt x="250" y="104" on="1"/>
        <pt x="297" y="104" on="0"/>
        <pt x="353" y="148" on="0"/>
        <pt x="366" y="172" on="1"/>
        <pt x="366" y="232" on="1"/>
        <pt x="361" y="234" on="0"/>
        <pt x="340" y="238" on="0"/>
        <pt x="315" y="242" on="0"/>
        <pt x="290" y="244" on="0"/>
        <pt x="280" y="244" on="1"/>
        <pt x="226" y="244" on="0"/>
        <pt x="174" y="205" on="0"/>
        <pt x="174" y="176" on="1"/>
        <pt x="174" y="140" on="0"/>
        <pt x="215" y="104" on="0"/>
      </contour>
    </TTGlyph>
    <TTGlyph name="aacute" xMin="30" yMin="-8" xMax="519" yMax="729">
      <component glyphName="a" x="0" y="0" flags="0x204"/>
      <component glyphName="acute" x="148" y="0" flags="0x4"/>
    </TTGlyph>
    <TTGlyph name="abreve" xMin="30" yMin="-8" xMax="519" yMax="728">
      <component glyphName="a" x="0" y="0" flags="0x204"/>
      <component glyphName="breve" x="28" y="0" flags="0x4"/>
    </TTGlyph>
    <TTGlyph name="acircumflex" xMin="30" yMin="-8" xMax="519" yMax="752">
      <component glyphName="a" x="0" y="0" flags="0x204"/>
      <component glyphName="circumflex" x="44" y="0" flags="0x4"/>
    </TTGlyph>
    <TTGlyph name="acute" xMin="79" yMin="571" xMax="281" yMax="729">
      <contour>
        <pt x="139" y="729" on="1"/>
        <pt x="281" y="729" on="1"/>
        <pt x="281" y="700" on="1"/>
        <pt x="155" y="571" on="1"/>
        <pt x="79" y="571" on="1"/>
      </contour>
    </TTGlyph>
    <TTGlyph name="acutecomb" xMin="-267" yMin="571" xMax="-65" yMax="729">
      <component glyphName="acute" x="-346" y="0" flags="0x4"/>
    </TTGlyph>
    <TTGlyph name="adieresis" xMin="30" yMin="-8" xMax="519" yMax="734">
      <component glyphName="a" x="0" y="0" flags="0x204"/>
      <component glyphName="dieresis" x="13" y="0" flags="0x4"/>
    </TTGlyph>
    <TTGlyph name="ae" xMin="30" yMin="-15" xMax="861" yMax="540">
      <contour>
        <pt x="250" y="104" on="1"/>
        <pt x="297" y="104" on="0"/>
        <pt x="352" y="146" on="0"/>
        <pt x="366" y="169" on="1"/>
        <pt x="366" y="232" on="1"/>
        <pt x="355" y="235" on="0"/>
        <pt x="322" y="243" on="0"/>
        <pt x="288" y="243" on="1"/>
        <pt x="231" y="243" on="0"/>
        <pt x="174" y="202" on="0"/>
        <pt x="174" y="167" on="1"/>
        <pt x="174" y="137" on="0"/>
        <pt x="216" y="104" on="0"/>
      </contour>
      <contour>
        <pt x="406" y="83" on="1"/>
        <pt x="376" y="45" on="0"/>
        <pt x="278" y="-8" on="0"/>
        <pt x="201" y="-8" on="1"/>
        <pt x="163" y="-8" on="0"/>
        <pt x="100" y="14" on="0"/>
        <pt x="55" y="55" on="0"/>
        <pt x="30" y="111" on="0"/>
        <pt x="30" y="144" on="1"/>
        <pt x="30" y="233" on="0"/>
        <pt x="154" y="323" on="0"/>
        <pt x="268" y="323" on="1"/>
        <pt x="300" y="323" on="0"/>
        <pt x="356" y="315" on="0"/>
        <pt x="365" y="313" on="1"/>
        <pt x="367" y="327" on="0"/>
        <pt x="368" y="341" on="0"/>
        <pt x="368" y="348" on="1"/>
        <pt x="368" y="380" on="0"/>
        <pt x="329" y="422" on="0"/>
        <pt x="277" y="422" on="1"/>
        <pt x="231" y="422" on="0"/>
        <pt x="139" y="401" on="0"/>
        <pt x="104" y="385" on="1"/>
        <pt x="67" y="483" on="1"/>
        <pt x="111" y="505" on="0"/>
        <pt x="235" y="535" on="0"/>
        <pt x="304" y="535" on="1"/>
        <pt x="363" y="535" on="0"/>
        <pt x="434" y="507" on="0"/>
        <pt x="460" y="477" on="1"/>
        <pt x="489" y="507" on="0"/>
        <pt x="581" y="540" on="0"/>
        <pt x="635" y="540" on="1"/>
        <pt x="677" y="540" on="0"/>
        <pt x="759" y="519" on="0"/>
        <pt x="822" y="470" on="0"/>
        <pt x="861" y="387" on="0"/>
        <pt x="861" y="325" on="1"/>
        <pt x="861" y="304" on="0"/>
        <pt x="857" y="255" on="0"/>
        <pt x="851" y="228" on="1"/>
        <pt x="500" y="228" on="1"/>
        <pt x="505" y="162" on="0"/>
        <pt x="576" y="95" on="0"/>
        <pt x="653" y="95" on="1"/>
        <pt x="699" y="95" on="0"/>
        <pt x="775" y="122" on="0"/>
        <pt x="796" y="136" on="1"/>
        <pt x="842" y="47" on="1"/>
        <pt x="825" y="34" on="0"/>
        <pt x="778" y="11" on="0"/>
        <pt x="721" y="-5" on="0"/>
        <pt x="658" y="-15" on="0"/>
        <pt x="625" y="-15" on="1"/>
        <pt x="554" y="-15" on="0"/>
        <pt x="440" y="30" on="0"/>
        <pt x="411" y="83" on="1"/>
      </contour>
      <contour>
        <pt x="633" y="429" on="1"/>
        <pt x="570" y="429" on="0"/>
        <pt x="511" y="362" on="0"/>
        <pt x="506" y="311" on="1"/>
        <pt x="731" y="311" on="1"/>
        <pt x="736" y="368" on="0"/>
        <pt x="687" y="429" on="0"/>
      </contour>
    </TTGlyph>
    <TTGlyph name="afii10017" xMin="0" yMin="0" xMax="658" yMax="705">
      <component glyphName="A" x="0" y="0" flags="0x204"/>
    </TTGlyph>
    <TTGlyph name="afii10018" xMin="65" yMin="-10" xMax="588" yMax="700">
      <contour>
        <pt x="65" y="700" on="1"/>
        <pt x="533" y="700" on="1"/>
        <pt x="533" y="570" on="1"/>
        <pt x="213" y="570" on="1"/>
        <pt x="213" y="435" on="1"/>
        <pt x="232" y="438" on="0"/>
        <pt x="284" y="443" on="0"/>
        <pt x="310" y="443" on="1"/>
        <pt x="371" y="443" on="0"/>
        <pt x="473" y="421" on="0"/>
        <pt x="547" y="370" on="0"/>
        <pt x="588" y="287" on="0"/>
        <pt x="588" y="226" on="1"/>
        <pt x="588" y="167" on="0"/>
        <pt x="545" y="79" on="0"/>
        <pt x="465" y="20" on="0"/>
        <pt x="353" y="-10" on="0"/>
        <pt x="284" y="-10" on="1"/>
        <pt x="266" y="-10" on="0"/>
        <pt x="210" y="-8" on="0"/>
        <pt x="149" y="-4" on="0"/>
        <pt x="89" y="2" on="0"/>
        <pt x="65" y="7" on="1"/>
      </contour>
      <contour>
        <pt x="296" y="110" on="1"/>
        <pt x="324" y="110" on="0"/>
        <pt x="373" y="122" on="0"/>
        <pt x="410" y="147" on="0"/>
        <pt x="431" y="187" on="0"/>
        <pt x="431" y="215" on="1"/>
        <pt x="431" y="249" on="0"/>
        <pt x="407" y="292" on="0"/>
        <pt x="366" y="315" on="0"/>
        <pt x="311" y="323" on="0"/>
        <pt x="281" y="323" on="1"/>
        <pt x="266" y="323" on="0"/>
        <pt x="222" y="318" on="0"/>
        <pt x="213" y="316" on="1"/>
        <pt x="213" y="115" on="1"/>
        <pt x="225" y="112" on="0"/>
        <pt x="273" y="110" on="0"/>
      </contour>
    </TTGlyph>
    <TTGlyph name="afii10019" xMin="65" yMin="-10" xMax="600" yMax="710">
      <component glyphName="B" x="0" y="0" flags="0x204"/>
    </TTGlyph>
    <TTGlyph name="afii10020" xMin="65" yMin="0" xMax="507" yMax="700">
      <contour>
        <pt x="507" y="570" on="1"/>
        <pt x="213" y="570" on="1"/>
        <pt x="213" y="0" on="1"/>
        <pt x="65" y="0" on="1"/>
        <pt x="65" y="700" on="1"/>
        <pt x="507" y="700" on="1"/>
      </contour>
    </TTGlyph>
    <TTGlyph name="afii10021" xMin="0" yMin="-124" xMax="732" yMax="700">
      <contour>
        <pt x="732" y="-124" on="1"/>
        <pt x="627" y="-124" on="1"/>
        <pt x="611" y="0" on="1"/>
        <pt x="121" y="0" on="1"/>
        <pt x="105" y="-124" on="1"/>
        <pt x="0" y="-124" on="1"/>
        <pt x="0" y="130" on="1"/>
        <pt x="81" y="130" on="1"/>
        <pt x="89" y="141" on="0"/>
        <pt x="123" y="215" on="0"/>
        <pt x="157" y="353" on="0"/>
        <pt x="182" y="558" on="0"/>
        <pt x="180" y="700" on="1"/>
        <pt x="636" y="700" on="1"/>
        <pt x="636" y="130" on="1"/>
        <pt x="732" y="130" on="1"/>
      </contour>
      <contour>
        <pt x="488" y="130" on="1"/>
        <pt x="488" y="570" on="1"/>
        <pt x="318" y="570" on="1"/>
        <pt x="312" y="398" on="0"/>
        <pt x="263" y="178" on="0"/>
        <pt x="238" y="130" on="1"/>
      </contour>
    </TTGlyph>
    <TTGlyph name="afii10022" xMin="65" yMin="0" xMax="521" yMax="700">
      <component glyphName="E" x="0" y="0" flags="0x204"/>
    </TTGlyph>
    <TTGlyph name="afii10023" xMin="65" yMin="0" xMax="521" yMax="858">
      <component glyphName="E" x="0" y="0" flags="0x204"/>
      <component glyphName="uniF6CB" x="29" y="0" flags="0x4"/>
    </TTGlyph>
    <TTGlyph name="afii10024" xMin="-8" yMin="0" xMax="918" yMax="700">
      <contour>
        <pt x="380" y="700" on="1"/>
        <pt x="520" y="700" on="1"/>
        <pt x="520" y="391" on="1"/>
        <pt x="559" y="405" on="1"/>
        <pt x="717" y="700" on="1"/>
        <pt x="885" y="700" on="1"/>
        <pt x="707" y="393" on="1"/>
        <pt x="655" y="358" on="1"/>
        <pt x="718" y="315" on="1"/>
        <pt x="918" y="0" on="1"/>
        <pt x="739" y="0" on="1"/>
        <pt x="563" y="301" on="1"/>
        <pt x="520" y="301" on="1"/>
        <pt x="520" y="0" on="1"/>
        <pt x="380" y="0" on="1"/>
        <pt x="380" y="313" on="1"/>
        <pt x="342" y="299" on="1"/>
        <pt x="166" y="0" on="1"/>
        <pt x="-8" y="0" on="1"/>
        <pt x="191" y="305" on="1"/>
        <pt x="250" y="345" on="1"/>
        <pt x="193" y="383" on="1"/>
        <pt x="7" y="700" on="1"/>
        <pt x="180" y="700" on="1"/>
        <pt x="337" y="403" on="1"/>
        <pt x="380" y="403" on="1"/>
      </contour>
    </TTGlyph>
    <TTGlyph name="afii10025" xMin="18" yMin="-14" xMax="531" yMax="712">
      <contour>
        <pt x="128" y="307" on="1"/>
        <pt x="128" y="420" on="1"/>
        <pt x="154" y="420" on="1"/>
        <pt x="164" y="420" on="0"/>
        <pt x="193" y="420" on="0"/>
        <pt x="224" y="421" on="0"/>
        <pt x="253" y="424" on="0"/>
        <pt x="262" y="426" on="1"/>
        <pt x="300" y="433" on="0"/>
        <pt x="351" y="470" on="0"/>
        <pt x="351" y="505" on="1"/>
        <pt x="351" y="550" on="0"/>
        <pt x="286" y="582" on="0"/>
        <pt x="232" y="582" on="1"/>
        <pt x="208" y="582" on="0"/>
        <pt x="161" y="575" on="0"/>
        <pt x="120" y="563" on="0"/>
        <pt x="86" y="550" on="0"/>
        <pt x="75" y="544" on="1"/>
        <pt x="38" y="670" on="1"/>
        <pt x="49" y="675" on="0"/>
        <pt x="92" y="690" on="0"/>
        <pt x="150" y="703" on="0"/>
        <pt x="218" y="712" on="0"/>
        <pt x="253" y="712" on="1"/>
        <pt x="301" y="712" on="0"/>
        <pt x="392" y="696" on="0"/>
        <pt x="464" y="656" on="0"/>
        <pt x="508" y="588" on="0"/>
        <pt x="508" y="536" on="1"/>
        <pt x="508" y="485" on="0"/>
        <pt x="448" y="397" on="0"/>
        <pt x="382" y="377" on="1"/>
        <pt x="382" y="371" on="1"/>
        <pt x="452" y="360" on="0"/>
        <pt x="531" y="272" on="0"/>
        <pt x="531" y="200" on="1"/>
        <pt x="531" y="144" on="0"/>
        <pt x="481" y="63" on="0"/>
        <pt x="400" y="11" on="0"/>
        <pt x="295" y="-14" on="0"/>
        <pt x="240" y="-14" on="1"/>
        <pt x="204" y="-14" on="0"/>
        <pt x="137" y="-7" on="0"/>
        <pt x="79" y="3" on="0"/>
        <pt x="33" y="17" on="0"/>
        <pt x="18" y="25" on="1"/>
        <pt x="56" y="153" on="1"/>
        <pt x="81" y="142" on="0"/>
        <pt x="176" y="116" on="0"/>
        <pt x="242" y="116" on="1"/>
        <pt x="265" y="116" on="0"/>
        <pt x="312" y="126" on="0"/>
        <pt x="350" y="149" on="0"/>
        <pt x="374" y="185" on="0"/>
        <pt x="374" y="212" on="1"/>
        <pt x="374" y="235" on="0"/>
        <pt x="357" y="269" on="0"/>
        <pt x="316" y="292" on="0"/>
        <pt x="247" y="305" on="0"/>
        <pt x="196" y="306" on="1"/>
        <pt x="183" y="306" on="0"/>
        <pt x="170" y="307" on="0"/>
        <pt x="154" y="307" on="1"/>
      </contour>
    </TTGlyph>
    <TTGlyph name="afii10026" xMin="65" yMin="0" xMax="658" yMax="700">
      <contour>
        <pt x="510" y="386" on="1"/>
        <pt x="518" y="475" on="1"/>
        <pt x="513" y="475" on="1"/>
        <pt x="462" y="385" on="1"/>
        <pt x="175" y="0" on="1"/>
        <pt x="65" y="0" on="1"/>
        <pt x="65" y="700" on="1"/>
        <pt x="213" y="700" on="1"/>
        <pt x="213" y="323" on="1"/>
        <pt x="203" y="230" on="1"/>
        <pt x="209" y="230" on="1"/>
        <pt x="263" y="323" on="1"/>
        <pt x="547" y="700" on="1"/>
        <pt x="658" y="700" on="1"/>
        <pt x="658" y="0" on="1"/>
        <pt x="510" y="0" on="1"/>
      </contour>
    </TTGlyph>
    <TTGlyph name="afii10027" xMin="65" yMin="0" xMax="658" yMax="875">
      <component glyphName="afii10026" x="0" y="0" flags="0x204"/>
      <component glyphName="uniF6D1" x="100" y="0" flags="0x4"/>
    </TTGlyph>
    <TTGlyph name="afii10028" xMin="65" yMin="0" xMax="661" yMax="700">
      <component glyphName="K" x="0" y="0" flags="0x204"/>
    </TTGlyph>
    <TTGlyph name="afii10029" xMin="-15" yMin="-8" xMax="611" yMax="700">
      <contour>
        <pt x="463" y="570" on="1"/>
        <pt x="302" y="570" on="1"/>
        <pt x="297" y="475" on="0"/>
        <pt x="286" y="322" on="0"/>
        <pt x="267" y="200" on="0"/>
        <pt x="235" y="105" on="0"/>
        <pt x="211" y="69" on="1"/>
        <pt x="195" y="46" on="0"/>
        <pt x="156" y="16" on="0"/>
        <pt x="114" y="-1" on="0"/>
        <pt x="74" y="-8" on="0"/>
        <pt x="57" y="-8" on="1"/>
        <pt x="31" y="-8" on="0"/>
        <pt x="2" y="0" on="0"/>
        <pt x="-15" y="8" on="1"/>
        <pt x="1" y="132" on="1"/>
        <pt x="12" y="128" on="0"/>
        <pt x="27" y="128" on="1"/>
        <pt x="44" y="128" on="0"/>
        <pt x="78" y="144" on="0"/>
        <pt x="91" y="162" on="1"/>
        <pt x="107" y="184" on="0"/>
        <pt x="132" y="266" on="0"/>
        <pt x="149" y="397" on="0"/>
        <pt x="160" y="579" on="0"/>
        <pt x="162" y="700" on="1"/>
        <pt x="611" y="700" on="1"/>
        <pt x="611" y="0" on="1"/>
        <pt x="463" y="0" on="1"/>
      </contour>
    </TTGlyph>
    <TTGlyph name="afii10030" xMin="65" yMin="0" xMax="803" yMax="700">
      <component glyphName="M" x="0" y="0" flags="0x204"/>
    </TTGlyph>
    <TTGlyph name="afii10031" xMin="65" yMin="0" xMax="641" yMax="700">
      <component glyphName="H" x="0" y="0" flags="0x204"/>
    </TTGlyph>
    <TTGlyph name="afii10032" xMin="40" yMin="-14" xMax="687" yMax="714">
      <component glyphName="O" x="0" y="0" flags="0x204"/>
    </TTGlyph>
    <TTGlyph name="afii10033" xMin="65" yMin="0" xMax="629" yMax="700">
      <contour>
        <pt x="481" y="570" on="1"/>
        <pt x="213" y="570" on="1"/>
        <pt x="213" y="0" on="1"/>
        <pt x="65" y="0" on="1"/>
        <pt x="65" y="700" on="1"/>
        <pt x="629" y="700" on="1"/>
        <pt x="629" y="0" on="1"/>
        <pt x="481" y="0" on="1"/>
      </contour>
    </TTGlyph>
    <TTGlyph name="afii10034" xMin="65" yMin="0" xMax="594" yMax="710">
      <component glyphName="P" x="0" y="0" flags="0x204"/>
    </TTGlyph>
    <TTGlyph name="afii10035" xMin="40" yMin="-14" xMax="579" yMax="714">
      <component glyphName="C" x="0" y="0" flags="0x204"/>
    </TTGlyph>
    <TTGlyph name="afii10036" xMin="12" yMin="0" xMax="604" yMax="700">
      <component glyphName="T" x="0" y="0" flags="0x204"/>
    </TTGlyph>
    <TTGlyph name="afii10037" xMin="-10" yMin="-7" xMax="633" yMax="700">
      <contour>
        <pt x="318" y="395" on="1"/>
        <pt x="340" y="306" on="1"/>
        <pt x="347" y="306" on="1"/>
        <pt x="364" y="399" on="1"/>
        <pt x="478" y="700" on="1"/>
        <pt x="633" y="700" on="1"/>
        <pt x="430" y="213" on="1"/>
        <pt x="407" y="157" on="0"/>
        <pt x="361" y="75" on="0"/>
        <pt x="309" y="20" on="0"/>
        <pt x="245" y="-7" on="0"/>
        <pt x="203" y="-7" on="1"/>
        <pt x="167" y="-7" on="0"/>
        <pt x="125" y="1" on="0"/>
        <pt x="99" y="17" on="1"/>
        <pt x="136" y="136" on="1"/>
        <pt x="155" y="127" on="0"/>
        <pt x="186" y="123" on="0"/>
        <pt x="203" y="123" on="1"/>
        <pt x="255" y="123" on="0"/>
        <pt x="275" y="193" on="1"/>
        <pt x="-10" y="700" on="1"/>
        <pt x="164" y="700" on="1"/>
      </contour>
    </TTGlyph>
    <TTGlyph name="afii10038" xMin="27" yMin="-20" xMax="844" yMax="720">
      <contour>
        <pt x="362" y="76" on="1"/>
        <pt x="341" y="73" on="0"/>
        <pt x="299" y="71" on="0"/>
        <pt x="274" y="71" on="1"/>
        <pt x="223" y="71" on="0"/>
        <pt x="133" y="105" on="0"/>
        <pt x="66" y="175" on="0"/>
        <pt x="27" y="279" on="0"/>
        <pt x="27" y="350" on="1"/>
        <pt x="27" y="417" on="0"/>
        <pt x="66" y="525" on="0"/>
        <pt x="136" y="600" on="0"/>
        <pt x="235" y="640" on="0"/>
        <pt x="294" y="640" on="1"/>
        <pt x="308" y="640" on="0"/>
        <pt x="349" y="638" on="0"/>
        <pt x="362" y="635" on="1"/>
        <pt x="362" y="720" on="1"/>
        <pt x="509" y="720" on="1"/>
        <pt x="509" y="632" on="1"/>
        <pt x="529" y="637" on="0"/>
        <pt x="581" y="640" on="0"/>
        <pt x="598" y="640" on="1"/>
        <pt x="650" y="640" on="0"/>
        <pt x="740" y="604" on="0"/>
        <pt x="806" y="533" on="0"/>
        <pt x="844" y="429" on="0"/>
        <pt x="844" y="360" on="1"/>
        <pt x="844" y="290" on="0"/>
        <pt x="802" y="182" on="0"/>
        <pt x="730" y="109" on="0"/>
        <pt x="635" y="71" on="0"/>
        <pt x="582" y="71" on="1"/>
        <pt x="564" y="71" on="0"/>
        <pt x="523" y="74" on="0"/>
        <pt x="509" y="78" on="1"/>
        <pt x="509" y="-20" on="1"/>
        <pt x="362" y="-20" on="1"/>
      </contour>
      <contour>
        <pt x="563" y="523" on="1"/>
        <pt x="552" y="523" on="0"/>
        <pt x="515" y="521" on="0"/>
        <pt x="503" y="518" on="1"/>
        <pt x="503" y="190" on="1"/>
        <pt x="512" y="188" on="0"/>
        <pt x="538" y="188" on="0"/>
        <pt x="552" y="188" on="1"/>
        <pt x="581" y="188" on="0"/>
        <pt x="633" y="208" on="0"/>
        <pt x="672" y="249" on="0"/>
        <pt x="694" y="314" on="0"/>
        <pt x="694" y="359" on="1"/>
        <pt x="694" y="437" on="0"/>
        <pt x="623" y="523" on="0"/>
      </contour>
      <contour>
        <pt x="312" y="188" on="1"/>
        <pt x="321" y="188" on="0"/>
        <pt x="355" y="189" on="0"/>
        <pt x="368" y="193" on="1"/>
        <pt x="368" y="520" on="1"/>
        <pt x="345" y="523" on="0"/>
        <pt x="317" y="523" on="1"/>
        <pt x="288" y="523" on="0"/>
        <pt x="237" y="503" on="0"/>
        <pt x="199" y="461" on="0"/>
        <pt x="177" y="396" on="0"/>
        <pt x="177" y="351" on="1"/>
        <pt x="177" y="272" on="0"/>
        <pt x="252" y="188" on="0"/>
      </contour>
    </TTGlyph>
    <TTGlyph name="afii10039" xMin="10" yMin="0" xMax="675" yMax="700">
      <component glyphName="X" x="0" y="0" flags="0x204"/>
    </TTGlyph>
    <TTGlyph name="afii10040" xMin="65" yMin="-124" xMax="722" yMax="700">
      <contour>
        <pt x="722" y="-124" on="1"/>
        <pt x="617" y="-124" on="1"/>
        <pt x="601" y="0" on="1"/>
        <pt x="65" y="0" on="1"/>
        <pt x="65" y="700" on="1"/>
        <pt x="213" y="700" on="1"/>
        <pt x="213" y="130" on="1"/>
        <pt x="477" y="130" on="1"/>
        <pt x="477" y="700" on="1"/>
        <pt x="625" y="700" on="1"/>
        <pt x="625" y="130" on="1"/>
        <pt x="722" y="130" on="1"/>
      </contour>
    </TTGlyph>
    <TTGlyph name="afii10041" xMin="48" yMin="0" xMax="592" yMax="700">
      <contour>
        <pt x="196" y="700" on="1"/>
        <pt x="196" y="484" on="1"/>
        <pt x="196" y="426" on="0"/>
        <pt x="248" y="364" on="0"/>
        <pt x="307" y="364" on="1"/>
        <pt x="349" y="364" on="0"/>
        <pt x="423" y="381" on="0"/>
        <pt x="444" y="398" on="1"/>
        <pt x="444" y="700" on="1"/>
        <pt x="592" y="700" on="1"/>
        <pt x="592" y="0" on="1"/>
        <pt x="444" y="0" on="1"/>
        <pt x="444" y="280" on="1"/>
        <pt x="417" y="265" on="0"/>
        <pt x="320" y="240" on="0"/>
        <pt x="254" y="240" on="1"/>
        <pt x="208" y="240" on="0"/>
        <pt x="132" y="263" on="0"/>
        <pt x="78" y="311" on="0"/>
        <pt x="48" y="385" on="0"/>
        <pt x="48" y="436" on="1"/>
        <pt x="48" y="700" on="1"/>
      </contour>
    </TTGlyph>
    <TTGlyph name="afii10042" xMin="65" yMin="0" xMax="869" yMax="700">
      <contour>
        <pt x="65" y="0" on="1"/>
        <pt x="65" y="700" on="1"/>
        <pt x="213" y="700" on="1"/>
        <pt x="213" y="130" on="1"/>
        <pt x="393" y="130" on="1"/>
        <pt x="393" y="700" on="1"/>
        <pt x="541" y="700" on="1"/>
        <pt x="541" y="130" on="1"/>
        <pt x="721" y="130" on="1"/>
        <pt x="721" y="700" on="1"/>
        <pt x="869" y="700" on="1"/>
        <pt x="869" y="0" on="1"/>
      </contour>
    </TTGlyph>
    <TTGlyph name="afii10043" xMin="65" yMin="-124" xMax="971" yMax="700">
      <contour>
        <pt x="65" y="0" on="1"/>
        <pt x="65" y="700" on="1"/>
        <pt x="213" y="700" on="1"/>
        <pt x="213" y="130" on="1"/>
        <pt x="393" y="130" on="1"/>
        <pt x="393" y="700" on="1"/>
        <pt x="541" y="700" on="1"/>
        <pt x="541" y="130" on="1"/>
        <pt x="721" y="130" on="1"/>
        <pt x="721" y="700" on="1"/>
        <pt x="869" y="700" on="1"/>
        <pt x="869" y="130" on="1"/>
        <pt x="971" y="130" on="1"/>
        <pt x="971" y="-124" on="1"/>
        <pt x="866" y="-124" on="1"/>
        <pt x="850" y="0" on="1"/>
      </contour>
    </TTGlyph>
    <TTGlyph name="afii10044" xMin="-5" yMin="-10" xMax="697" yMax="700">
      <contour>
        <pt x="169" y="570" on="1"/>
        <pt x="-5" y="570" on="1"/>
        <pt x="-5" y="700" on="1"/>
        <pt x="317" y="700" on="1"/>
        <pt x="317" y="451" on="1"/>
        <pt x="322" y="452" on="0"/>
        <pt x="346" y="455" on="0"/>
        <pt x="376" y="457" on="0"/>
        <pt x="407" y="459" on="0"/>
        <pt x="420" y="459" on="1"/>
        <pt x="473" y="459" on="0"/>
        <pt x="573" y="439" on="0"/>
        <pt x="650" y="387" on="0"/>
        <pt x="697" y="299" on="0"/>
        <pt x="697" y="232" on="1"/>
        <pt x="697" y="113" on="0"/>
        <pt x="533" y="-10" on="0"/>
        <pt x="384" y="-10" on="1"/>
        <pt x="369" y="-10" on="0"/>
        <pt x="316" y="-9" on="0"/>
        <pt x="256" y="-5" on="0"/>
        <pt x="194" y="1" on="0"/>
        <pt x="169" y="7" on="1"/>
      </contour>
      <contour>
        <pt x="390" y="120" on="1"/>
        <pt x="420" y="120" on="0"/>
        <pt x="475" y="130" on="0"/>
        <pt x="516" y="155" on="0"/>
        <pt x="540" y="196" on="0"/>
        <pt x="540" y="227" on="1"/>
        <pt x="540" y="260" on="0"/>
        <pt x="515" y="300" on="0"/>
        <pt x="473" y="322" on="0"/>
        <pt x="419" y="329" on="0"/>
        <pt x="390" y="329" on="1"/>
        <pt x="382" y="329" on="0"/>
        <pt x="361" y="327" on="0"/>
        <pt x="339" y="325" on="0"/>
        <pt x="321" y="322" on="0"/>
        <pt x="317" y="321" on="1"/>
        <pt x="317" y="125" on="1"/>
        <pt x="329" y="123" on="0"/>
        <pt x="369" y="120" on="0"/>
      </contour>
    </TTGlyph>
    <TTGlyph name="afii10045" xMin="65" yMin="-10" xMax="800" yMax="700">
      <contour>
        <pt x="652" y="700" on="1"/>
        <pt x="800" y="700" on="1"/>
        <pt x="800" y="0" on="1"/>
        <pt x="652" y="0" on="1"/>
      </contour>
      <contour>
        <pt x="65" y="700" on="1"/>
        <pt x="213" y="700" on="1"/>
        <pt x="213" y="451" on="1"/>
        <pt x="224" y="453" on="0"/>
        <pt x="275" y="459" on="0"/>
        <pt x="301" y="459" on="1"/>
        <pt x="355" y="459" on="0"/>
        <pt x="454" y="438" on="0"/>
        <pt x="529" y="387" on="0"/>
        <pt x="573" y="299" on="0"/>
        <pt x="573" y="233" on="1"/>
        <pt x="573" y="112" on="0"/>
        <pt x="417" y="-10" on="0"/>
        <pt x="267" y="-10" on="1"/>
        <pt x="252" y="-10" on="0"/>
        <pt x="204" y="-9" on="0"/>
        <pt x="148" y="-5" on="0"/>
        <pt x="90" y="1" on="0"/>
        <pt x="65" y="7" on="1"/>
      </contour>
      <contour>
        <pt x="277" y="120" on="1"/>
        <pt x="338" y="120" on="0"/>
        <pt x="416" y="170" on="0"/>
        <pt x="416" y="228" on="1"/>
        <pt x="416" y="259" on="0"/>
        <pt x="394" y="298" on="0"/>
        <pt x="357" y="321" on="0"/>
        <pt x="306" y="329" on="0"/>
        <pt x="278" y="329" on="1"/>
        <pt x="271" y="329" on="0"/>
        <pt x="252" y="327" on="0"/>
        <pt x="233" y="325" on="0"/>
        <pt x="217" y="322" on="0"/>
        <pt x="213" y="321" on="1"/>
        <pt x="213" y="125" on="1"/>
        <pt x="238" y="120" on="0"/>
      </contour>
    </TTGlyph>
    <TTGlyph name="afii10046" xMin="65" yMin="-10" xMax="593" yMax="700">
      <contour>
        <pt x="65" y="700" on="1"/>
        <pt x="213" y="700" on="1"/>
        <pt x="213" y="451" on="1"/>
        <pt x="218" y="452" on="0"/>
        <pt x="242" y="455" on="0"/>
        <pt x="271" y="457" on="0"/>
        <pt x="302" y="459" on="0"/>
        <pt x="314" y="459" on="1"/>
        <pt x="368" y="459" on="0"/>
        <pt x="469" y="439" on="0"/>
        <pt x="546" y="387" on="0"/>
        <pt x="593" y="299" on="0"/>
        <pt x="593" y="232" on="1"/>
        <pt x="593" y="112" on="0"/>
        <pt x="428" y="-10" on="0"/>
        <pt x="279" y="-10" on="1"/>
        <pt x="264" y="-10" on="0"/>
        <pt x="213" y="-9" on="0"/>
        <pt x="153" y="-5" on="0"/>
        <pt x="91" y="1" on="0"/>
        <pt x="65" y="7" on="1"/>
      </contour>
      <contour>
        <pt x="286" y="120" on="1"/>
        <pt x="316" y="120" on="0"/>
        <pt x="371" y="130" on="0"/>
        <pt x="412" y="155" on="0"/>
        <pt x="436" y="196" on="0"/>
        <pt x="436" y="227" on="1"/>
        <pt x="436" y="260" on="0"/>
        <pt x="411" y="300" on="0"/>
        <pt x="369" y="322" on="0"/>
        <pt x="315" y="329" on="0"/>
        <pt x="286" y="329" on="1"/>
        <pt x="278" y="329" on="0"/>
        <pt x="257" y="327" on="0"/>
        <pt x="235" y="325" on="0"/>
        <pt x="217" y="322" on="0"/>
        <pt x="213" y="321" on="1"/>
        <pt x="213" y="125" on="1"/>
        <pt x="225" y="123" on="0"/>
        <pt x="264" y="120" on="0"/>
      </contour>
    </TTGlyph>
    <TTGlyph name="afii10047" xMin="20" yMin="-14" xMax="581" yMax="714">
      <contour>
        <pt x="140" y="414" on="1"/>
        <pt x="432" y="414" on="1"/>
        <pt x="429" y="450" on="0"/>
        <pt x="400" y="513" on="0"/>
        <pt x="350" y="558" on="0"/>
        <pt x="278" y="584" on="0"/>
        <pt x="231" y="584" on="1"/>
        <pt x="170" y="584" on="0"/>
        <pt x="82" y="559" on="0"/>
        <pt x="57" y="545" on="1"/>
        <pt x="25" y="670" on="1"/>
        <pt x="43" y="679" on="0"/>
        <pt x="92" y="695" on="0"/>
        <pt x="147" y="707" on="0"/>
        <pt x="205" y="714" on="0"/>
        <pt x="233" y="714" on="1"/>
        <pt x="308" y="714" on="0"/>
        <pt x="435" y="676" on="0"/>
        <pt x="528" y="590" on="0"/>
        <pt x="581" y="451" on="0"/>
        <pt x="581" y="350" on="1"/>
        <pt x="581" y="245" on="0"/>
        <pt x="518" y="105" on="0"/>
        <pt x="415" y="21" on="0"/>
        <pt x="282" y="-14" on="0"/>
        <pt x="212" y="-14" on="1"/>
        <pt x="150" y="-14" on="0"/>
        <pt x="50" y="7" on="0"/>
        <pt x="20" y="20" on="1"/>
        <pt x="59" y="147" on="1"/>
        <pt x="84" y="135" on="0"/>
        <pt x="169" y="116" on="0"/>
        <pt x="225" y="116" on="1"/>
        <pt x="267" y="116" on="0"/>
        <pt x="339" y="137" on="0"/>
        <pt x="394" y="181" on="0"/>
        <pt x="428" y="249" on="0"/>
        <pt x="433" y="297" on="1"/>
        <pt x="140" y="297" on="1"/>
      </contour>
    </TTGlyph>
    <TTGlyph name="afii10048" xMin="65" yMin="-14" xMax="934" yMax="714">
      <contour>
        <pt x="213" y="419" on="1"/>
        <pt x="316" y="419" on="1"/>
        <pt x="330" y="560" on="0"/>
        <pt x="486" y="714" on="0"/>
        <pt x="622" y="714" on="1"/>
        <pt x="703" y="714" on="0"/>
        <pt x="821" y="661" on="0"/>
        <pt x="897" y="565" on="0"/>
        <pt x="934" y="431" on="0"/>
        <pt x="934" y="350" on="1"/>
        <pt x="934" y="176" on="0"/>
        <pt x="775" y="-14" on="0"/>
        <pt x="623" y="-14" on="1"/>
        <pt x="552" y="-14" on="0"/>
        <pt x="444" y="30" on="0"/>
        <pt x="367" y="109" on="0"/>
        <pt x="322" y="221" on="0"/>
        <pt x="316" y="289" on="1"/>
        <pt x="213" y="289" on="1"/>
        <pt x="213" y="0" on="1"/>
        <pt x="65" y="0" on="1"/>
        <pt x="65" y="700" on="1"/>
        <pt x="213" y="700" on="1"/>
      </contour>
      <contour>
        <pt x="466" y="350" on="1"/>
        <pt x="466" y="298" on="0"/>
        <pt x="482" y="212" on="0"/>
        <pt x="520" y="150" on="0"/>
        <pt x="579" y="116" on="0"/>
        <pt x="623" y="116" on="1"/>
        <pt x="702" y="116" on="0"/>
        <pt x="777" y="225" on="0"/>
        <pt x="777" y="350" on="1"/>
        <pt x="777" y="400" on="0"/>
        <pt x="763" y="485" on="0"/>
        <pt x="727" y="548" on="0"/>
        <pt x="668" y="584" on="0"/>
        <pt x="623" y="584" on="1"/>
        <pt x="544" y="584" on="0"/>
        <pt x="466" y="471" on="0"/>
      </contour>
    </TTGlyph>
    <TTGlyph name="afii10049" xMin="3" yMin="0" xMax="562" yMax="710">
      <contour>
        <pt x="562" y="0" on="1"/>
        <pt x="414" y="0" on="1"/>
        <pt x="414" y="274" on="1"/>
        <pt x="336" y="255" on="1"/>
        <pt x="176" y="0" on="1"/>
        <pt x="3" y="0" on="1"/>
        <pt x="159" y="229" on="1"/>
        <pt x="225" y="274" on="1"/>
        <pt x="190" y="282" on="0"/>
        <pt x="129" y="315" on="0"/>
        <pt x="83" y="367" on="0"/>
        <pt x="57" y="438" on="0"/>
        <pt x="57" y="483" on="1"/>
        <pt x="57" y="546" on="0"/>
        <pt x="105" y="633" on="0"/>
        <pt x="190" y="686" on="0"/>
        <pt x="307" y="710" on="0"/>
        <pt x="375" y="710" on="1"/>
        <pt x="393" y="710" on="0"/>
        <pt x="441" y="708" on="0"/>
        <pt x="492" y="704" on="0"/>
        <pt x="542" y="698" on="0"/>
        <pt x="562" y="693" on="1"/>
      </contour>
      <contour>
        <pt x="358" y="580" on="1"/>
        <pt x="329" y="580" on="0"/>
        <pt x="277" y="571" on="0"/>
        <pt x="237" y="549" on="0"/>
        <pt x="214" y="508" on="0"/>
        <pt x="214" y="477" on="1"/>
        <pt x="214" y="447" on="0"/>
        <pt x="236" y="406" on="0"/>
        <pt x="275" y="381" on="0"/>
        <pt x="328" y="370" on="0"/>
        <pt x="358" y="370" on="1"/>
        <pt x="414" y="370" on="1"/>
        <pt x="414" y="576" on="1"/>
        <pt x="402" y="578" on="0"/>
        <pt x="378" y="580" on="0"/>
      </contour>
    </TTGlyph>
    <TTGlyph name="afii10050" xMin="65" yMin="0" xMax="507" yMax="854">
      <contour>
        <pt x="507" y="570" on="1"/>
        <pt x="213" y="570" on="1"/>
        <pt x="213" y="0" on="1"/>
        <pt x="65" y="0" on="1"/>
        <pt x="65" y="700" on="1"/>
        <pt x="390" y="700" on="1"/>
        <pt x="412" y="854" on="1"/>
        <pt x="507" y="854" on="1"/>
      </contour>
    </TTGlyph>
    <TTGlyph name="afii10051" xMin="12" yMin="-7" xMax="763" yMax="700">
      <contour>
        <pt x="382" y="0" on="1"/>
        <pt x="234" y="0" on="1"/>
        <pt x="234" y="570" on="1"/>
        <pt x="12" y="570" on="1"/>
        <pt x="12" y="700" on="1"/>
        <pt x="606" y="700" on="1"/>
        <pt x="606" y="570" on="1"/>
        <pt x="382" y="570" on="1"/>
        <pt x="382" y="438" on="1"/>
        <pt x="399" y="444" on="0"/>
        <pt x="473" y="459" on="0"/>
        <pt x="532" y="459" on="1"/>
        <pt x="574" y="459" on="0"/>
        <pt x="657" y="439" on="0"/>
        <pt x="723" y="388" on="0"/>
        <pt x="763" y="300" on="0"/>
        <pt x="763" y="233" on="1"/>
        <pt x="763" y="117" on="0"/>
        <pt x="637" y="-7" on="0"/>
        <pt x="499" y="-7" on="1"/>
        <pt x="470" y="-7" on="0"/>
        <pt x="440" y="-5" on="0"/>
        <pt x="432" y="-3" on="1"/>
        <pt x="432" y="125" on="1"/>
        <pt x="439" y="124" on="0"/>
        <pt x="477" y="123" on="0"/>
        <pt x="494" y="123" on="1"/>
        <pt x="548" y="123" on="0"/>
        <pt x="606" y="175" on="0"/>
        <pt x="606" y="228" on="1"/>
        <pt x="606" y="261" on="0"/>
        <pt x="586" y="300" on="0"/>
        <pt x="550" y="322" on="0"/>
        <pt x="502" y="329" on="0"/>
        <pt x="474" y="329" on="1"/>
        <pt x="450" y="329" on="0"/>
        <pt x="395" y="318" on="0"/>
        <pt x="382" y="311" on="1"/>
      </contour>
    </TTGlyph>
    <TTGlyph name="afii10052" xMin="65" yMin="0" xMax="507" yMax="870">
      <component glyphName="afii10020" x="0" y="0" flags="0x204"/>
      <component glyphName="uniF6C9" x="143" y="0" flags="0x4"/>
    </TTGlyph>
    <TTGlyph name="afii10053" xMin="40" yMin="-14" xMax="577" yMax="714">
      <contour>
        <pt x="577" y="30" on="1"/>
        <pt x="544" y="7" on="0"/>
        <pt x="438" y="-14" on="0"/>
        <pt x="381" y="-14" on="1"/>
        <pt x="314" y="-14" on="0"/>
        <pt x="191" y="26" on="0"/>
        <pt x="96" y="114" on="0"/>
        <pt x="40" y="252" on="0"/>
        <pt x="40" y="350" on="1"/>
        <pt x="40" y="452" on="0"/>
        <pt x="104" y="591" on="0"/>
        <pt x="204" y="676" on="0"/>
        <pt x="326" y="714" on="0"/>
        <pt x="385" y="714" on="1"/>
        <pt x="450" y="714" on="0"/>
        <pt x="537" y="698" on="0"/>
        <pt x="566" y="687" on="1"/>
        <pt x="537" y="563" on="1"/>
        <pt x="512" y="574" on="0"/>
        <pt x="447" y="584" on="0"/>
        <pt x="396" y="584" on="1"/>
        <pt x="320" y="584" on="0"/>
        <pt x="217" y="502" on="0"/>
        <pt x="202" y="417" on="1"/>
        <pt x="498" y="417" on="1"/>
        <pt x="498" y="300" on="1"/>
        <pt x="200" y="300" on="1"/>
        <pt x="211" y="217" on="0"/>
        <pt x="315" y="116" on="0"/>
        <pt x="407" y="116" on="1"/>
        <pt x="457" y="116" on="0"/>
        <pt x="522" y="134" on="0"/>
        <pt x="548" y="148" on="1"/>
      </contour>
    </TTGlyph>
    <TTGlyph name="afii10054" xMin="28" yMin="-14" xMax="541" yMax="714">
      <component glyphName="S" x="0" y="0" flags="0x204"/>
    </TTGlyph>
    <TTGlyph name="afii10055" xMin="40" yMin="0" xMax="348" yMax="700">
      <component glyphName="I" x="0" y="0" flags="0x204"/>
    </TTGlyph>
    <TTGlyph name="afii10055.alt" xMin="40" yMin="0" xMax="348" yMax="860">
      <component glyphName="I" x="0" y="0" flags="0x204"/>
      <component glyphName="uniF40B" x="39" y="0" flags="0x4"/>
    </TTGlyph>
    <TTGlyph name="afii10056" xMin="40" yMin="0" xMax="348" yMax="857">
      <contour>
        <pt x="56" y="792" on="1"/>
        <pt x="56" y="824" on="0"/>
        <pt x="90" y="857" on="0"/>
        <pt x="120" y="857" on="1"/>
        <pt x="150" y="857" on="0"/>
        <pt x="184" y="824" on="0"/>
        <pt x="184" y="792" on="1"/>
        <pt x="184" y="761" on="0"/>
        <pt x="150" y="729" on="0"/>
        <pt x="120" y="729" on="1"/>
        <pt x="90" y="729" on="0"/>
        <pt x="56" y="761" on="0"/>
      </contour>
      <contour>
        <pt x="205" y="792" on="1"/>
        <pt x="205" y="824" on="0"/>
        <pt x="238" y="857" on="0"/>
        <pt x="268" y="857" on="1"/>
        <pt x="332" y="857" on="0"/>
        <pt x="332" y="792" on="1"/>
        <pt x="332" y="729" on="0"/>
        <pt x="268" y="729" on="1"/>
        <pt x="238" y="729" on="0"/>
        <pt x="205" y="761" on="0"/>
      </contour>
      <contour>
        <pt x="120" y="620" on="1"/>
        <pt x="40" y="620" on="1"/>
        <pt x="40" y="700" on="1"/>
        <pt x="348" y="700" on="1"/>
        <pt x="348" y="620" on="1"/>
        <pt x="268" y="620" on="1"/>
        <pt x="268" y="80" on="1"/>
        <pt x="348" y="80" on="1"/>
        <pt x="348" y="0" on="1"/>
        <pt x="40" y="0" on="1"/>
        <pt x="40" y="80" on="1"/>
        <pt x="120" y="80" on="1"/>
      </contour>
    </TTGlyph>
    <TTGlyph name="afii10057" xMin="-25" yMin="-13" xMax="291" yMax="700">
      <component glyphName="J" x="0" y="0" flags="0x204"/>
    </TTGlyph>
    <TTGlyph name="afii10058" xMin="-15" yMin="-10" xMax="991" yMax="700">
      <contour>
        <pt x="463" y="570" on="1"/>
        <pt x="302" y="570" on="1"/>
        <pt x="297" y="475" on="0"/>
        <pt x="286" y="322" on="0"/>
        <pt x="267" y="200" on="0"/>
        <pt x="235" y="105" on="0"/>
        <pt x="211" y="69" on="1"/>
        <pt x="195" y="46" on="0"/>
        <pt x="156" y="16" on="0"/>
        <pt x="114" y="-1" on="0"/>
        <pt x="74" y="-8" on="0"/>
        <pt x="57" y="-8" on="1"/>
        <pt x="31" y="-8" on="0"/>
        <pt x="2" y="0" on="0"/>
        <pt x="-15" y="8" on="1"/>
        <pt x="1" y="132" on="1"/>
        <pt x="7" y="130" on="0"/>
        <pt x="19" y="128" on="0"/>
        <pt x="26" y="128" on="1"/>
        <pt x="43" y="128" on="0"/>
        <pt x="78" y="143" on="0"/>
        <pt x="91" y="162" on="1"/>
        <pt x="107" y="184" on="0"/>
        <pt x="132" y="266" on="0"/>
        <pt x="149" y="397" on="0"/>
        <pt x="160" y="579" on="0"/>
        <pt x="162" y="700" on="1"/>
        <pt x="611" y="700" on="1"/>
        <pt x="611" y="451" on="1"/>
        <pt x="616" y="452" on="0"/>
        <pt x="640" y="455" on="0"/>
        <pt x="669" y="457" on="0"/>
        <pt x="700" y="459" on="0"/>
        <pt x="712" y="459" on="1"/>
        <pt x="766" y="459" on="0"/>
        <pt x="867" y="439" on="0"/>
        <pt x="944" y="387" on="0"/>
        <pt x="991" y="299" on="0"/>
        <pt x="991" y="232" on="1"/>
        <pt x="991" y="112" on="0"/>
        <pt x="826" y="-10" on="0"/>
        <pt x="677" y="-10" on="1"/>
        <pt x="662" y="-10" on="0"/>
        <pt x="611" y="-9" on="0"/>
        <pt x="551" y="-5" on="0"/>
        <pt x="489" y="1" on="0"/>
        <pt x="463" y="7" on="1"/>
      </contour>
      <contour>
        <pt x="611" y="125" on="1"/>
        <pt x="623" y="123" on="0"/>
        <pt x="662" y="120" on="0"/>
        <pt x="684" y="120" on="1"/>
        <pt x="714" y="120" on="0"/>
        <pt x="769" y="130" on="0"/>
        <pt x="810" y="155" on="0"/>
        <pt x="834" y="196" on="0"/>
        <pt x="834" y="227" on="1"/>
        <pt x="834" y="260" on="0"/>
        <pt x="809" y="300" on="0"/>
        <pt x="767" y="322" on="0"/>
        <pt x="713" y="329" on="0"/>
        <pt x="684" y="329" on="1"/>
        <pt x="676" y="329" on="0"/>
        <pt x="655" y="327" on="0"/>
        <pt x="633" y="325" on="0"/>
        <pt x="615" y="322" on="0"/>
        <pt x="611" y="321" on="1"/>
      </contour>
    </TTGlyph>
    <TTGlyph name="afii10059" xMin="65" yMin="-10" xMax="1021" yMax="700">
      <contour>
        <pt x="493" y="301" on="1"/>
        <pt x="213" y="301" on="1"/>
        <pt x="213" y="0" on="1"/>
        <pt x="65" y="0" on="1"/>
        <pt x="65" y="700" on="1"/>
        <pt x="213" y="700" on="1"/>
        <pt x="213" y="431" on="1"/>
        <pt x="493" y="431" on="1"/>
        <pt x="493" y="700" on="1"/>
        <pt x="641" y="700" on="1"/>
        <pt x="641" y="440" on="1"/>
        <pt x="647" y="441" on="0"/>
        <pt x="670" y="444" on="0"/>
        <pt x="699" y="446" on="0"/>
        <pt x="730" y="448" on="0"/>
        <pt x="743" y="448" on="1"/>
        <pt x="797" y="448" on="0"/>
        <pt x="897" y="429" on="0"/>
        <pt x="975" y="380" on="0"/>
        <pt x="1021" y="293" on="0"/>
        <pt x="1021" y="226" on="1"/>
        <pt x="1021" y="106" on="0"/>
        <pt x="858" y="-10" on="0"/>
        <pt x="707" y="-10" on="1"/>
        <pt x="692" y="-10" on="0"/>
        <pt x="640" y="-8" on="0"/>
        <pt x="580" y="-5" on="0"/>
        <pt x="518" y="0" on="0"/>
        <pt x="493" y="3" on="1"/>
      </contour>
      <contour>
        <pt x="641" y="125" on="1"/>
        <pt x="653" y="123" on="0"/>
        <pt x="692" y="120" on="0"/>
        <pt x="714" y="120" on="1"/>
        <pt x="748" y="120" on="0"/>
        <pt x="804" y="129" on="0"/>
        <pt x="843" y="151" on="0"/>
        <pt x="864" y="190" on="0"/>
        <pt x="864" y="220" on="1"/>
        <pt x="864" y="251" on="0"/>
        <pt x="842" y="289" on="0"/>
        <pt x="803" y="310" on="0"/>
        <pt x="747" y="318" on="0"/>
        <pt x="714" y="318" on="1"/>
        <pt x="706" y="318" on="0"/>
        <pt x="685" y="316" on="0"/>
        <pt x="663" y="314" on="0"/>
        <pt x="645" y="310" on="0"/>
        <pt x="641" y="309" on="1"/>
      </contour>
    </TTGlyph>
    <TTGlyph name="afii10060" xMin="12" yMin="0" xMax="778" yMax="700">
      <contour>
        <pt x="382" y="0" on="1"/>
        <pt x="234" y="0" on="1"/>
        <pt x="234" y="570" on="1"/>
        <pt x="12" y="570" on="1"/>
        <pt x="12" y="700" on="1"/>
        <pt x="606" y="700" on="1"/>
        <pt x="606" y="570" on="1"/>
        <pt x="382" y="570" on="1"/>
        <pt x="382" y="401" on="1"/>
        <pt x="409" y="417" on="0"/>
        <pt x="505" y="442" on="0"/>
        <pt x="570" y="442" on="1"/>
        <pt x="615" y="442" on="0"/>
        <pt x="691" y="420" on="0"/>
        <pt x="746" y="374" on="0"/>
        <pt x="778" y="300" on="0"/>
        <pt x="778" y="249" on="1"/>
        <pt x="778" y="0" on="1"/>
        <pt x="630" y="0" on="1"/>
        <pt x="630" y="200" on="1"/>
        <pt x="630" y="258" on="0"/>
        <pt x="578" y="318" on="0"/>
        <pt x="520" y="318" on="1"/>
        <pt x="478" y="318" on="0"/>
        <pt x="403" y="301" on="0"/>
        <pt x="382" y="284" on="1"/>
      </contour>
    </TTGlyph>
    <TTGlyph name="afii10061" xMin="65" yMin="0" xMax="661" yMax="870">
      <component glyphName="K" x="0" y="0" flags="0x204"/>
      <component glyphName="uniF6C9" x="169" y="0" flags="0x4"/>
    </TTGlyph>
    <TTGlyph name="afii10062" xMin="-10" yMin="-7" xMax="633" yMax="875">
      <component glyphName="afii10037" x="0" y="0" flags="0x204"/>
      <component glyphName="uniF6D1" x="50" y="0" flags="0x4"/>
    </TTGlyph>
    <TTGlyph name="afii10065" xMin="30" yMin="-8" xMax="519" yMax="535">
      <component glyphName="a" x="0" y="0" flags="0x204"/>
    </TTGlyph>
    <TTGlyph name="afii10066" xMin="42" yMin="-15" xMax="574" yMax="731">
      <contour>
        <pt x="165" y="414" on="1"/>
        <pt x="199" y="459" on="0"/>
        <pt x="288" y="501" on="0"/>
        <pt x="351" y="501" on="1"/>
        <pt x="454" y="501" on="0"/>
        <pt x="574" y="389" on="0"/>
        <pt x="574" y="269" on="1"/>
        <pt x="574" y="129" on="0"/>
        <pt x="437" y="-15" on="0"/>
        <pt x="311" y="-15" on="1"/>
        <pt x="179" y="-15" on="0"/>
        <pt x="42" y="145" on="0"/>
        <pt x="42" y="314" on="1"/>
        <pt x="42" y="404" on="0"/>
        <pt x="65" y="529" on="0"/>
        <pt x="106" y="612" on="0"/>
        <pt x="164" y="659" on="0"/>
        <pt x="235" y="684" on="0"/>
        <pt x="317" y="693" on="0"/>
        <pt x="362" y="697" on="1"/>
        <pt x="419" y="702" on="0"/>
        <pt x="502" y="715" on="0"/>
        <pt x="524" y="731" on="1"/>
        <pt x="529" y="610" on="1"/>
        <pt x="506" y="593" on="0"/>
        <pt x="424" y="582" on="0"/>
        <pt x="351" y="577" on="1"/>
        <pt x="307" y="574" on="0"/>
        <pt x="239" y="566" on="0"/>
        <pt x="189" y="535" on="0"/>
        <pt x="159" y="471" on="0"/>
        <pt x="152" y="413" on="1"/>
        <pt x="161" y="413" on="1"/>
      </contour>
      <contour>
        <pt x="186" y="251" on="1"/>
        <pt x="186" y="219" on="0"/>
        <pt x="201" y="165" on="0"/>
        <pt x="231" y="125" on="0"/>
        <pt x="277" y="102" on="0"/>
        <pt x="308" y="102" on="1"/>
        <pt x="374" y="102" on="0"/>
        <pt x="430" y="180" on="0"/>
        <pt x="430" y="250" on="1"/>
        <pt x="430" y="316" on="0"/>
        <pt x="377" y="384" on="0"/>
        <pt x="315" y="384" on="1"/>
        <pt x="249" y="384" on="0"/>
        <pt x="186" y="313" on="0"/>
      </contour>
    </TTGlyph>
    <TTGlyph name="afii10067" xMin="72" yMin="-9" xMax="541" yMax="534">
      <contour>
        <pt x="72" y="525" on="1"/>
        <pt x="113" y="528" on="0"/>
        <pt x="223" y="534" on="0"/>
        <pt x="289" y="534" on="1"/>
        <pt x="413" y="534" on="0"/>
        <pt x="517" y="468" on="0"/>
        <pt x="517" y="403" on="1"/>
        <pt x="517" y="366" on="0"/>
        <pt x="471" y="298" on="0"/>
        <pt x="422" y="281" on="1"/>
        <pt x="422" y="273" on="1"/>
        <pt x="484" y="260" on="0"/>
        <pt x="541" y="197" on="0"/>
        <pt x="541" y="147" on="1"/>
        <pt x="541" y="69" on="0"/>
        <pt x="409" y="-9" on="0"/>
        <pt x="265" y="-9" on="1"/>
        <pt x="218" y="-9" on="0"/>
        <pt x="113" y="-4" on="0"/>
        <pt x="72" y="0" on="1"/>
      </contour>
      <contour>
        <pt x="209" y="107" on="1"/>
        <pt x="229" y="103" on="0"/>
        <pt x="258" y="101" on="0"/>
        <pt x="278" y="101" on="1"/>
        <pt x="346" y="101" on="0"/>
        <pt x="399" y="134" on="0"/>
        <pt x="399" y="165" on="1"/>
        <pt x="399" y="193" on="0"/>
        <pt x="353" y="228" on="0"/>
        <pt x="292" y="228" on="1"/>
        <pt x="209" y="228" on="1"/>
      </contour>
      <contour>
        <pt x="294" y="311" on="1"/>
        <pt x="334" y="311" on="0"/>
        <pt x="384" y="342" on="0"/>
        <pt x="384" y="367" on="1"/>
        <pt x="384" y="394" on="0"/>
        <pt x="341" y="424" on="0"/>
        <pt x="285" y="424" on="1"/>
        <pt x="265" y="424" on="0"/>
        <pt x="239" y="422" on="0"/>
        <pt x="228" y="421" on="1"/>
        <pt x="224" y="421" on="0"/>
        <pt x="212" y="420" on="0"/>
        <pt x="209" y="420" on="1"/>
        <pt x="209" y="311" on="1"/>
      </contour>
    </TTGlyph>
    <TTGlyph name="afii10068" xMin="72" yMin="0" xMax="438" yMax="525">
      <contour>
        <pt x="438" y="401" on="1"/>
        <pt x="220" y="401" on="1"/>
        <pt x="220" y="0" on="1"/>
        <pt x="72" y="0" on="1"/>
        <pt x="72" y="525" on="1"/>
        <pt x="438" y="525" on="1"/>
      </contour>
    </TTGlyph>
    <TTGlyph name="afii10069" xMin="0" yMin="-119" xMax="631" yMax="525">
      <contour>
        <pt x="631" y="-119" on="1"/>
        <pt x="533" y="-119" on="1"/>
        <pt x="515" y="0" on="1"/>
        <pt x="117" y="0" on="1"/>
        <pt x="98" y="-119" on="1"/>
        <pt x="0" y="-119" on="1"/>
        <pt x="0" y="124" on="1"/>
        <pt x="66" y="124" on="1"/>
        <pt x="75" y="136" on="0"/>
        <pt x="106" y="192" on="0"/>
        <pt x="135" y="288" on="0"/>
        <pt x="156" y="429" on="0"/>
        <pt x="157" y="525" on="1"/>
        <pt x="547" y="525" on="1"/>
        <pt x="547" y="124" on="1"/>
        <pt x="631" y="124" on="1"/>
      </contour>
      <contour>
        <pt x="407" y="117" on="1"/>
        <pt x="407" y="408" on="1"/>
        <pt x="276" y="408" on="1"/>
        <pt x="274" y="369" on="0"/>
        <pt x="262" y="285" on="0"/>
        <pt x="244" y="207" on="0"/>
        <pt x="220" y="139" on="0"/>
        <pt x="206" y="117" on="1"/>
      </contour>
    </TTGlyph>
    <TTGlyph name="afii10070" xMin="42" yMin="-15" xMax="540" yMax="540">
      <component glyphName="e" x="0" y="0" flags="0x204"/>
    </TTGlyph>
    <TTGlyph name="afii10071" xMin="42" yMin="-15" xMax="540" yMax="724">
      <component glyphName="e" x="0" y="0" flags="0x204"/>
      <component glyphName="dieresis" x="34" y="-10" flags="0x4"/>
    </TTGlyph>
    <TTGlyph name="afii10072" xMin="6" yMin="0" xMax="804" yMax="525">
      <contour>
        <pt x="282" y="214" on="1"/>
        <pt x="165" y="0" on="1"/>
        <pt x="6" y="0" on="1"/>
        <pt x="154" y="238" on="1"/>
        <pt x="153" y="238" on="1"/>
        <pt x="195" y="272" on="1"/>
        <pt x="134" y="315" on="1"/>
        <pt x="16" y="525" on="1"/>
        <pt x="169" y="525" on="1"/>
        <pt x="276" y="312" on="1"/>
        <pt x="334" y="312" on="1"/>
        <pt x="334" y="525" on="1"/>
        <pt x="466" y="525" on="1"/>
        <pt x="466" y="298" on="1"/>
        <pt x="518" y="316" on="1"/>
        <pt x="544" y="369" on="0"/>
        <pt x="600" y="472" on="0"/>
        <pt x="626" y="525" on="1"/>
        <pt x="777" y="525" on="1"/>
        <pt x="745" y="471" on="0"/>
        <pt x="685" y="369" on="0"/>
        <pt x="653" y="315" on="1"/>
        <pt x="654" y="315" on="1"/>
        <pt x="607" y="278" on="1"/>
        <pt x="668" y="234" on="1"/>
        <pt x="667" y="234" on="1"/>
        <pt x="804" y="0" on="1"/>
        <pt x="642" y="0" on="1"/>
        <pt x="524" y="218" on="1"/>
        <pt x="466" y="218" on="1"/>
        <pt x="466" y="0" on="1"/>
        <pt x="334" y="0" on="1"/>
        <pt x="334" y="231" on="1"/>
      </contour>
    </TTGlyph>
    <TTGlyph name="afii10073" xMin="24" yMin="-13" xMax="450" yMax="535">
      <contour>
        <pt x="125" y="218" on="1"/>
        <pt x="125" y="312" on="1"/>
        <pt x="190" y="312" on="1"/>
        <pt x="235" y="312" on="0"/>
        <pt x="287" y="341" on="0"/>
        <pt x="287" y="366" on="1"/>
        <pt x="287" y="395" on="0"/>
        <pt x="241" y="418" on="0"/>
        <pt x="192" y="418" on="1"/>
        <pt x="149" y="418" on="0"/>
        <pt x="78" y="397" on="0"/>
        <pt x="55" y="386" on="1"/>
        <pt x="47" y="413" on="0"/>
        <pt x="36" y="462" on="0"/>
        <pt x="28" y="489" on="1"/>
        <pt x="61" y="509" on="0"/>
        <pt x="173" y="535" on="0"/>
        <pt x="236" y="535" on="1"/>
        <pt x="333" y="535" on="0"/>
        <pt x="428" y="468" on="0"/>
        <pt x="428" y="405" on="1"/>
        <pt x="428" y="387" on="0"/>
        <pt x="417" y="351" on="0"/>
        <pt x="395" y="318" on="0"/>
        <pt x="361" y="291" on="0"/>
        <pt x="338" y="283" on="1"/>
        <pt x="338" y="275" on="1"/>
        <pt x="400" y="262" on="0"/>
        <pt x="450" y="199" on="0"/>
        <pt x="450" y="146" on="1"/>
        <pt x="450" y="113" on="0"/>
        <pt x="421" y="56" on="0"/>
        <pt x="361" y="12" on="0"/>
        <pt x="270" y="-13" on="0"/>
        <pt x="208" y="-13" on="1"/>
        <pt x="148" y="-13" on="0"/>
        <pt x="54" y="13" on="0"/>
        <pt x="24" y="29" on="1"/>
        <pt x="31" y="56" on="0"/>
        <pt x="47" y="110" on="0"/>
        <pt x="55" y="137" on="1"/>
        <pt x="82" y="123" on="0"/>
        <pt x="159" y="104" on="0"/>
        <pt x="204" y="104" on="1"/>
        <pt x="310" y="104" on="0"/>
        <pt x="310" y="165" on="1"/>
        <pt x="310" y="179" on="0"/>
        <pt x="297" y="199" on="0"/>
        <pt x="267" y="212" on="0"/>
        <pt x="216" y="218" on="0"/>
        <pt x="177" y="218" on="1"/>
      </contour>
    </TTGlyph>
    <TTGlyph name="afii10074" xMin="72" yMin="0" xMax="560" yMax="525">
      <contour>
        <pt x="420" y="237" on="1"/>
        <pt x="426" y="326" on="1"/>
        <pt x="363" y="238" on="1"/>
        <pt x="156" y="0" on="1"/>
        <pt x="72" y="0" on="1"/>
        <pt x="72" y="525" on="1"/>
        <pt x="212" y="525" on="1"/>
        <pt x="212" y="278" on="1"/>
        <pt x="207" y="206" on="1"/>
        <pt x="219" y="206" on="1"/>
        <pt x="231" y="223" on="0"/>
        <pt x="256" y="261" on="0"/>
        <pt x="268" y="278" on="1"/>
        <pt x="476" y="525" on="1"/>
        <pt x="560" y="525" on="1"/>
        <pt x="560" y="0" on="1"/>
        <pt x="420" y="0" on="1"/>
      </contour>
    </TTGlyph>
    <TTGlyph name="afii10075" xMin="72" yMin="0" xMax="560" yMax="742">
      <component glyphName="afii10074" x="0" y="0" flags="0x204"/>
      <component glyphName="uniF6D4" x="66" y="0" flags="0x4"/>
    </TTGlyph>
    <TTGlyph name="afii10076" xMin="72" yMin="0" xMax="564" yMax="525">
      <contour>
        <pt x="261" y="218" on="1"/>
        <pt x="212" y="218" on="1"/>
        <pt x="212" y="0" on="1"/>
        <pt x="72" y="0" on="1"/>
        <pt x="72" y="525" on="1"/>
        <pt x="212" y="525" on="1"/>
        <pt x="212" y="298" on="1"/>
        <pt x="257" y="317" on="1"/>
        <pt x="391" y="525" on="1"/>
        <pt x="542" y="525" on="1"/>
        <pt x="507" y="477" on="0"/>
        <pt x="440" y="380" on="0"/>
        <pt x="406" y="332" on="1"/>
        <pt x="340" y="288" on="1"/>
        <pt x="410" y="245" on="1"/>
        <pt x="448" y="183" on="0"/>
        <pt x="526" y="62" on="0"/>
        <pt x="564" y="0" on="1"/>
        <pt x="402" y="0" on="1"/>
      </contour>
    </TTGlyph>
    <TTGlyph name="afii10077" xMin="-12" yMin="-6" xMax="527" yMax="525">
      <contour>
        <pt x="387" y="401" on="1"/>
        <pt x="264" y="401" on="1"/>
        <pt x="261" y="317" on="0"/>
        <pt x="242" y="169" on="0"/>
        <pt x="200" y="58" on="0"/>
        <pt x="131" y="-6" on="0"/>
        <pt x="77" y="-6" on="1"/>
        <pt x="14" y="-6" on="0"/>
        <pt x="-12" y="8" on="1"/>
        <pt x="8" y="132" on="1"/>
        <pt x="25" y="127" on="0"/>
        <pt x="39" y="127" on="1"/>
        <pt x="63" y="127" on="0"/>
        <pt x="99" y="161" on="0"/>
        <pt x="123" y="250" on="0"/>
        <pt x="138" y="404" on="0"/>
        <pt x="142" y="525" on="1"/>
        <pt x="527" y="525" on="1"/>
        <pt x="527" y="0" on="1"/>
        <pt x="387" y="0" on="1"/>
      </contour>
    </TTGlyph>
    <TTGlyph name="afii10078" xMin="72" yMin="0" xMax="700" yMax="525">
      <contour>
        <pt x="567" y="233" on="1"/>
        <pt x="577" y="347" on="1"/>
        <pt x="561" y="347" on="1"/>
        <pt x="514" y="257" on="1"/>
        <pt x="514" y="258" on="1"/>
        <pt x="408" y="95" on="1"/>
        <pt x="359" y="95" on="1"/>
        <pt x="242" y="258" on="1"/>
        <pt x="242" y="257" on="1"/>
        <pt x="195" y="347" on="1"/>
        <pt x="181" y="347" on="1"/>
        <pt x="196" y="234" on="1"/>
        <pt x="196" y="0" on="1"/>
        <pt x="72" y="0" on="1"/>
        <pt x="72" y="525" on="1"/>
        <pt x="219" y="525" on="1"/>
        <pt x="350" y="329" on="1"/>
        <pt x="350" y="330" on="1"/>
        <pt x="385" y="263" on="1"/>
        <pt x="396" y="263" on="1"/>
        <pt x="431" y="332" on="1"/>
        <pt x="431" y="331" on="1"/>
        <pt x="553" y="525" on="1"/>
        <pt x="700" y="525" on="1"/>
        <pt x="700" y="0" on="1"/>
        <pt x="567" y="0" on="1"/>
      </contour>
    </TTGlyph>
    <TTGlyph name="afii10079" xMin="72" yMin="0" xMax="551" yMax="525">
      <contour>
        <pt x="411" y="203" on="1"/>
        <pt x="212" y="203" on="1"/>
        <pt x="212" y="0" on="1"/>
        <pt x="72" y="0" on="1"/>
        <pt x="72" y="525" on="1"/>
        <pt x="212" y="525" on="1"/>
        <pt x="212" y="330" on="1"/>
        <pt x="411" y="330" on="1"/>
        <pt x="411" y="525" on="1"/>
        <pt x="551" y="525" on="1"/>
        <pt x="551" y="0" on="1"/>
        <pt x="411" y="0" on="1"/>
      </contour>
    </TTGlyph>
    <TTGlyph name="afii10080" xMin="42" yMin="-15" xMax="574" yMax="540">
      <component glyphName="o" x="0" y="0" flags="0x204"/>
    </TTGlyph>
    <TTGlyph name="afii10081" xMin="72" yMin="0" xMax="545" yMax="525">
      <contour>
        <pt x="405" y="401" on="1"/>
        <pt x="212" y="401" on="1"/>
        <pt x="212" y="0" on="1"/>
        <pt x="72" y="0" on="1"/>
        <pt x="72" y="525" on="1"/>
        <pt x="545" y="525" on="1"/>
        <pt x="545" y="0" on="1"/>
        <pt x="405" y="0" on="1"/>
      </contour>
    </TTGlyph>
    <TTGlyph name="afii10082" xMin="72" yMin="-199" xMax="581" yMax="540">
      <component glyphName="p" x="0" y="0" flags="0x204"/>
    </TTGlyph>
    <TTGlyph name="afii10083" xMin="42" yMin="-15" xMax="468" yMax="540">
      <component glyphName="c" x="0" y="0" flags="0x204"/>
    </TTGlyph>
    <TTGlyph name="afii10084" xMin="8" yMin="0" xMax="480" yMax="525">
      <contour>
        <pt x="480" y="401" on="1"/>
        <pt x="317" y="401" on="1"/>
        <pt x="317" y="0" on="1"/>
        <pt x="171" y="0" on="1"/>
        <pt x="171" y="401" on="1"/>
        <pt x="8" y="401" on="1"/>
        <pt x="8" y="525" on="1"/>
        <pt x="480" y="525" on="1"/>
      </contour>
    </TTGlyph>
    <TTGlyph name="afii10085" xMin="-12" yMin="-204" xMax="547" yMax="525">
      <component glyphName="y" x="0" y="0" flags="0x204"/>
    </TTGlyph>
    <TTGlyph name="afii10086" xMin="36" yMin="-200" xMax="769" yMax="700">
      <contour>
        <pt x="335" y="-4" on="1"/>
        <pt x="309" y="-12" on="0"/>
        <pt x="267" y="-15" on="0"/>
        <pt x="250" y="-15" on="1"/>
        <pt x="146" y="-15" on="0"/>
        <pt x="36" y="122" on="0"/>
        <pt x="36" y="262" on="1"/>
        <pt x="36" y="395" on="0"/>
        <pt x="158" y="535" on="0"/>
        <pt x="273" y="535" on="1"/>
        <pt x="287" y="535" on="0"/>
        <pt x="317" y="533" on="0"/>
        <pt x="335" y="530" on="1"/>
        <pt x="335" y="700" on="1"/>
        <pt x="470" y="700" on="1"/>
        <pt x="470" y="529" on="1"/>
        <pt x="496" y="533" on="0"/>
        <pt x="531" y="535" on="0"/>
        <pt x="545" y="535" on="1"/>
        <pt x="657" y="535" on="0"/>
        <pt x="769" y="413" on="0"/>
        <pt x="769" y="273" on="1"/>
        <pt x="769" y="208" on="0"/>
        <pt x="739" y="101" on="0"/>
        <pt x="681" y="26" on="0"/>
        <pt x="595" y="-15" on="0"/>
        <pt x="539" y="-15" on="1"/>
        <pt x="529" y="-15" on="0"/>
        <pt x="486" y="-10" on="0"/>
        <pt x="470" y="-5" on="1"/>
        <pt x="470" y="-200" on="1"/>
        <pt x="335" y="-200" on="1"/>
      </contour>
      <contour>
        <pt x="464" y="99" on="1"/>
        <pt x="477" y="96" on="0"/>
        <pt x="502" y="95" on="0"/>
        <pt x="518" y="95" on="1"/>
        <pt x="575" y="95" on="0"/>
        <pt x="629" y="178" on="0"/>
        <pt x="629" y="273" on="1"/>
        <pt x="629" y="354" on="0"/>
        <pt x="577" y="426" on="0"/>
        <pt x="512" y="426" on="1"/>
        <pt x="499" y="426" on="0"/>
        <pt x="478" y="423" on="0"/>
        <pt x="464" y="419" on="1"/>
      </contour>
      <contour>
        <pt x="341" y="420" on="1"/>
        <pt x="324" y="424" on="0"/>
        <pt x="304" y="426" on="0"/>
        <pt x="290" y="426" on="1"/>
        <pt x="234" y="426" on="0"/>
        <pt x="176" y="351" on="0"/>
        <pt x="176" y="262" on="1"/>
        <pt x="176" y="184" on="0"/>
        <pt x="230" y="95" on="0"/>
        <pt x="287" y="95" on="1"/>
        <pt x="312" y="95" on="0"/>
        <pt x="341" y="102" on="1"/>
      </contour>
    </TTGlyph>
    <TTGlyph name="afii10087" xMin="6" yMin="0" xMax="581" yMax="525">
      <component glyphName="x" x="0" y="0" flags="0x204"/>
    </TTGlyph>
    <TTGlyph name="afii10088" xMin="72" yMin="-119" xMax="625" yMax="525">
      <contour>
        <pt x="625" y="-119" on="1"/>
        <pt x="526" y="-119" on="1"/>
        <pt x="509" y="0" on="1"/>
        <pt x="72" y="0" on="1"/>
        <pt x="72" y="525" on="1"/>
        <pt x="212" y="525" on="1"/>
        <pt x="212" y="124" on="1"/>
        <pt x="401" y="124" on="1"/>
        <pt x="401" y="525" on="1"/>
        <pt x="541" y="525" on="1"/>
        <pt x="541" y="124" on="1"/>
        <pt x="625" y="124" on="1"/>
      </contour>
    </TTGlyph>
    <TTGlyph name="afii10089" xMin="42" yMin="0" xMax="510" yMax="525">
      <contour>
        <pt x="182" y="525" on="1"/>
        <pt x="182" y="422" on="1"/>
        <pt x="182" y="384" on="0"/>
        <pt x="189" y="331" on="0"/>
        <pt x="207" y="297" on="0"/>
        <pt x="241" y="282" on="0"/>
        <pt x="268" y="282" on="1"/>
        <pt x="301" y="282" on="0"/>
        <pt x="353" y="299" on="0"/>
        <pt x="370" y="311" on="1"/>
        <pt x="370" y="525" on="1"/>
        <pt x="510" y="525" on="1"/>
        <pt x="510" y="0" on="1"/>
        <pt x="370" y="0" on="1"/>
        <pt x="370" y="214" on="1"/>
        <pt x="359" y="207" on="0"/>
        <pt x="331" y="190" on="0"/>
        <pt x="293" y="175" on="0"/>
        <pt x="245" y="165" on="0"/>
        <pt x="216" y="165" on="1"/>
        <pt x="175" y="165" on="0"/>
        <pt x="110" y="182" on="0"/>
        <pt x="65" y="225" on="0"/>
        <pt x="42" y="296" on="0"/>
        <pt x="42" y="350" on="1"/>
        <pt x="42" y="525" on="1"/>
      </contour>
    </TTGlyph>
    <TTGlyph name="afii10090" xMin="72" yMin="0" xMax="804" yMax="525">
      <contour>
        <pt x="72" y="0" on="1"/>
        <pt x="72" y="525" on="1"/>
        <pt x="212" y="525" on="1"/>
        <pt x="212" y="124" on="1"/>
        <pt x="368" y="124" on="1"/>
        <pt x="368" y="525" on="1"/>
        <pt x="508" y="525" on="1"/>
        <pt x="508" y="124" on="1"/>
        <pt x="664" y="124" on="1"/>
        <pt x="664" y="525" on="1"/>
        <pt x="804" y="525" on="1"/>
        <pt x="804" y="0" on="1"/>
      </contour>
    </TTGlyph>
    <TTGlyph name="afii10091" xMin="72" yMin="-119" xMax="886" yMax="525">
      <contour>
        <pt x="886" y="-119" on="1"/>
        <pt x="788" y="-119" on="1"/>
        <pt x="769" y="0" on="1"/>
        <pt x="72" y="0" on="1"/>
        <pt x="72" y="525" on="1"/>
        <pt x="212" y="525" on="1"/>
        <pt x="212" y="124" on="1"/>
        <pt x="368" y="124" on="1"/>
        <pt x="368" y="525" on="1"/>
        <pt x="508" y="525" on="1"/>
        <pt x="508" y="124" on="1"/>
        <pt x="664" y="124" on="1"/>
        <pt x="664" y="525" on="1"/>
        <pt x="804" y="525" on="1"/>
        <pt x="804" y="124" on="1"/>
        <pt x="886" y="124" on="1"/>
      </contour>
    </TTGlyph>
    <TTGlyph name="afii10092" xMin="0" yMin="-7" xMax="594" yMax="525">
      <contour>
        <pt x="266" y="117" on="1"/>
        <pt x="286" y="113" on="0"/>
        <pt x="323" y="110" on="0"/>
        <pt x="339" y="110" on="1"/>
        <pt x="450" y="110" on="0"/>
        <pt x="450" y="182" on="1"/>
        <pt x="450" y="249" on="0"/>
        <pt x="342" y="249" on="1"/>
        <pt x="305" y="249" on="0"/>
        <pt x="266" y="240" on="1"/>
      </contour>
      <contour>
        <pt x="266" y="337" on="1"/>
        <pt x="297" y="342" on="0"/>
        <pt x="360" y="346" on="0"/>
        <pt x="382" y="346" on="1"/>
        <pt x="440" y="346" on="0"/>
        <pt x="521" y="321" on="0"/>
        <pt x="571" y="277" on="0"/>
        <pt x="594" y="217" on="0"/>
        <pt x="594" y="183" on="1"/>
        <pt x="594" y="88" on="0"/>
        <pt x="471" y="-7" on="0"/>
        <pt x="328" y="-7" on="1"/>
        <pt x="262" y="-7" on="0"/>
        <pt x="166" y="-4" on="0"/>
        <pt x="128" y="-1" on="1"/>
        <pt x="128" y="401" on="1"/>
        <pt x="0" y="401" on="1"/>
        <pt x="0" y="525" on="1"/>
        <pt x="266" y="525" on="1"/>
      </contour>
    </TTGlyph>
    <TTGlyph name="afii10093" xMin="72" yMin="-7" xMax="743" yMax="525">
      <contour>
        <pt x="212" y="117" on="1"/>
        <pt x="231" y="113" on="0"/>
        <pt x="268" y="110" on="0"/>
        <pt x="284" y="110" on="1"/>
        <pt x="338" y="110" on="0"/>
        <pt x="384" y="144" on="0"/>
        <pt x="384" y="182" on="1"/>
        <pt x="384" y="214" on="0"/>
        <pt x="338" y="249" on="0"/>
        <pt x="288" y="249" on="1"/>
        <pt x="246" y="249" on="0"/>
        <pt x="212" y="240" on="1"/>
      </contour>
      <contour>
        <pt x="212" y="337" on="1"/>
        <pt x="243" y="342" on="0"/>
        <pt x="304" y="346" on="0"/>
        <pt x="325" y="346" on="1"/>
        <pt x="382" y="346" on="0"/>
        <pt x="459" y="321" on="0"/>
        <pt x="507" y="277" on="0"/>
        <pt x="528" y="217" on="0"/>
        <pt x="528" y="183" on="1"/>
        <pt x="528" y="136" on="0"/>
        <pt x="501" y="65" on="0"/>
        <pt x="440" y="17" on="0"/>
        <pt x="343" y="-7" on="0"/>
        <pt x="273" y="-7" on="1"/>
        <pt x="207" y="-7" on="0"/>
        <pt x="112" y="-4" on="0"/>
        <pt x="72" y="-1" on="1"/>
        <pt x="72" y="525" on="1"/>
        <pt x="212" y="525" on="1"/>
      </contour>
      <contour>
        <pt x="603" y="525" on="1"/>
        <pt x="743" y="525" on="1"/>
        <pt x="743" y="0" on="1"/>
        <pt x="603" y="0" on="1"/>
      </contour>
    </TTGlyph>
    <TTGlyph name="afii10094" xMin="72" yMin="-7" xMax="539" yMax="525">
      <contour>
        <pt x="212" y="117" on="1"/>
        <pt x="231" y="113" on="0"/>
        <pt x="267" y="110" on="0"/>
        <pt x="283" y="110" on="1"/>
        <pt x="395" y="110" on="0"/>
        <pt x="395" y="182" on="1"/>
        <pt x="395" y="249" on="0"/>
        <pt x="287" y="249" on="1"/>
        <pt x="246" y="249" on="0"/>
        <pt x="212" y="240" on="1"/>
      </contour>
      <contour>
        <pt x="212" y="337" on="1"/>
        <pt x="242" y="342" on="0"/>
        <pt x="304" y="346" on="0"/>
        <pt x="325" y="346" on="1"/>
        <pt x="383" y="346" on="0"/>
        <pt x="465" y="321" on="0"/>
        <pt x="516" y="277" on="0"/>
        <pt x="539" y="217" on="0"/>
        <pt x="539" y="183" on="1"/>
        <pt x="539" y="136" on="0"/>
        <pt x="509" y="65" on="0"/>
        <pt x="445" y="17" on="0"/>
        <pt x="342" y="-7" on="0"/>
        <pt x="269" y="-7" on="1"/>
        <pt x="206" y="-7" on="0"/>
        <pt x="112" y="-4" on="0"/>
        <pt x="72" y="-1" on="1"/>
        <pt x="72" y="525" on="1"/>
        <pt x="212" y="525" on="1"/>
      </contour>
    </TTGlyph>
    <TTGlyph name="afii10095" xMin="30" yMin="-15" xMax="485" yMax="540">
      <contour>
        <pt x="129" y="315" on="1"/>
        <pt x="344" y="315" on="1"/>
        <pt x="337" y="367" on="0"/>
        <pt x="272" y="423" on="0"/>
        <pt x="206" y="423" on="1"/>
        <pt x="163" y="423" on="0"/>
        <pt x="97" y="403" on="0"/>
        <pt x="71" y="391" on="1"/>
        <pt x="33" y="491" on="1"/>
        <pt x="106" y="540" on="0"/>
        <pt x="234" y="540" on="1"/>
        <pt x="361" y="540" on="0"/>
        <pt x="485" y="399" on="0"/>
        <pt x="485" y="262" on="1"/>
        <pt x="485" y="124" on="0"/>
        <pt x="345" y="-15" on="0"/>
        <pt x="224" y="-15" on="1"/>
        <pt x="171" y="-15" on="0"/>
        <pt x="62" y="5" on="0"/>
        <pt x="30" y="25" on="1"/>
        <pt x="64" y="133" on="1"/>
        <pt x="91" y="119" on="0"/>
        <pt x="162" y="102" on="0"/>
        <pt x="198" y="102" on="1"/>
        <pt x="237" y="102" on="0"/>
        <pt x="291" y="116" on="0"/>
        <pt x="326" y="145" on="0"/>
        <pt x="343" y="188" on="0"/>
        <pt x="345" y="218" on="1"/>
        <pt x="129" y="218" on="1"/>
      </contour>
    </TTGlyph>
    <TTGlyph name="afii10096" xMin="72" yMin="-15" xMax="805" yMax="540">
      <contour>
        <pt x="556" y="-15" on="1"/>
        <pt x="493" y="-15" on="0"/>
        <pt x="404" y="17" on="0"/>
        <pt x="345" y="76" on="0"/>
        <pt x="315" y="160" on="0"/>
        <pt x="310" y="212" on="1"/>
        <pt x="212" y="212" on="1"/>
        <pt x="212" y="0" on="1"/>
        <pt x="72" y="0" on="1"/>
        <pt x="72" y="525" on="1"/>
        <pt x="212" y="525" on="1"/>
        <pt x="212" y="329" on="1"/>
        <pt x="312" y="329" on="1"/>
        <pt x="324" y="430" on="0"/>
        <pt x="440" y="540" on="0"/>
        <pt x="558" y="540" on="1"/>
        <pt x="623" y="540" on="0"/>
        <pt x="716" y="499" on="0"/>
        <pt x="776" y="425" on="0"/>
        <pt x="805" y="323" on="0"/>
        <pt x="805" y="262" on="1"/>
        <pt x="805" y="132" on="0"/>
        <pt x="682" y="-15" on="0"/>
      </contour>
      <contour>
        <pt x="444" y="262" on="1"/>
        <pt x="444" y="187" on="0"/>
        <pt x="493" y="102" on="0"/>
        <pt x="557" y="102" on="1"/>
        <pt x="584" y="102" on="0"/>
        <pt x="623" y="119" on="0"/>
        <pt x="649" y="157" on="0"/>
        <pt x="661" y="218" on="0"/>
        <pt x="661" y="262" on="1"/>
        <pt x="661" y="342" on="0"/>
        <pt x="615" y="423" on="0"/>
        <pt x="552" y="423" on="1"/>
        <pt x="498" y="423" on="0"/>
        <pt x="444" y="349" on="0"/>
      </contour>
    </TTGlyph>
    <TTGlyph name="afii10097" xMin="18" yMin="0" xMax="517" yMax="540">
      <contour>
        <pt x="377" y="179" on="1"/>
        <pt x="298" y="166" on="1"/>
        <pt x="189" y="0" on="1"/>
        <pt x="18" y="0" on="1"/>
        <pt x="131" y="161" on="1"/>
        <pt x="190" y="185" on="1"/>
        <pt x="151" y="189" on="0"/>
        <pt x="99" y="221" on="0"/>
        <pt x="67" y="268" on="0"/>
        <pt x="54" y="325" on="0"/>
        <pt x="54" y="355" on="1"/>
        <pt x="54" y="450" on="0"/>
        <pt x="191" y="540" on="0"/>
        <pt x="334" y="540" on="1"/>
        <pt x="385" y="540" on="0"/>
        <pt x="481" y="530" on="0"/>
        <pt x="517" y="524" on="1"/>
        <pt x="517" y="0" on="1"/>
        <pt x="377" y="0" on="1"/>
      </contour>
      <contour>
        <pt x="377" y="267" on="1"/>
        <pt x="377" y="412" on="1"/>
        <pt x="364" y="417" on="0"/>
        <pt x="330" y="423" on="0"/>
        <pt x="314" y="423" on="1"/>
        <pt x="258" y="423" on="0"/>
        <pt x="200" y="384" on="0"/>
        <pt x="200" y="342" on="1"/>
        <pt x="200" y="301" on="0"/>
        <pt x="265" y="265" on="0"/>
        <pt x="330" y="265" on="1"/>
      </contour>
    </TTGlyph>
    <TTGlyph name="afii10098" xMin="72" yMin="0" xMax="438" yMax="679">
      <contour>
        <pt x="438" y="401" on="1"/>
        <pt x="220" y="401" on="1"/>
        <pt x="220" y="0" on="1"/>
        <pt x="72" y="0" on="1"/>
        <pt x="72" y="525" on="1"/>
        <pt x="321" y="525" on="1"/>
        <pt x="343" y="679" on="1"/>
        <pt x="438" y="679" on="1"/>
      </contour>
    </TTGlyph>
    <TTGlyph name="afii10099" xMin="0" yMin="-207" xMax="573" yMax="738">
      <contour>
        <pt x="0" y="600" on="1"/>
        <pt x="79" y="600" on="1"/>
        <pt x="79" y="738" on="1"/>
        <pt x="219" y="738" on="1"/>
        <pt x="219" y="600" on="1"/>
        <pt x="397" y="600" on="1"/>
        <pt x="397" y="517" on="1"/>
        <pt x="219" y="517" on="1"/>
        <pt x="219" y="374" on="1"/>
        <pt x="232" y="374" on="1"/>
        <pt x="258" y="408" on="0"/>
        <pt x="340" y="452" on="0"/>
        <pt x="401" y="452" on="1"/>
        <pt x="444" y="452" on="0"/>
        <pt x="508" y="431" on="0"/>
        <pt x="551" y="379" on="0"/>
        <pt x="573" y="292" on="0"/>
        <pt x="573" y="226" on="1"/>
        <pt x="573" y="-14" on="1"/>
        <pt x="573" y="-108" on="0"/>
        <pt x="496" y="-207" on="0"/>
        <pt x="411" y="-207" on="1"/>
        <pt x="395" y="-207" on="0"/>
        <pt x="360" y="-204" on="0"/>
        <pt x="340" y="-200" on="1"/>
        <pt x="340" y="-83" on="1"/>
        <pt x="369" y="-86" on="0"/>
        <pt x="405" y="-76" on="0"/>
        <pt x="426" y="-53" on="0"/>
        <pt x="433" y="-19" on="0"/>
        <pt x="433" y="3" on="1"/>
        <pt x="433" y="198" on="1"/>
        <pt x="433" y="266" on="0"/>
        <pt x="392" y="328" on="0"/>
        <pt x="337" y="328" on="1"/>
        <pt x="297" y="328" on="0"/>
        <pt x="230" y="274" on="0"/>
        <pt x="219" y="232" on="1"/>
        <pt x="219" y="0" on="1"/>
        <pt x="79" y="0" on="1"/>
        <pt x="79" y="517" on="1"/>
        <pt x="0" y="517" on="1"/>
      </contour>
    </TTGlyph>
    <TTGlyph name="afii10100" xMin="72" yMin="0" xMax="438" yMax="729">
      <component glyphName="afii10068" x="0" y="0" flags="0x204"/>
      <component glyphName="acute" x="129" y="0" flags="0x4"/>
    </TTGlyph>
    <TTGlyph name="afii10101" xMin="42" yMin="-15" xMax="494" yMax="540">
      <contour>
        <pt x="494" y="29" on="1"/>
        <pt x="459" y="6" on="0"/>
        <pt x="357" y="-15" on="0"/>
        <pt x="306" y="-15" on="1"/>
        <pt x="238" y="-15" on="0"/>
        <pt x="138" y="25" on="0"/>
        <pt x="73" y="98" on="0"/>
        <pt x="42" y="200" on="0"/>
        <pt x="42" y="262" on="1"/>
        <pt x="42" y="328" on="0"/>
        <pt x="80" y="432" on="0"/>
        <pt x="151" y="503" on="0"/>
        <pt x="250" y="540" on="0"/>
        <pt x="311" y="540" on="1"/>
        <pt x="370" y="540" on="0"/>
        <pt x="454" y="520" on="0"/>
        <pt x="484" y="506" on="1"/>
        <pt x="476" y="477" on="0"/>
        <pt x="459" y="421" on="0"/>
        <pt x="451" y="392" on="1"/>
        <pt x="426" y="403" on="0"/>
        <pt x="367" y="416" on="0"/>
        <pt x="335" y="416" on="1"/>
        <pt x="280" y="416" on="0"/>
        <pt x="203" y="366" on="0"/>
        <pt x="190" y="312" on="1"/>
        <pt x="413" y="312" on="1"/>
        <pt x="413" y="220" on="1"/>
        <pt x="190" y="220" on="1"/>
        <pt x="200" y="172" on="0"/>
        <pt x="273" y="109" on="0"/>
        <pt x="343" y="109" on="1"/>
        <pt x="383" y="109" on="0"/>
        <pt x="439" y="126" on="0"/>
        <pt x="459" y="140" on="1"/>
      </contour>
    </TTGlyph>
    <TTGlyph name="afii10102" xMin="36" yMin="-15" xMax="447" yMax="540">
      <component glyphName="s" x="0" y="0" flags="0x204"/>
    </TTGlyph>
    <TTGlyph name="afii10103" xMin="68" yMin="0" xMax="249" yMax="692">
      <component glyphName="dotlessi" x="0" y="0" flags="0x204"/>
      <component glyphName="dotaccent" x="0" y="-39" flags="0x4"/>
    </TTGlyph>
    <TTGlyph name="afii10103.alt" xMin="89" yMin="0" xMax="229" yMax="525">
      <component glyphName="dotlessi" x="0" y="0" flags="0x204"/>
    </TTGlyph>
    <TTGlyph name="afii10104" xMin="30" yMin="0" xMax="341" yMax="721">
      <contour>
        <pt x="30" y="648" on="1"/>
        <pt x="30" y="680" on="0"/>
        <pt x="63" y="721" on="0"/>
        <pt x="100" y="721" on="1"/>
        <pt x="135" y="721" on="0"/>
        <pt x="167" y="680" on="0"/>
        <pt x="167" y="648" on="1"/>
        <pt x="167" y="617" on="0"/>
        <pt x="135" y="574" on="0"/>
        <pt x="100" y="574" on="1"/>
        <pt x="63" y="574" on="0"/>
        <pt x="30" y="617" on="0"/>
      </contour>
      <contour>
        <pt x="205" y="648" on="1"/>
        <pt x="205" y="680" on="0"/>
        <pt x="238" y="721" on="0"/>
        <pt x="273" y="721" on="1"/>
        <pt x="308" y="721" on="0"/>
        <pt x="341" y="680" on="0"/>
        <pt x="341" y="648" on="1"/>
        <pt x="341" y="617" on="0"/>
        <pt x="308" y="574" on="0"/>
        <pt x="273" y="574" on="1"/>
        <pt x="238" y="574" on="0"/>
        <pt x="205" y="617" on="0"/>
      </contour>
      <contour>
        <pt x="113" y="525" on="1"/>
        <pt x="253" y="525" on="1"/>
        <pt x="253" y="0" on="1"/>
        <pt x="113" y="0" on="1"/>
      </contour>
    </TTGlyph>
    <TTGlyph name="afii10105" xMin="-6" yMin="-221" xMax="249" yMax="692">
      <component glyphName="uni0237" x="0" y="0" flags="0x204"/>
      <component glyphName="dotaccent" x="0" y="-39" flags="0x4"/>
    </TTGlyph>
    <TTGlyph name="afii10106" xMin="-12" yMin="-7" xMax="854" yMax="525">
      <contour>
        <pt x="527" y="337" on="1"/>
        <pt x="557" y="342" on="0"/>
        <pt x="619" y="346" on="0"/>
        <pt x="640" y="346" on="1"/>
        <pt x="698" y="346" on="0"/>
        <pt x="780" y="321" on="0"/>
        <pt x="831" y="277" on="0"/>
        <pt x="854" y="217" on="0"/>
        <pt x="854" y="183" on="1"/>
        <pt x="854" y="136" on="0"/>
        <pt x="824" y="65" on="0"/>
        <pt x="760" y="17" on="0"/>
        <pt x="657" y="-7" on="0"/>
        <pt x="584" y="-7" on="1"/>
        <pt x="521" y="-7" on="0"/>
        <pt x="427" y="-4" on="0"/>
        <pt x="387" y="-1" on="1"/>
        <pt x="387" y="401" on="1"/>
        <pt x="264" y="401" on="1"/>
        <pt x="261" y="317" on="0"/>
        <pt x="242" y="169" on="0"/>
        <pt x="200" y="58" on="0"/>
        <pt x="131" y="-6" on="0"/>
        <pt x="77" y="-6" on="1"/>
        <pt x="14" y="-6" on="0"/>
        <pt x="-12" y="8" on="1"/>
        <pt x="8" y="132" on="1"/>
        <pt x="25" y="127" on="0"/>
        <pt x="39" y="127" on="1"/>
        <pt x="63" y="127" on="0"/>
        <pt x="99" y="161" on="0"/>
        <pt x="123" y="250" on="0"/>
        <pt x="138" y="404" on="0"/>
        <pt x="142" y="525" on="1"/>
        <pt x="527" y="525" on="1"/>
      </contour>
      <contour>
        <pt x="527" y="117" on="1"/>
        <pt x="546" y="113" on="0"/>
        <pt x="582" y="110" on="0"/>
        <pt x="598" y="110" on="1"/>
        <pt x="710" y="110" on="0"/>
        <pt x="710" y="182" on="1"/>
        <pt x="710" y="249" on="0"/>
        <pt x="602" y="249" on="1"/>
        <pt x="561" y="249" on="0"/>
        <pt x="527" y="240" on="1"/>
      </contour>
    </TTGlyph>
    <TTGlyph name="afii10107" xMin="72" yMin="-7" xMax="878" yMax="525">
      <contour>
        <pt x="551" y="117" on="1"/>
        <pt x="570" y="113" on="0"/>
        <pt x="606" y="110" on="0"/>
        <pt x="622" y="110" on="1"/>
        <pt x="680" y="110" on="0"/>
        <pt x="734" y="144" on="0"/>
        <pt x="734" y="181" on="1"/>
        <pt x="734" y="213" on="0"/>
        <pt x="682" y="249" on="0"/>
        <pt x="626" y="249" on="1"/>
        <pt x="585" y="249" on="0"/>
        <pt x="551" y="239" on="1"/>
      </contour>
      <contour>
        <pt x="551" y="337" on="1"/>
        <pt x="583" y="342" on="0"/>
        <pt x="644" y="346" on="0"/>
        <pt x="664" y="346" on="1"/>
        <pt x="722" y="346" on="0"/>
        <pt x="804" y="321" on="0"/>
        <pt x="855" y="277" on="0"/>
        <pt x="878" y="217" on="0"/>
        <pt x="878" y="182" on="1"/>
        <pt x="878" y="135" on="0"/>
        <pt x="848" y="64" on="0"/>
        <pt x="784" y="17" on="0"/>
        <pt x="682" y="-7" on="0"/>
        <pt x="609" y="-7" on="1"/>
        <pt x="545" y="-7" on="0"/>
        <pt x="450" y="-3" on="0"/>
        <pt x="411" y="0" on="1"/>
        <pt x="411" y="206" on="1"/>
        <pt x="212" y="206" on="1"/>
        <pt x="212" y="0" on="1"/>
        <pt x="72" y="0" on="1"/>
        <pt x="72" y="525" on="1"/>
        <pt x="212" y="525" on="1"/>
        <pt x="212" y="332" on="1"/>
        <pt x="411" y="332" on="1"/>
        <pt x="411" y="525" on="1"/>
        <pt x="551" y="525" on="1"/>
      </contour>
    </TTGlyph>
    <TTGlyph name="afii10108" xMin="0" yMin="0" xMax="583" yMax="738">
      <contour>
        <pt x="0" y="600" on="1"/>
        <pt x="89" y="600" on="1"/>
        <pt x="89" y="738" on="1"/>
        <pt x="229" y="738" on="1"/>
        <pt x="229" y="600" on="1"/>
        <pt x="397" y="600" on="1"/>
        <pt x="397" y="517" on="1"/>
        <pt x="229" y="517" on="1"/>
        <pt x="229" y="373" on="1"/>
        <pt x="242" y="373" on="1"/>
        <pt x="268" y="409" on="0"/>
        <pt x="350" y="452" on="0"/>
        <pt x="411" y="452" on="1"/>
        <pt x="454" y="452" on="0"/>
        <pt x="518" y="431" on="0"/>
        <pt x="561" y="379" on="0"/>
        <pt x="583" y="293" on="0"/>
        <pt x="583" y="227" on="1"/>
        <pt x="583" y="0" on="1"/>
        <pt x="443" y="0" on="1"/>
        <pt x="443" y="197" on="1"/>
        <pt x="443" y="266" on="0"/>
        <pt x="402" y="328" on="0"/>
        <pt x="347" y="328" on="1"/>
        <pt x="306" y="328" on="0"/>
        <pt x="240" y="274" on="0"/>
        <pt x="229" y="232" on="1"/>
        <pt x="229" y="0" on="1"/>
        <pt x="89" y="0" on="1"/>
        <pt x="89" y="517" on="1"/>
        <pt x="0" y="517" on="1"/>
      </contour>
    </TTGlyph>
    <TTGlyph name="afii10109" xMin="72" yMin="0" xMax="564" yMax="729">
      <component glyphName="afii10076" x="0" y="0" flags="0x204"/>
      <component glyphName="acute" x="157" y="0" flags="0x4"/>
    </TTGlyph>
    <TTGlyph name="afii10110" xMin="-12" yMin="-204" xMax="547" yMax="742">
      <component glyphName="y" x="0" y="0" flags="0x204"/>
      <component glyphName="uniF6D4" x="17" y="0" flags="0x4"/>
    </TTGlyph>
    <TTGlyph name="afii10145" xMin="65" yMin="-174" xMax="629" yMax="700">
      <contour>
        <pt x="213" y="700" on="1"/>
        <pt x="213" y="130" on="1"/>
        <pt x="481" y="130" on="1"/>
        <pt x="481" y="700" on="1"/>
        <pt x="629" y="700" on="1"/>
        <pt x="629" y="0" on="1"/>
        <pt x="414" y="0" on="1"/>
        <pt x="398" y="-174" on="1"/>
        <pt x="303" y="-174" on="1"/>
        <pt x="281" y="0" on="1"/>
        <pt x="65" y="0" on="1"/>
        <pt x="65" y="700" on="1"/>
      </contour>
    </TTGlyph>
    <TTGlyph name="afii10146" xMin="0" yMin="-10" xMax="683" yMax="726">
      <contour>
        <pt x="0" y="652" on="1"/>
        <pt x="155" y="652" on="1"/>
        <pt x="155" y="726" on="1"/>
        <pt x="303" y="726" on="1"/>
        <pt x="303" y="652" on="1"/>
        <pt x="521" y="652" on="1"/>
        <pt x="521" y="528" on="1"/>
        <pt x="303" y="528" on="1"/>
        <pt x="303" y="448" on="1"/>
        <pt x="309" y="449" on="0"/>
        <pt x="333" y="452" on="0"/>
        <pt x="362" y="454" on="0"/>
        <pt x="393" y="456" on="0"/>
        <pt x="406" y="456" on="1"/>
        <pt x="460" y="456" on="0"/>
        <pt x="560" y="436" on="0"/>
        <pt x="637" y="385" on="0"/>
        <pt x="683" y="299" on="0"/>
        <pt x="683" y="233" on="1"/>
        <pt x="683" y="113" on="0"/>
        <pt x="519" y="-10" on="0"/>
        <pt x="369" y="-10" on="1"/>
        <pt x="354" y="-10" on="0"/>
        <pt x="303" y="-9" on="0"/>
        <pt x="243" y="-5" on="0"/>
        <pt x="181" y="1" on="0"/>
        <pt x="155" y="7" on="1"/>
        <pt x="155" y="528" on="1"/>
        <pt x="0" y="528" on="1"/>
      </contour>
      <contour>
        <pt x="303" y="125" on="1"/>
        <pt x="315" y="123" on="0"/>
        <pt x="355" y="120" on="0"/>
        <pt x="376" y="120" on="1"/>
        <pt x="407" y="120" on="0"/>
        <pt x="461" y="130" on="0"/>
        <pt x="502" y="154" on="0"/>
        <pt x="526" y="195" on="0"/>
        <pt x="526" y="227" on="1"/>
        <pt x="526" y="260" on="0"/>
        <pt x="501" y="299" on="0"/>
        <pt x="459" y="320" on="0"/>
        <pt x="405" y="326" on="0"/>
        <pt x="376" y="326" on="1"/>
        <pt x="368" y="326" on="0"/>
        <pt x="347" y="324" on="0"/>
        <pt x="325" y="321" on="0"/>
        <pt x="307" y="318" on="0"/>
        <pt x="303" y="317" on="1"/>
      </contour>
    </TTGlyph>
    <TTGlyph name="afii10147" xMin="40" yMin="-14" xMax="687" yMax="714">
      <contour>
        <pt x="40" y="350" on="1"/>
        <pt x="40" y="436" on="0"/>
        <pt x="84" y="572" on="0"/>
        <pt x="167" y="665" on="0"/>
        <pt x="287" y="714" on="0"/>
        <pt x="363" y="714" on="1"/>
        <pt x="444" y="714" on="0"/>
        <pt x="565" y="661" on="0"/>
        <pt x="646" y="565" on="0"/>
        <pt x="687" y="431" on="0"/>
        <pt x="687" y="350" on="1"/>
        <pt x="687" y="264" on="0"/>
        <pt x="642" y="128" on="0"/>
        <pt x="558" y="35" on="0"/>
        <pt x="438" y="-14" on="0"/>
        <pt x="363" y="-14" on="1"/>
        <pt x="282" y="-14" on="0"/>
        <pt x="161" y="39" on="0"/>
        <pt x="80" y="135" on="0"/>
        <pt x="40" y="269" on="0"/>
      </contour>
      <contour>
        <pt x="363" y="116" on="1"/>
        <pt x="432" y="116" on="0"/>
        <pt x="517" y="198" on="0"/>
        <pt x="527" y="293" on="1"/>
        <pt x="200" y="293" on="1"/>
        <pt x="210" y="212" on="0"/>
        <pt x="289" y="116" on="0"/>
      </contour>
      <contour>
        <pt x="363" y="584" on="1"/>
        <pt x="295" y="584" on="0"/>
        <pt x="211" y="501" on="0"/>
        <pt x="200" y="410" on="1"/>
        <pt x="526" y="410" on="1"/>
        <pt x="521" y="449" on="0"/>
        <pt x="497" y="513" on="0"/>
        <pt x="458" y="559" on="0"/>
        <pt x="401" y="584" on="0"/>
      </contour>
    </TTGlyph>
    <TTGlyph name="afii10148" xMin="-10" yMin="-5" xMax="747" yMax="709">
      <contour>
        <pt x="381" y="-5" on="1"/>
        <pt x="275" y="-5" on="1"/>
        <pt x="-10" y="700" on="1"/>
        <pt x="163" y="700" on="1"/>
        <pt x="315" y="296" on="1"/>
        <pt x="335" y="177" on="1"/>
        <pt x="340" y="177" on="1"/>
        <pt x="357" y="297" on="1"/>
        <pt x="432" y="524" on="1"/>
        <pt x="449" y="576" on="0"/>
        <pt x="486" y="646" on="0"/>
        <pt x="533" y="690" on="0"/>
        <pt x="592" y="709" on="0"/>
        <pt x="631" y="709" on="1"/>
        <pt x="673" y="709" on="0"/>
        <pt x="724" y="697" on="0"/>
        <pt x="747" y="686" on="1"/>
        <pt x="715" y="562" on="1"/>
        <pt x="695" y="572" on="0"/>
        <pt x="663" y="579" on="0"/>
        <pt x="645" y="579" on="1"/>
        <pt x="621" y="579" on="0"/>
        <pt x="589" y="548" on="0"/>
        <pt x="575" y="510" on="1"/>
      </contour>
    </TTGlyph>
    <TTGlyph name="afii10193" xMin="68" yMin="-174" xMax="542" yMax="525">
      <contour>
        <pt x="208" y="525" on="1"/>
        <pt x="208" y="121" on="1"/>
        <pt x="402" y="121" on="1"/>
        <pt x="402" y="525" on="1"/>
        <pt x="542" y="525" on="1"/>
        <pt x="542" y="0" on="1"/>
        <pt x="371" y="0" on="1"/>
        <pt x="355" y="-174" on="1"/>
        <pt x="260" y="-174" on="1"/>
        <pt x="238" y="0" on="1"/>
        <pt x="68" y="0" on="1"/>
        <pt x="68" y="525" on="1"/>
      </contour>
    </TTGlyph>
    <TTGlyph name="afii10194" xMin="0" yMin="-7" xMax="594" yMax="700">
      <contour>
        <pt x="0" y="525" on="1"/>
        <pt x="128" y="525" on="1"/>
        <pt x="128" y="700" on="1"/>
        <pt x="268" y="700" on="1"/>
        <pt x="268" y="525" on="1"/>
        <pt x="452" y="525" on="1"/>
        <pt x="452" y="428" on="1"/>
        <pt x="268" y="428" on="1"/>
        <pt x="268" y="337" on="1"/>
        <pt x="299" y="342" on="0"/>
        <pt x="358" y="346" on="0"/>
        <pt x="381" y="346" on="1"/>
        <pt x="439" y="346" on="0"/>
        <pt x="520" y="321" on="0"/>
        <pt x="571" y="277" on="0"/>
        <pt x="594" y="217" on="0"/>
        <pt x="594" y="183" on="1"/>
        <pt x="594" y="88" on="0"/>
        <pt x="471" y="-7" on="0"/>
        <pt x="328" y="-7" on="1"/>
        <pt x="262" y="-7" on="0"/>
        <pt x="154" y="0" on="0"/>
        <pt x="128" y="5" on="1"/>
        <pt x="128" y="428" on="1"/>
        <pt x="0" y="428" on="1"/>
      </contour>
      <contour>
        <pt x="268" y="114" on="1"/>
        <pt x="288" y="110" on="0"/>
        <pt x="323" y="110" on="0"/>
        <pt x="339" y="110" on="1"/>
        <pt x="396" y="110" on="0"/>
        <pt x="450" y="143" on="0"/>
        <pt x="450" y="181" on="1"/>
        <pt x="450" y="249" on="0"/>
        <pt x="342" y="249" on="1"/>
        <pt x="322" y="249" on="0"/>
        <pt x="288" y="245" on="0"/>
        <pt x="268" y="240" on="1"/>
      </contour>
    </TTGlyph>
    <TTGlyph name="afii10195" xMin="42" yMin="-15" xMax="574" yMax="540">
      <contour>
        <pt x="42" y="262" on="1"/>
        <pt x="42" y="395" on="0"/>
        <pt x="180" y="540" on="0"/>
        <pt x="308" y="540" on="1"/>
        <pt x="375" y="540" on="0"/>
        <pt x="475" y="499" on="0"/>
        <pt x="541" y="426" on="0"/>
        <pt x="574" y="323" on="0"/>
        <pt x="574" y="262" on="1"/>
        <pt x="574" y="131" on="0"/>
        <pt x="436" y="-15" on="0"/>
        <pt x="308" y="-15" on="1"/>
        <pt x="240" y="-15" on="0"/>
        <pt x="140" y="26" on="0"/>
        <pt x="74" y="99" on="0"/>
        <pt x="42" y="201" on="0"/>
      </contour>
      <contour>
        <pt x="430" y="304" on="1"/>
        <pt x="412" y="423" on="0"/>
        <pt x="308" y="423" on="1"/>
        <pt x="263" y="423" on="0"/>
        <pt x="193" y="368" on="0"/>
        <pt x="186" y="304" on="1"/>
      </contour>
      <contour>
        <pt x="186" y="219" on="1"/>
        <pt x="193" y="164" on="0"/>
        <pt x="260" y="102" on="0"/>
        <pt x="308" y="102" on="1"/>
        <pt x="355" y="102" on="0"/>
        <pt x="422" y="155" on="0"/>
        <pt x="430" y="219" on="1"/>
      </contour>
    </TTGlyph>
    <TTGlyph name="afii10196" xMin="-12" yMin="-5" xMax="610" yMax="534">
      <contour>
        <pt x="318" y="-5" on="1"/>
        <pt x="235" y="-5" on="1"/>
        <pt x="-12" y="525" on="1"/>
        <pt x="150" y="525" on="1"/>
        <pt x="176" y="457" on="0"/>
        <pt x="231" y="318" on="0"/>
        <pt x="257" y="250" on="1"/>
        <pt x="278" y="171" on="1"/>
        <pt x="292" y="171" on="1"/>
        <pt x="296" y="191" on="0"/>
        <pt x="305" y="232" on="0"/>
        <pt x="309" y="252" on="1"/>
        <pt x="335" y="325" on="1"/>
        <pt x="356" y="385" on="0"/>
        <pt x="391" y="465" on="0"/>
        <pt x="433" y="513" on="0"/>
        <pt x="485" y="534" on="0"/>
        <pt x="522" y="534" on="1"/>
        <pt x="548" y="534" on="0"/>
        <pt x="593" y="526" on="0"/>
        <pt x="610" y="518" on="1"/>
        <pt x="605" y="489" on="0"/>
        <pt x="595" y="435" on="0"/>
        <pt x="590" y="407" on="1"/>
        <pt x="581" y="411" on="0"/>
        <pt x="565" y="415" on="0"/>
        <pt x="555" y="415" on="1"/>
        <pt x="535" y="415" on="0"/>
        <pt x="494" y="381" on="0"/>
        <pt x="477" y="344" on="1"/>
      </contour>
    </TTGlyph>
    <TTGlyph name="afii10846" xMin="54" yMin="-15" xMax="552" yMax="540">
      <contour>
        <pt x="72" y="478" on="1"/>
        <pt x="106" y="503" on="0"/>
        <pt x="222" y="540" on="0"/>
        <pt x="288" y="540" on="1"/>
        <pt x="357" y="540" on="0"/>
        <pt x="456" y="499" on="0"/>
        <pt x="521" y="425" on="0"/>
        <pt x="552" y="323" on="0"/>
        <pt x="552" y="262" on="1"/>
        <pt x="552" y="198" on="0"/>
        <pt x="515" y="95" on="0"/>
        <pt x="447" y="23" on="0"/>
        <pt x="350" y="-15" on="0"/>
        <pt x="290" y="-15" on="1"/>
        <pt x="245" y="-15" on="0"/>
        <pt x="160" y="8" on="0"/>
        <pt x="94" y="62" on="0"/>
        <pt x="54" y="149" on="0"/>
        <pt x="54" y="212" on="1"/>
        <pt x="54" y="233" on="0"/>
        <pt x="58" y="280" on="0"/>
        <pt x="64" y="307" on="1"/>
        <pt x="416" y="307" on="1"/>
        <pt x="408" y="373" on="0"/>
        <pt x="339" y="430" on="0"/>
        <pt x="261" y="430" on="1"/>
        <pt x="215" y="430" on="0"/>
        <pt x="142" y="400" on="0"/>
        <pt x="122" y="386" on="1"/>
      </contour>
      <contour>
        <pt x="288" y="95" on="1"/>
        <pt x="318" y="95" on="0"/>
        <pt x="364" y="116" on="0"/>
        <pt x="395" y="151" on="0"/>
        <pt x="411" y="197" on="0"/>
        <pt x="412" y="223" on="1"/>
        <pt x="182" y="223" on="1"/>
        <pt x="177" y="165" on="0"/>
        <pt x="233" y="95" on="0"/>
      </contour>
    </TTGlyph>
    <TTGlyph name="afii57929" xMin="42" yMin="458" xMax="202" yMax="709">
      <component glyphName="quoteright" x="0" y="0" flags="0x4"/>
    </TTGlyph>
    <TTGlyph name="afii61289" xMin="73" yMin="-12" xMax="406" yMax="712">
      <contour>
        <pt x="406" y="30" on="1"/>
        <pt x="384" y="16" on="0"/>
        <pt x="313" y="-12" on="0"/>
        <pt x="278" y="-12" on="1"/>
        <pt x="215" y="-12" on="0"/>
        <pt x="158" y="49" on="0"/>
        <pt x="158" y="114" on="1"/>
        <pt x="158" y="218" on="1"/>
        <pt x="108" y="174" on="1"/>
        <pt x="73" y="218" on="1"/>
        <pt x="158" y="292" on="1"/>
        <pt x="158" y="546" on="1"/>
        <pt x="158" y="590" on="0"/>
        <pt x="178" y="653" on="0"/>
        <pt x="213" y="693" on="0"/>
        <pt x="260" y="712" on="0"/>
        <pt x="287" y="712" on="1"/>
        <pt x="335" y="712" on="0"/>
        <pt x="397" y="653" on="0"/>
        <pt x="397" y="593" on="1"/>
        <pt x="397" y="519" on="0"/>
        <pt x="317" y="353" on="0"/>
        <pt x="226" y="265" on="1"/>
        <pt x="226" y="125" on="1"/>
        <pt x="226" y="81" on="0"/>
        <pt x="260" y="48" on="0"/>
        <pt x="284" y="48" on="1"/>
        <pt x="309" y="48" on="0"/>
        <pt x="369" y="69" on="0"/>
        <pt x="389" y="80" on="1"/>
      </contour>
      <contour>
        <pt x="333" y="588" on="1"/>
        <pt x="333" y="622" on="0"/>
        <pt x="305" y="652" on="0"/>
        <pt x="287" y="652" on="1"/>
        <pt x="275" y="652" on="0"/>
        <pt x="253" y="645" on="0"/>
        <pt x="236" y="624" on="0"/>
        <pt x="226" y="587" on="0"/>
        <pt x="226" y="557" on="1"/>
        <pt x="226" y="345" on="1"/>
        <pt x="282" y="410" on="0"/>
        <pt x="333" y="531" on="0"/>
      </contour>
    </TTGlyph>
    <TTGlyph name="afii61352" xMin="65" yMin="-5" xMax="1068" yMax="712">
      <contour>
        <pt x="711" y="321" on="1"/>
        <pt x="1050" y="321" on="1"/>
        <pt x="1050" y="204" on="1"/>
        <pt x="711" y="204" on="1"/>
      </contour>
      <contour>
        <pt x="254" y="361" on="1"/>
        <pt x="194" y="465" on="1"/>
        <pt x="189" y="465" on="1"/>
        <pt x="205" y="363" on="1"/>
        <pt x="205" y="0" on="1"/>
        <pt x="65" y="0" on="1"/>
        <pt x="65" y="705" on="1"/>
        <pt x="172" y="705" on="1"/>
        <pt x="446" y="337" on="1"/>
        <pt x="503" y="234" on="1"/>
        <pt x="509" y="234" on="1"/>
        <pt x="493" y="335" on="1"/>
        <pt x="493" y="700" on="1"/>
        <pt x="633" y="700" on="1"/>
        <pt x="633" y="-5" on="1"/>
        <pt x="526" y="-5" on="1"/>
      </contour>
      <contour>
        <pt x="688" y="542" on="1"/>
        <pt x="688" y="587" on="0"/>
        <pt x="716" y="651" on="0"/>
        <pt x="767" y="692" on="0"/>
        <pt x="836" y="712" on="0"/>
        <pt x="878" y="712" on="1"/>
        <pt x="919" y="712" on="0"/>
        <pt x="989" y="694" on="0"/>
        <pt x="1040" y="653" on="0"/>
        <pt x="1068" y="588" on="0"/>
        <pt x="1068" y="542" on="1"/>
        <pt x="1068" y="495" on="0"/>
        <pt x="1040" y="431" on="0"/>
        <pt x="989" y="390" on="0"/>
        <pt x="919" y="372" on="0"/>
        <pt x="878" y="372" on="1"/>
        <pt x="836" y="372" on="0"/>
        <pt x="767" y="390" on="0"/>
        <pt x="716" y="431" on="0"/>
        <pt x="688" y="495" on="0"/>
      </contour>
      <contour>
        <pt x="816" y="542" on="1"/>
        <pt x="816" y="503" on="0"/>
        <pt x="843" y="459" on="0"/>
        <pt x="878" y="459" on="1"/>
        <pt x="912" y="459" on="0"/>
        <pt x="940" y="497" on="0"/>
        <pt x="940" y="542" on="1"/>
        <pt x="940" y="587" on="0"/>
        <pt x="912" y="625" on="0"/>
        <pt x="878" y="625" on="1"/>
        <pt x="844" y="625" on="0"/>
        <pt x="816" y="587" on="0"/>
      </contour>
    </TTGlyph>
    <TTGlyph name="agrave" xMin="30" yMin="-8" xMax="519" yMax="729">
      <component glyphName="a" x="0" y="0" flags="0x204"/>
      <component glyphName="grave" x="68" y="0" flags="0x4"/>
    </TTGlyph>
    <TTGlyph name="amacron" xMin="30" yMin="-8" xMax="519" yMax="679">
      <component glyphName="a" x="0" y="0" flags="0x204"/>
      <component glyphName="macron" x="44" y="0" flags="0x4"/>
    </TTGlyph>
    <TTGlyph name="ampersand" xMin="100" yMin="-14" xMax="813" yMax="714">
      <contour>
        <pt x="100" y="195" on="1"/>
        <pt x="100" y="232" on="0"/>
        <pt x="127" y="301" on="0"/>
        <pt x="175" y="362" on="0"/>
        <pt x="242" y="413" on="0"/>
        <pt x="283" y="434" on="1"/>
        <pt x="256" y="466" on="0"/>
        <pt x="221" y="533" on="0"/>
        <pt x="221" y="571" on="1"/>
        <pt x="221" y="596" on="0"/>
        <pt x="241" y="648" on="0"/>
        <pt x="286" y="688" on="0"/>
        <pt x="357" y="714" on="0"/>
        <pt x="409" y="714" on="1"/>
        <pt x="459" y="714" on="0"/>
        <pt x="529" y="692" on="0"/>
        <pt x="572" y="656" on="0"/>
        <pt x="591" y="609" on="0"/>
        <pt x="591" y="584" on="1"/>
        <pt x="591" y="544" on="0"/>
        <pt x="530" y="455" on="0"/>
        <pt x="454" y="415" on="1"/>
        <pt x="474" y="387" on="0"/>
        <pt x="511" y="339" on="0"/>
        <pt x="550" y="295" on="0"/>
        <pt x="591" y="253" on="0"/>
        <pt x="614" y="232" on="1"/>
        <pt x="638" y="257" on="0"/>
        <pt x="680" y="333" on="0"/>
        <pt x="695" y="373" on="1"/>
        <pt x="797" y="315" on="1"/>
        <pt x="789" y="298" on="0"/>
        <pt x="767" y="256" on="0"/>
        <pt x="741" y="214" on="0"/>
        <pt x="714" y="176" on="0"/>
        <pt x="702" y="162" on="1"/>
        <pt x="735" y="134" on="0"/>
        <pt x="786" y="102" on="0"/>
        <pt x="813" y="88" on="1"/>
        <pt x="737" y="-14" on="1"/>
        <pt x="709" y="-2" on="0"/>
        <pt x="645" y="42" on="0"/>
        <pt x="615" y="69" on="1"/>
        <pt x="575" y="36" on="0"/>
        <pt x="456" y="-14" on="0"/>
        <pt x="370" y="-14" on="1"/>
        <pt x="315" y="-14" on="0"/>
        <pt x="217" y="15" on="0"/>
        <pt x="143" y="69" on="0"/>
        <pt x="100" y="146" on="0"/>
      </contour>
      <contour>
        <pt x="528" y="151" on="1"/>
        <pt x="473" y="204" on="0"/>
        <pt x="382" y="307" on="0"/>
        <pt x="347" y="353" on="1"/>
        <pt x="294" y="316" on="0"/>
        <pt x="240" y="247" on="0"/>
        <pt x="240" y="207" on="1"/>
        <pt x="240" y="158" on="0"/>
        <pt x="322" y="103" on="0"/>
        <pt x="390" y="103" on="1"/>
        <pt x="433" y="103" on="0"/>
        <pt x="508" y="132" on="0"/>
      </contour>
      <contour>
        <pt x="361" y="564" on="1"/>
        <pt x="361" y="523" on="0"/>
        <pt x="401" y="477" on="1"/>
        <pt x="443" y="501" on="0"/>
        <pt x="481" y="543" on="0"/>
        <pt x="481" y="562" on="1"/>
        <pt x="481" y="587" on="0"/>
        <pt x="452" y="613" on="0"/>
        <pt x="419" y="613" on="1"/>
        <pt x="390" y="613" on="0"/>
        <pt x="361" y="586" on="0"/>
      </contour>
    </TTGlyph>
    <TTGlyph name="aogonek" xMin="30" yMin="-211" xMax="550" yMax="535">
      <contour>
        <pt x="67" y="489" on="1"/>
        <pt x="112" y="509" on="0"/>
        <pt x="243" y="535" on="0"/>
        <pt x="313" y="535" on="1"/>
        <pt x="368" y="535" on="0"/>
        <pt x="443" y="509" on="0"/>
        <pt x="487" y="460" on="0"/>
        <pt x="506" y="391" on="0"/>
        <pt x="506" y="349" on="1"/>
        <pt x="506" y="298" on="0"/>
        <pt x="498" y="198" on="0"/>
        <pt x="498" y="142" on="1"/>
        <pt x="498" y="104" on="0"/>
        <pt x="508" y="32" on="0"/>
        <pt x="519" y="-1" on="1"/>
        <pt x="498" y="-1" on="1"/>
        <pt x="466" y="-14" on="0"/>
        <pt x="431" y="-48" on="0"/>
        <pt x="432" y="-74" on="1"/>
        <pt x="432" y="-94" on="0"/>
        <pt x="460" y="-121" on="0"/>
        <pt x="484" y="-121" on="1"/>
        <pt x="495" y="-121" on="0"/>
        <pt x="515" y="-117" on="0"/>
        <pt x="528" y="-110" on="1"/>
        <pt x="550" y="-174" on="1"/>
        <pt x="532" y="-187" on="0"/>
        <pt x="462" y="-211" on="0"/>
        <pt x="421" y="-211" on="1"/>
        <pt x="360" y="-211" on="0"/>
        <pt x="296" y="-157" on="0"/>
        <pt x="296" y="-114" on="1"/>
        <pt x="296" y="-75" on="0"/>
        <pt x="356" y="-17" on="0"/>
        <pt x="405" y="0" on="1"/>
        <pt x="382" y="77" on="1"/>
        <pt x="370" y="77" on="1"/>
        <pt x="344" y="42" on="0"/>
        <pt x="264" y="-8" on="0"/>
        <pt x="201" y="-8" on="1"/>
        <pt x="163" y="-8" on="0"/>
        <pt x="100" y="14" on="0"/>
        <pt x="55" y="55" on="0"/>
        <pt x="30" y="111" on="0"/>
        <pt x="30" y="144" on="1"/>
        <pt x="30" y="233" on="0"/>
        <pt x="149" y="324" on="0"/>
        <pt x="270" y="324" on="1"/>
        <pt x="298" y="324" on="0"/>
        <pt x="354" y="315" on="0"/>
        <pt x="365" y="313" on="1"/>
        <pt x="368" y="334" on="0"/>
        <pt x="368" y="349" on="1"/>
        <pt x="368" y="387" on="0"/>
        <pt x="330" y="423" on="0"/>
        <pt x="278" y="423" on="1"/>
        <pt x="230" y="423" on="0"/>
        <pt x="139" y="400" on="0"/>
        <pt x="104" y="383" on="1"/>
      </contour>
      <contour>
        <pt x="250" y="104" on="1"/>
        <pt x="297" y="104" on="0"/>
        <pt x="353" y="148" on="0"/>
        <pt x="366" y="172" on="1"/>
        <pt x="366" y="232" on="1"/>
        <pt x="361" y="234" on="0"/>
        <pt x="340" y="238" on="0"/>
        <pt x="315" y="242" on="0"/>
        <pt x="290" y="244" on="0"/>
        <pt x="280" y="244" on="1"/>
        <pt x="226" y="244" on="0"/>
        <pt x="174" y="205" on="0"/>
        <pt x="174" y="176" on="1"/>
        <pt x="174" y="140" on="0"/>
        <pt x="215" y="104" on="0"/>
      </contour>
    </TTGlyph>
    <TTGlyph name="approxequal" xMin="30" yMin="167" xMax="541" yMax="545">
      <component glyphName="asciitilde" x="0" y="97" flags="0x204"/>
      <component glyphName="asciitilde" x="0" y="-100" flags="0x4"/>
    </TTGlyph>
    <TTGlyph name="aring" xMin="30" yMin="-8" xMax="519" yMax="764">
      <component glyphName="a" x="0" y="0" flags="0x204"/>
      <component glyphName="ring" x="105" y="0" flags="0x4"/>
    </TTGlyph>
    <TTGlyph name="asciicircum" xMin="23" yMin="411" xMax="512" yMax="705">
      <contour>
        <pt x="236" y="705" on="1"/>
        <pt x="311" y="705" on="1"/>
        <pt x="512" y="411" on="1"/>
        <pt x="370" y="411" on="1"/>
        <pt x="292" y="530" on="1"/>
        <pt x="269" y="600" on="1"/>
        <pt x="242" y="529" on="1"/>
        <pt x="158" y="411" on="1"/>
        <pt x="23" y="411" on="1"/>
      </contour>
    </TTGlyph>
    <TTGlyph name="asciitilde" xMin="30" yMin="267" xMax="541" yMax="448">
      <contour>
        <pt x="30" y="380" on="1"/>
        <pt x="81" y="418" on="0"/>
        <pt x="162" y="448" on="0"/>
        <pt x="197" y="448" on="1"/>
        <pt x="228" y="448" on="0"/>
        <pt x="282" y="431" on="0"/>
        <pt x="332" y="411" on="0"/>
        <pt x="380" y="394" on="0"/>
        <pt x="406" y="394" on="1"/>
        <pt x="426" y="394" on="0"/>
        <pt x="467" y="407" on="0"/>
        <pt x="490" y="424" on="1"/>
        <pt x="541" y="316" on="1"/>
        <pt x="502" y="288" on="0"/>
        <pt x="438" y="267" on="0"/>
        <pt x="410" y="267" on="1"/>
        <pt x="380" y="267" on="0"/>
        <pt x="328" y="285" on="0"/>
        <pt x="278" y="308" on="0"/>
        <pt x="228" y="326" on="0"/>
        <pt x="200" y="326" on="1"/>
        <pt x="174" y="326" on="0"/>
        <pt x="113" y="304" on="0"/>
        <pt x="77" y="275" on="1"/>
      </contour>
    </TTGlyph>
    <TTGlyph name="asterisk" xMin="46" yMin="427" xMax="362" yMax="735">
      <contour>
        <pt x="156" y="735" on="1"/>
        <pt x="186" y="688" on="1"/>
        <pt x="202" y="627" on="1"/>
        <pt x="218" y="684" on="1"/>
        <pt x="248" y="735" on="1"/>
        <pt x="315" y="698" on="1"/>
        <pt x="283" y="644" on="1"/>
        <pt x="232" y="600" on="1"/>
        <pt x="302" y="617" on="1"/>
        <pt x="362" y="617" on="1"/>
        <pt x="362" y="540" on="1"/>
        <pt x="304" y="540" on="1"/>
        <pt x="239" y="558" on="1"/>
        <pt x="292" y="510" on="1"/>
        <pt x="319" y="465" on="1"/>
        <pt x="251" y="427" on="1"/>
        <pt x="222" y="475" on="1"/>
        <pt x="201" y="540" on="1"/>
        <pt x="187" y="481" on="1"/>
        <pt x="156" y="429" on="1"/>
        <pt x="88" y="468" on="1"/>
        <pt x="120" y="520" on="1"/>
        <pt x="168" y="557" on="1"/>
        <pt x="108" y="540" on="1"/>
        <pt x="46" y="540" on="1"/>
        <pt x="46" y="618" on="1"/>
        <pt x="109" y="618" on="1"/>
        <pt x="172" y="600" on="1"/>
        <pt x="118" y="645" on="1"/>
        <pt x="88" y="696" on="1"/>
      </contour>
    </TTGlyph>
    <TTGlyph name="at" xMin="80" yMin="-215" xMax="1066" yMax="727">
      <contour>
        <pt x="736" y="483" on="1"/>
        <pt x="812" y="483" on="1"/>
        <pt x="759" y="215" on="1"/>
        <pt x="757" y="204" on="0"/>
        <pt x="754" y="185" on="0"/>
        <pt x="754" y="177" on="1"/>
        <pt x="754" y="153" on="0"/>
        <pt x="775" y="132" on="0"/>
        <pt x="795" y="132" on="1"/>
        <pt x="823" y="132" on="0"/>
        <pt x="877" y="155" on="0"/>
        <pt x="920" y="202" on="0"/>
        <pt x="946" y="275" on="0"/>
        <pt x="946" y="326" on="1"/>
        <pt x="946" y="403" on="0"/>
        <pt x="891" y="512" on="0"/>
        <pt x="796" y="582" on="0"/>
        <pt x="669" y="614" on="0"/>
        <pt x="597" y="614" on="1"/>
        <pt x="513" y="614" on="0"/>
        <pt x="368" y="556" on="0"/>
        <pt x="261" y="456" on="0"/>
        <pt x="201" y="320" on="0"/>
        <pt x="201" y="241" on="1"/>
        <pt x="201" y="163" on="0"/>
        <pt x="251" y="37" on="0"/>
        <pt x="348" y="-53" on="0"/>
        <pt x="493" y="-102" on="0"/>
        <pt x="588" y="-102" on="1"/>
        <pt x="618" y="-102" on="0"/>
        <pt x="697" y="-87" on="0"/>
        <pt x="730" y="-73" on="1"/>
        <pt x="763" y="-178" on="1"/>
        <pt x="718" y="-198" on="0"/>
        <pt x="627" y="-215" on="0"/>
        <pt x="567" y="-215" on="1"/>
        <pt x="460" y="-215" on="0"/>
        <pt x="281" y="-155" on="0"/>
        <pt x="152" y="-39" on="0"/>
        <pt x="80" y="128" on="0"/>
        <pt x="80" y="236" on="1"/>
        <pt x="80" y="347" on="0"/>
        <pt x="163" y="528" on="0"/>
        <pt x="306" y="657" on="0"/>
        <pt x="495" y="727" on="0"/>
        <pt x="600" y="727" on="1"/>
        <pt x="700" y="727" on="0"/>
        <pt x="870" y="671" on="0"/>
        <pt x="995" y="566" on="0"/>
        <pt x="1066" y="418" on="0"/>
        <pt x="1066" y="326" on="1"/>
        <pt x="1066" y="263" on="0"/>
        <pt x="1017" y="152" on="0"/>
        <pt x="933" y="70" on="0"/>
        <pt x="819" y="22" on="0"/>
        <pt x="754" y="22" on="1"/>
        <pt x="726" y="22" on="0"/>
        <pt x="680" y="33" on="0"/>
        <pt x="648" y="60" on="0"/>
        <pt x="633" y="105" on="0"/>
        <pt x="637" y="138" on="1"/>
        <pt x="633" y="138" on="1"/>
        <pt x="616" y="115" on="0"/>
        <pt x="578" y="73" on="0"/>
        <pt x="533" y="41" on="0"/>
        <pt x="478" y="22" on="0"/>
        <pt x="445" y="22" on="1"/>
        <pt x="419" y="22" on="0"/>
        <pt x="372" y="43" on="0"/>
        <pt x="338" y="82" on="0"/>
        <pt x="318" y="136" on="0"/>
        <pt x="318" y="169" on="1"/>
        <pt x="318" y="228" on="0"/>
        <pt x="361" y="343" on="0"/>
        <pt x="435" y="433" on="0"/>
        <pt x="533" y="489" on="0"/>
        <pt x="589" y="489" on="1"/>
        <pt x="627" y="489" on="0"/>
        <pt x="679" y="468" on="0"/>
        <pt x="702" y="450" on="1"/>
      </contour>
      <contour>
        <pt x="667" y="356" on="1"/>
        <pt x="653" y="368" on="0"/>
        <pt x="622" y="379" on="0"/>
        <pt x="599" y="379" on="1"/>
        <pt x="566" y="379" on="0"/>
        <pt x="511" y="346" on="0"/>
        <pt x="471" y="295" on="0"/>
        <pt x="449" y="234" on="0"/>
        <pt x="449" y="206" on="1"/>
        <pt x="449" y="174" on="0"/>
        <pt x="478" y="132" on="0"/>
        <pt x="515" y="132" on="1"/>
        <pt x="531" y="132" on="0"/>
        <pt x="565" y="149" on="0"/>
        <pt x="598" y="178" on="0"/>
        <pt x="628" y="217" on="0"/>
        <pt x="640" y="238" on="1"/>
      </contour>
    </TTGlyph>
    <TTGlyph name="atilde" xMin="30" yMin="-8" xMax="519" yMax="745">
      <component glyphName="a" x="0" y="0" flags="0x204"/>
      <component glyphName="tilde" x="40" y="0" flags="0x4"/>
    </TTGlyph>
    <TTGlyph name="b" xMin="72" yMin="-13" xMax="577" yMax="700">
      <contour>
        <pt x="72" y="700" on="1"/>
        <pt x="212" y="700" on="1"/>
        <pt x="212" y="480" on="1"/>
        <pt x="224" y="480" on="1"/>
        <pt x="248" y="507" on="0"/>
        <pt x="323" y="538" on="0"/>
        <pt x="368" y="538" on="1"/>
        <pt x="470" y="538" on="0"/>
        <pt x="577" y="405" on="0"/>
        <pt x="577" y="277" on="1"/>
        <pt x="577" y="208" on="0"/>
        <pt x="538" y="100" on="0"/>
        <pt x="466" y="26" on="0"/>
        <pt x="362" y="-13" on="0"/>
        <pt x="297" y="-13" on="1"/>
        <pt x="222" y="-13" on="0"/>
        <pt x="104" y="8" on="0"/>
        <pt x="72" y="21" on="1"/>
      </contour>
      <contour>
        <pt x="212" y="119" on="1"/>
        <pt x="232" y="109" on="0"/>
        <pt x="277" y="104" on="0"/>
        <pt x="303" y="104" on="1"/>
        <pt x="433" y="104" on="0"/>
        <pt x="433" y="274" on="1"/>
        <pt x="433" y="346" on="0"/>
        <pt x="379" y="421" on="0"/>
        <pt x="326" y="421" on="1"/>
        <pt x="281" y="421" on="0"/>
        <pt x="226" y="379" on="0"/>
        <pt x="212" y="338" on="1"/>
      </contour>
    </TTGlyph>
    <TTGlyph name="backslash" xMin="-24" yMin="-140" xMax="478" yMax="711">
      <contour>
        <pt x="478" y="-88" on="1"/>
        <pt x="368" y="-140" on="1"/>
        <pt x="-24" y="660" on="1"/>
        <pt x="84" y="711" on="1"/>
      </contour>
    </TTGlyph>
    <TTGlyph name="bar" xMin="65" yMin="-130" xMax="181" yMax="700">
      <contour>
        <pt x="65" y="700" on="1"/>
        <pt x="181" y="700" on="1"/>
        <pt x="181" y="-130" on="1"/>
        <pt x="65" y="-130" on="1"/>
      </contour>
    </TTGlyph>
    <TTGlyph name="braceleft" xMin="48" yMin="-230" xMax="380" yMax="701">
      <contour>
        <pt x="135" y="93" on="1"/>
        <pt x="135" y="144" on="0"/>
        <pt x="90" y="182" on="0"/>
        <pt x="48" y="182" on="1"/>
        <pt x="48" y="288" on="1"/>
        <pt x="90" y="288" on="0"/>
        <pt x="135" y="329" on="0"/>
        <pt x="135" y="373" on="1"/>
        <pt x="135" y="576" on="1"/>
        <pt x="135" y="630" on="0"/>
        <pt x="190" y="701" on="0"/>
        <pt x="250" y="701" on="1"/>
        <pt x="380" y="701" on="1"/>
        <pt x="380" y="584" on="1"/>
        <pt x="325" y="584" on="1"/>
        <pt x="296" y="584" on="0"/>
        <pt x="269" y="555" on="0"/>
        <pt x="269" y="523" on="1"/>
        <pt x="269" y="336" on="1"/>
        <pt x="269" y="292" on="0"/>
        <pt x="222" y="247" on="0"/>
        <pt x="193" y="242" on="1"/>
        <pt x="193" y="232" on="1"/>
        <pt x="222" y="228" on="0"/>
        <pt x="269" y="176" on="0"/>
        <pt x="269" y="134" on="1"/>
        <pt x="269" y="-52" on="1"/>
        <pt x="269" y="-83" on="0"/>
        <pt x="296" y="-113" on="0"/>
        <pt x="326" y="-113" on="1"/>
        <pt x="380" y="-113" on="1"/>
        <pt x="380" y="-230" on="1"/>
        <pt x="250" y="-230" on="1"/>
        <pt x="194" y="-230" on="0"/>
        <pt x="135" y="-165" on="0"/>
        <pt x="135" y="-106" on="1"/>
      </contour>
    </TTGlyph>
    <TTGlyph name="braceright" xMin="23" yMin="-230" xMax="355" yMax="701">
      <contour>
        <pt x="268" y="378" on="1"/>
        <pt x="268" y="327" on="0"/>
        <pt x="313" y="289" on="0"/>
        <pt x="355" y="289" on="1"/>
        <pt x="355" y="183" on="1"/>
        <pt x="313" y="183" on="0"/>
        <pt x="268" y="142" on="0"/>
        <pt x="268" y="98" on="1"/>
        <pt x="268" y="-104" on="1"/>
        <pt x="268" y="-158" on="0"/>
        <pt x="209" y="-230" on="0"/>
        <pt x="149" y="-230" on="1"/>
        <pt x="23" y="-230" on="1"/>
        <pt x="23" y="-113" on="1"/>
        <pt x="77" y="-113" on="1"/>
        <pt x="106" y="-113" on="0"/>
        <pt x="134" y="-84" on="0"/>
        <pt x="134" y="-52" on="1"/>
        <pt x="134" y="135" on="1"/>
        <pt x="134" y="179" on="0"/>
        <pt x="180" y="224" on="0"/>
        <pt x="210" y="229" on="1"/>
        <pt x="210" y="239" on="1"/>
        <pt x="181" y="243" on="0"/>
        <pt x="134" y="295" on="0"/>
        <pt x="134" y="337" on="1"/>
        <pt x="134" y="523" on="1"/>
        <pt x="134" y="554" on="0"/>
        <pt x="107" y="584" on="0"/>
        <pt x="76" y="584" on="1"/>
        <pt x="23" y="584" on="1"/>
        <pt x="23" y="701" on="1"/>
        <pt x="152" y="701" on="1"/>
        <pt x="209" y="701" on="0"/>
        <pt x="268" y="635" on="0"/>
        <pt x="268" y="576" on="1"/>
      </contour>
    </TTGlyph>
    <TTGlyph name="bracketleft" xMin="65" yMin="-230" xMax="319" yMax="700">
      <contour>
        <pt x="65" y="700" on="1"/>
        <pt x="319" y="700" on="1"/>
        <pt x="319" y="583" on="1"/>
        <pt x="199" y="583" on="1"/>
        <pt x="199" y="-113" on="1"/>
        <pt x="319" y="-113" on="1"/>
        <pt x="319" y="-230" on="1"/>
        <pt x="65" y="-230" on="1"/>
      </contour>
    </TTGlyph>
    <TTGlyph name="bracketright" xMin="31" yMin="-230" xMax="285" yMax="700">
      <contour>
        <pt x="285" y="-230" on="1"/>
        <pt x="31" y="-230" on="1"/>
        <pt x="31" y="-113" on="1"/>
        <pt x="151" y="-113" on="1"/>
        <pt x="151" y="583" on="1"/>
        <pt x="31" y="583" on="1"/>
        <pt x="31" y="700" on="1"/>
        <pt x="285" y="700" on="1"/>
      </contour>
    </TTGlyph>
    <TTGlyph name="breve" xMin="68" yMin="568" xMax="452" yMax="728">
      <contour>
        <pt x="132" y="728" on="1"/>
        <pt x="155" y="700" on="0"/>
        <pt x="226" y="669" on="0"/>
        <pt x="264" y="669" on="1"/>
        <pt x="302" y="669" on="0"/>
        <pt x="369" y="699" on="0"/>
        <pt x="388" y="728" on="1"/>
        <pt x="452" y="702" on="1"/>
        <pt x="447" y="678" on="0"/>
        <pt x="415" y="630" on="0"/>
        <pt x="365" y="592" on="0"/>
        <pt x="300" y="568" on="0"/>
        <pt x="263" y="568" on="1"/>
        <pt x="190" y="568" on="0"/>
        <pt x="86" y="637" on="0"/>
        <pt x="68" y="696" on="1"/>
      </contour>
    </TTGlyph>
    <TTGlyph name="brokenbar" xMin="65" yMin="-130" xMax="181" yMax="700">
      <contour>
        <pt x="65" y="213" on="1"/>
        <pt x="181" y="213" on="1"/>
        <pt x="181" y="-130" on="1"/>
        <pt x="65" y="-130" on="1"/>
      </contour>
      <contour>
        <pt x="181" y="357" on="1"/>
        <pt x="65" y="357" on="1"/>
        <pt x="65" y="700" on="1"/>
        <pt x="181" y="700" on="1"/>
      </contour>
    </TTGlyph>
    <TTGlyph name="bullet" xMin="80" yMin="158" xMax="412" yMax="466">
      <contour>
        <pt x="80" y="311" on="1"/>
        <pt x="80" y="345" on="0"/>
        <pt x="107" y="402" on="0"/>
        <pt x="152" y="443" on="0"/>
        <pt x="212" y="466" on="0"/>
        <pt x="245" y="466" on="1"/>
        <pt x="279" y="466" on="0"/>
        <pt x="340" y="445" on="0"/>
        <pt x="385" y="404" on="0"/>
        <pt x="412" y="347" on="0"/>
        <pt x="412" y="311" on="1"/>
        <pt x="412" y="275" on="0"/>
        <pt x="385" y="219" on="0"/>
        <pt x="340" y="179" on="0"/>
        <pt x="279" y="158" on="0"/>
        <pt x="245" y="158" on="1"/>
        <pt x="212" y="158" on="0"/>
        <pt x="152" y="179" on="0"/>
        <pt x="107" y="219" on="0"/>
        <pt x="80" y="275" on="0"/>
      </contour>
    </TTGlyph>
    <TTGlyph name="c" xMin="42" yMin="-15" xMax="468" yMax="540">
      <contour>
        <pt x="468" y="32" on="1"/>
        <pt x="434" y="9" on="0"/>
        <pt x="339" y="-15" on="0"/>
        <pt x="288" y="-15" on="1"/>
        <pt x="220" y="-15" on="0"/>
        <pt x="127" y="25" on="0"/>
        <pt x="68" y="99" on="0"/>
        <pt x="42" y="200" on="0"/>
        <pt x="42" y="262" on="1"/>
        <pt x="42" y="393" on="0"/>
        <pt x="171" y="540" on="0"/>
        <pt x="294" y="540" on="1"/>
        <pt x="354" y="540" on="0"/>
        <pt x="431" y="521" on="0"/>
        <pt x="461" y="506" on="1"/>
        <pt x="427" y="394" on="1"/>
        <pt x="401" y="405" on="0"/>
        <pt x="350" y="416" on="0"/>
        <pt x="316" y="416" on="1"/>
        <pt x="253" y="416" on="0"/>
        <pt x="186" y="343" on="0"/>
        <pt x="186" y="262" on="1"/>
        <pt x="186" y="230" on="0"/>
        <pt x="202" y="175" on="0"/>
        <pt x="236" y="133" on="0"/>
        <pt x="288" y="109" on="0"/>
        <pt x="323" y="109" on="1"/>
        <pt x="365" y="109" on="0"/>
        <pt x="414" y="124" on="0"/>
        <pt x="436" y="137" on="1"/>
      </contour>
    </TTGlyph>
    <TTGlyph name="cacute" xMin="42" yMin="-15" xMax="468" yMax="729">
      <component glyphName="c" x="0" y="0" flags="0x204"/>
      <component glyphName="acute" x="159" y="0" flags="0x4"/>
    </TTGlyph>
</ttFont>
